<?xml version="1.0" standalone="no"?>
<!DOCTYPE svg PUBLIC "-//W3C//DTD SVG 20010904//EN"
 "http://www.w3.org/TR/2001/REC-SVG-20010904/DTD/svg10.dtd">
<svg version="1.0" xmlns="http://www.w3.org/2000/svg"
 width="750.000000pt" height="500.000000pt" viewBox="0 0 750.000000 500.000000"
 preserveAspectRatio="xMidYMid meet">
<metadata>
Created by potrace 1.16, written by Peter Selinger 2001-2019
</metadata>
<g transform="translate(0.000000,500.000000) scale(0.100000,-0.100000)"
fill="#000000" stroke="none">
<path d="M0 3643 l1 -1358 27 35 c51 66 126 142 187 187 70 54 214 124 303
149 55 15 70 24 110 71 26 30 64 63 84 73 121 64 309 14 451 -119 70 -66 111
-125 128 -183 5 -18 39 -64 74 -101 l64 -68 83 8 c63 6 83 12 84 23 2 27 34
91 49 96 8 4 12 10 9 15 -2 5 -14 3 -25 -4 -17 -10 -22 -9 -35 8 -14 19 -13
20 13 26 15 4 22 7 16 8 -7 0 -13 6 -13 12 0 5 4 8 9 5 4 -3 18 36 31 87 23
92 48 156 50 127 1 -11 3 -10 9 3 4 11 6 -19 5 -65 -1 -86 -19 -184 -35 -194
-5 -3 -9 -14 -9 -26 0 -14 -5 -18 -15 -14 -21 8 -19 0 12 -41 26 -33 26 -35 6
-25 -12 7 -27 20 -32 30 -10 16 -10 16 -11 -1 0 -10 7 -31 15 -47 9 -17 12
-40 9 -58 -5 -27 -3 -30 28 -35 18 -3 41 -8 50 -12 16 -6 17 -3 11 25 -4 24
-3 31 5 26 24 -15 11 13 -15 34 -18 14 -21 19 -10 16 10 -3 28 -6 40 -7 12 0
16 -3 9 -6 -23 -9 -1 -22 28 -17 26 6 30 3 37 -25 l8 -31 36 33 c24 21 44 53
59 95 l23 63 -21 42 c-24 47 -16 65 19 46 23 -12 24 -11 7 8 -21 23 -24 38 -6
27 7 -5 2 5 -10 21 -20 25 -21 30 -7 37 8 5 15 18 15 28 0 11 6 18 13 16 6 -1
9 -1 4 2 -4 2 -14 17 -23 34 -10 20 -11 28 -3 23 14 -9 5 8 -20 37 -17 19 -41
24 -41 8 0 -5 -7 -10 -15 -10 -8 0 -15 -5 -15 -11 0 -6 -9 -22 -20 -36 -11
-14 -20 -34 -20 -44 0 -9 -6 -19 -12 -21 -9 -3 -14 -37 -16 -111 -4 -101 -12
-129 -27 -90 -3 10 -8 72 -11 138 -9 235 -12 268 -26 276 -10 7 -10 9 2 9 12
1 11 3 -3 11 -9 6 -15 14 -12 20 3 5 -1 6 -9 3 -11 -4 -16 0 -16 10 0 32 1 33
48 35 13 0 20 6 17 11 -10 16 11 12 25 -5 7 -8 18 -15 24 -15 6 0 2 7 -8 15
-11 8 -17 18 -13 21 4 4 2 13 -4 21 -20 23 5 14 34 -12 32 -31 36 -21 5 12
-21 23 -13 34 9 12 9 -9 11 -7 7 8 -8 28 23 39 47 17 23 -21 25 -7 2 18 -15
17 -15 18 3 19 10 1 25 1 32 0 6 -1 12 3 12 9 0 5 -5 10 -11 10 -6 0 -9 6 -6
13 2 6 13 10 23 8 19 -3 19 -3 0 18 -11 12 -15 21 -11 21 4 0 25 -19 46 -42
43 -48 54 -44 14 4 -14 17 -23 33 -20 36 3 4 10 0 14 -7 5 -7 13 -11 19 -7 6
3 18 -4 26 -16 9 -12 16 -18 16 -13 0 6 -7 19 -15 29 -14 19 -21 46 -9 33 8
-8 33 16 27 26 -2 4 5 7 16 7 12 0 21 5 21 11 0 6 9 1 20 -12 21 -26 26 -20
10 11 -7 13 -7 21 2 26 6 4 8 3 5 -3 -4 -6 -1 -13 7 -16 10 -4 12 0 8 15 -3
13 1 24 12 30 9 5 16 16 16 24 0 8 5 12 10 9 11 -7 49 32 50 51 0 6 27 41 60
77 64 69 151 130 240 167 71 30 82 40 43 40 -17 0 -51 11 -74 25 l-44 25 33 0
c23 0 31 4 26 12 -8 13 123 5 185 -12 70 -18 176 -43 195 -45 10 -1 22 -9 28
-18 5 -9 15 -17 23 -17 15 0 -3 26 -46 69 -20 19 -37 67 -20 57 8 -5 8 1 0 21
-16 41 -39 236 -29 247 9 9 40 -45 59 -106 7 -20 19 -42 28 -50 14 -11 15 -10
9 10 -4 12 -4 22 1 21 16 -4 43 13 43 28 0 8 4 12 9 8 5 -3 12 4 16 15 3 11
11 20 16 20 6 0 18 7 26 16 9 8 25 13 35 11 14 -4 18 -2 14 10 -4 10 4 8 31
-8 33 -20 36 -21 30 -5 -6 16 -5 17 8 6 8 -7 15 -19 15 -26 0 -8 3 -14 8 -15
4 0 17 -2 30 -5 22 -4 22 -2 17 49 -3 28 -18 105 -32 170 -21 100 -23 122 -13
147 7 17 16 30 20 30 12 0 37 -33 63 -85 19 -37 26 -44 27 -27 0 17 6 22 25
22 14 0 25 5 25 10 0 6 5 10 11 10 6 0 8 -9 4 -20 -5 -14 -2 -18 8 -15 8 4 21
-7 32 -29 10 -19 23 -32 28 -29 5 3 6 -4 3 -15 -5 -16 0 -25 20 -38 24 -16 25
-19 8 -25 -16 -6 -15 -8 6 -8 20 -1 22 -3 10 -11 -24 -15 2 -11 30 5 14 8 28
14 33 15 14 0 7 -48 -9 -61 -27 -22 -61 -101 -75 -174 -9 -44 -14 -136 -14
-245 0 -156 2 -182 23 -244 25 -73 66 -161 87 -186 7 -8 25 -36 39 -62 26 -47
33 -78 18 -78 -13 0 -62 44 -62 56 0 5 -13 17 -29 27 -15 9 -34 30 -41 47 -7
16 -16 30 -20 30 -5 0 -11 14 -15 30 -4 17 -13 30 -21 30 -7 0 -16 12 -20 28
-3 15 -15 59 -26 97 -11 39 -21 91 -21 118 0 26 -4 47 -8 47 -4 0 -10 -62 -15
-137 l-7 -138 33 -95 c30 -85 33 -106 33 -201 -1 -129 -29 -247 -79 -334 -42
-74 -52 -86 -139 -159 -243 -206 -576 -193 -815 31 -43 40 -80 70 -83 67 -3
-4 -18 -4 -32 0 -27 7 -36 46 -10 46 8 0 15 2 15 5 0 7 -70 137 -80 148 -8 9
-40 -1 -40 -13 0 -4 -12 -34 -27 -66 -15 -33 -28 -63 -29 -69 -2 -5 -19 -57
-39 -115 -21 -58 -38 -112 -40 -120 -2 -8 -7 -28 -11 -45 -4 -16 -7 -38 -5
-48 2 -12 -5 -17 -23 -17 -16 0 -35 -11 -49 -27 -12 -14 -30 -35 -39 -45 -12
-12 -14 -18 -5 -18 19 0 31 12 44 43 10 20 20 27 41 27 15 0 33 5 40 12 10 10
16 8 29 -5 15 -15 15 -17 2 -17 -9 0 -24 -9 -34 -20 -10 -11 -28 -20 -39 -20
-21 -1 -21 -1 -2 -15 11 -8 30 -15 43 -15 25 0 28 -7 13 -44 -10 -28 -8 -30
32 -40 17 -4 32 -1 40 7 14 14 90 18 81 5 -2 -5 4 -8 14 -8 17 -1 17 -1 -1
-11 -13 -8 -25 -8 -43 0 -34 15 -36 14 -31 -14 6 -29 6 -30 -32 -10 -18 9 -30
11 -30 5 0 -6 11 -15 25 -20 31 -12 33 -30 3 -24 -13 3 -3 -5 21 -16 24 -11
49 -19 55 -18 13 3 105 -31 124 -45 7 -6 12 -6 12 0 0 14 -67 60 -108 74 -17
6 -32 15 -32 20 0 15 23 10 68 -16 24 -13 50 -21 59 -18 11 5 14 3 8 -6 -5
-10 -2 -12 11 -7 11 3 26 1 34 -4 13 -9 13 -10 0 -11 -8 -1 -18 -1 -22 0 -16
2 -7 -16 17 -39 18 -17 28 -20 38 -12 17 14 60 4 53 -13 -3 -9 2 -11 17 -8 18
5 20 3 10 -7 -10 -11 -18 -11 -38 -2 -32 15 -35 15 -35 0 0 -7 16 -29 36 -49
21 -22 34 -44 32 -55 -2 -14 -11 -7 -33 29 -29 45 -45 58 -45 37 0 -5 -4 -10
-10 -10 -5 0 -10 8 -10 18 0 13 -2 14 -9 3 -7 -10 -13 -11 -30 -2 -12 7 -25
10 -30 7 -5 -3 -24 5 -42 17 -19 13 -69 47 -112 76 -43 30 -83 65 -88 78 -16
43 -30 51 -59 36 -34 -18 -85 -15 -145 7 -43 16 -47 26 -7 21 6 -1 12 3 12 9
0 5 -6 10 -12 10 -9 0 -8 3 2 10 8 5 11 12 8 16 -11 10 -108 11 -115 1 -8 -12
-112 2 -139 19 -13 9 -29 12 -35 8 -9 -5 -5 -10 12 -16 19 -7 21 -11 9 -18 -9
-6 -20 -4 -30 3 -13 11 -13 10 -1 -5 7 -10 18 -18 23 -18 5 0 21 -9 35 -20 33
-25 17 -25 -77 1 -79 21 -123 47 -60 34 24 -5 32 -4 25 3 -5 6 -48 12 -94 13
-47 1 -94 4 -105 7 -19 5 -19 6 -1 12 18 6 17 9 -10 23 l-30 17 30 -6 c17 -4
35 -10 40 -14 18 -14 145 -23 145 -10 0 8 6 8 21 0 11 -6 25 -10 31 -8 6 2
-11 12 -38 23 -27 10 -94 39 -149 65 -55 26 -116 47 -135 48 -22 0 -41 8 -52
21 -9 12 -30 24 -47 27 -17 4 -34 11 -37 16 -10 16 108 -19 191 -57 17 -8 47
-21 68 -29 20 -9 53 -23 73 -31 35 -16 35 -15 24 6 -7 11 -47 56 -91 100 -62
62 -97 87 -165 120 -77 37 -97 43 -181 48 -52 4 -100 3 -106 -1 -7 -4 -27 -8
-44 -8 -18 0 -33 -4 -33 -10 0 -5 -7 -10 -16 -10 -8 0 -12 -4 -9 -10 9 -14
-18 -13 -33 2 -9 9 -13 7 -18 -5 -4 -11 -18 -17 -40 -17 -19 0 -34 -4 -34 -10
0 -6 -9 -6 -25 0 -30 11 -80 3 -96 -16 -6 -8 -18 -14 -26 -14 -7 0 -16 -6 -19
-14 -3 -8 -16 -17 -28 -20 -18 -4 -22 -11 -19 -29 3 -14 -2 -29 -11 -36 -22
-18 -20 -38 4 -44 13 -3 18 -10 14 -21 -8 -20 14 -21 42 -2 40 28 98 37 137
21 20 -8 38 -19 41 -24 9 -13 47 -1 79 25 l27 23 -47 7 c-27 4 -42 9 -35 12
22 7 191 -29 189 -41 -4 -18 95 -38 174 -34 98 6 134 -8 200 -72 35 -34 58
-50 69 -46 10 3 29 1 44 -5 25 -9 26 -12 20 -59 -6 -48 -5 -51 35 -93 29 -31
41 -38 41 -25 0 9 5 17 10 17 6 0 10 -4 10 -10 0 -5 0 -12 0 -15 0 -2 21 -24
46 -48 41 -38 43 -43 24 -44 -12 -1 -24 -4 -26 -6 -2 -2 5 -27 16 -57 11 -30
18 -56 15 -58 -2 -3 -7 3 -11 12 -4 10 -13 15 -24 11 -10 -3 -22 0 -26 6 -5 9
-2 10 9 6 16 -6 16 -4 1 17 -18 29 -50 46 -36 20 5 -10 6 -33 1 -54 -5 -21 -8
-69 -7 -107 0 -38 -4 -78 -10 -90 -6 -11 -10 -22 -9 -24 1 -2 -3 1 -9 8 -16
18 -28 16 -49 -7 -14 -15 -21 -17 -32 -8 -17 14 -63 -4 -63 -25 0 -7 -6 -22
-14 -32 -13 -18 -14 -18 -31 -1 -10 10 -26 15 -37 13 -11 -3 -21 0 -24 8 -6
13 -34 13 -67 0 -13 -6 -17 -14 -13 -30 5 -19 3 -22 -15 -18 -15 4 -22 0 -26
-16 -3 -11 -12 -21 -19 -21 -8 0 -14 -4 -14 -10 0 -5 -6 -10 -13 -10 -14 0
-57 -33 -57 -43 0 -3 10 -7 23 -10 20 -3 19 -5 -10 -18 -26 -12 -30 -18 -21
-27 14 -14 58 -16 58 -3 0 6 12 9 26 8 33 -2 42 16 15 29 -15 7 -18 13 -11 24
8 12 10 12 10 -5 0 -17 2 -17 10 -5 8 13 10 13 10 -2 0 -9 5 -18 12 -20 6 -2
9 -11 5 -20 -12 -32 -157 -40 -247 -14 -25 8 -55 14 -66 14 -19 1 -20 -2 -10
-24 6 -13 17 -24 24 -24 6 0 12 -7 12 -15 0 -8 3 -15 8 -15 4 0 13 -12 19 -28
10 -21 25 -31 60 -41 27 -8 54 -18 61 -24 34 -26 187 4 271 55 63 38 138 106
187 171 52 69 116 197 134 269 9 33 16 45 26 41 19 -7 18 -20 -11 -110 -47
-148 -169 -316 -300 -413 -78 -58 -205 -127 -267 -146 -53 -16 -64 -26 -59
-56 1 -11 -75 -65 -129 -92 -75 -38 -139 -51 -246 -51 -92 0 -106 3 -160 30
-50 26 -63 38 -86 85 -15 30 -33 78 -40 105 -10 41 -25 64 -88 130 -42 44 -91
97 -108 118 l-32 38 0 -661 0 -660 573 1 c314 0 581 4 592 9 17 7 17 9 3 9
-26 1 -22 20 5 25 84 17 203 26 419 29 54 1 98 5 98 8 0 3 29 6 65 7 63 2 65
1 65 -22 0 -47 6 -51 75 -48 57 3 65 6 65 24 0 27 56 78 85 78 30 0 65 -44 65
-80 l0 -27 143 -6 c78 -4 170 -7 203 -7 l61 0 7 37 c3 21 6 61 6 88 l0 50 19
-28 18 -28 13 30 c10 25 15 29 31 21 20 -11 35 4 31 31 -2 9 4 19 13 22 8 4
15 12 15 20 0 24 21 35 50 27 34 -10 112 -1 104 11 -3 5 -1 9 5 9 5 0 12 -6
15 -12 3 -10 8 -8 15 4 11 17 44 15 69 -5 11 -8 17 -6 25 8 17 31 17 46 -1 51
-9 3 -25 10 -34 15 -10 5 -27 9 -39 9 -11 0 -29 5 -40 10 -16 9 -17 15 -9 31
6 11 8 24 5 30 -4 5 -1 16 5 24 7 8 9 15 4 15 -5 0 -1 5 9 11 22 13 38 2 17
-11 -10 -7 -11 -10 -2 -10 6 0 12 -7 12 -16 0 -8 5 -12 10 -9 6 4 8 14 6 23
-7 21 8 47 22 38 6 -3 13 -2 16 3 3 5 -1 11 -9 15 -22 8 -18 37 5 43 11 3 20
8 20 12 0 4 9 7 20 7 14 0 20 -7 21 -26 1 -14 3 -32 4 -40 1 -8 3 -25 4 -37 0
-13 6 -23 12 -23 6 0 9 9 6 20 -3 11 -1 20 4 20 4 0 6 7 2 17 -5 14 -1 15 25
10 37 -8 40 -4 44 56 2 26 6 47 10 47 3 0 4 -33 1 -74 -5 -67 -4 -74 16 -88
18 -13 20 -19 11 -43 -17 -43 -25 -175 -11 -175 6 0 11 4 11 9 0 10 48 2 56
-10 3 -5 23 -9 44 -9 67 0 62 -33 -6 -42 -48 -7 -63 0 -61 26 1 10 -4 21 -10
23 -7 3 -13 -1 -13 -8 0 -7 -11 -26 -23 -43 -19 -24 -25 -49 -30 -108 -5 -76
-5 -78 18 -78 32 0 52 25 35 45 -10 12 -9 16 4 21 13 5 14 9 4 21 -9 11 -9 16
3 24 12 8 12 10 -1 18 -8 6 -11 13 -7 17 9 10 117 18 117 10 0 -11 -61 -119
-78 -138 -14 -17 -10 -18 67 -18 69 0 84 3 98 20 10 11 24 20 33 21 8 0 4 5
-10 11 -16 7 -20 12 -12 15 16 6 62 -16 62 -29 0 -4 -15 -14 -33 -22 -29 -13
-12 -14 178 -14 116 0 201 3 190 5 -33 8 -49 25 -33 34 7 5 20 6 29 4 9 -3 22
1 29 10 10 12 9 15 -6 16 -14 1 -12 3 6 8 16 5 24 13 22 24 -2 14 6 17 40 18
30 2 35 3 16 6 -62 9 -22 22 70 23 154 1 167 0 170 -10 2 -6 10 -10 18 -10 8
0 13 -6 11 -12 -1 -7 6 -12 15 -10 9 1 19 -6 23 -18 5 -15 15 -20 45 -20 24 0
40 5 44 15 4 10 -1 15 -15 15 -21 0 -20 1 2 20 13 10 18 19 12 20 -7 0 -13 4
-13 10 0 5 14 7 33 4 17 -4 50 -6 71 -6 27 0 35 -3 25 -9 -8 -5 -22 -9 -32 -9
-10 0 -16 -4 -12 -9 3 -5 21 -7 40 -4 23 4 35 2 35 -6 0 -6 -7 -11 -16 -11
-14 0 -14 -3 -4 -15 7 -9 18 -14 24 -12 18 6 91 -20 88 -32 -1 -6 4 -11 12
-11 8 0 17 -7 20 -16 6 -15 17 -14 65 4 9 3 12 1 7 -6 -5 -9 10 -12 53 -12 48
0 61 3 61 15 0 8 5 15 10 15 6 0 10 5 10 11 0 6 -6 9 -13 6 -8 -3 -12 11 -13
49 -1 51 1 54 25 55 l26 1 -24 7 c-46 12 -34 28 26 34 113 12 168 15 138 10
-29 -6 -29 -6 15 -18 36 -11 40 -13 18 -14 -16 -1 -28 -5 -28 -11 0 -6 37 -11
88 -11 l87 -2 -82 -9 c-46 -6 -83 -13 -83 -17 0 -5 34 -6 75 -3 52 3 75 1 75
-7 0 -6 -18 -11 -42 -12 -32 0 -38 -2 -23 -8 15 -7 5 -10 -39 -16 -43 -6 -54
-10 -43 -17 10 -5 24 -5 35 1 21 11 108 7 162 -7 33 -9 31 -10 -27 -11 -35 -1
-63 -5 -63 -10 0 -17 99 -22 533 -27 l438 -5 -136 153 c-74 84 -145 159 -158
165 -14 8 -17 13 -7 13 22 0 70 48 70 70 0 11 -9 43 -19 72 -10 29 -22 85 -26
123 -3 39 -9 80 -12 93 -4 16 -1 22 8 20 9 -2 13 4 11 15 -3 18 13 23 23 7 3
-6 11 -10 17 -10 6 0 3 9 -6 19 -11 12 -14 21 -7 26 6 3 11 3 12 -2 0 -4 4 2
9 15 5 12 16 22 25 22 8 0 15 5 15 10 0 6 5 10 10 10 6 0 21 9 33 21 12 12 47
38 79 60 31 21 69 54 85 72 33 41 76 63 198 106 84 30 90 31 102 15 19 -25 16
-34 -9 -34 -13 0 -66 -14 -118 -32 -73 -24 -104 -40 -132 -68 -57 -57 -46 -89
24 -69 37 10 111 12 121 3 3 -4 -4 -15 -17 -25 -30 -23 -37 -61 -19 -96 16
-31 8 -42 -39 -57 -23 -8 -38 -22 -49 -46 -10 -20 -51 -64 -93 -99 -42 -35
-76 -68 -76 -73 0 -5 12 0 26 11 15 11 30 18 35 15 5 -3 6 2 3 11 -4 9 -3 15
2 14 23 -4 35 3 44 26 5 14 15 25 23 25 7 0 19 8 28 18 8 9 37 35 64 57 27 22
63 55 80 72 17 18 35 33 39 33 4 0 38 31 75 69 38 39 71 67 75 64 3 -4 6 -1 6
5 0 7 9 12 20 12 13 0 24 10 30 26 6 15 15 22 21 18 7 -4 10 -1 7 7 -2 7 17
35 44 61 26 26 48 53 48 60 0 10 2 10 9 0 7 -11 9 -11 14 2 4 9 18 21 32 28
14 6 25 17 25 25 0 7 7 13 16 13 8 0 12 4 9 10 -3 5 1 10 9 10 9 0 16 7 16 15
0 9 9 15 23 15 16 0 18 3 8 9 -9 6 -10 10 -2 16 7 4 17 2 24 -3 7 -5 21 -6 32
-1 18 7 18 8 2 8 -10 1 -15 6 -12 11 3 6 0 10 -7 10 -7 0 2 9 20 20 39 24 34
24 60 1 22 -19 30 -37 12 -26 -21 13 -8 -8 23 -36 25 -23 29 -31 18 -38 -8 -5
-11 -16 -7 -26 6 -18 -29 -53 -47 -47 -5 1 -6 -1 -3 -6 3 -5 -29 -42 -70 -82
-61 -59 -78 -71 -86 -59 -8 11 -9 11 -4 -3 5 -16 -163 -177 -402 -388 l-62
-55 57 -6 c32 -4 87 -7 121 -8 46 -1 71 -6 88 -20 l23 -18 -40 -6 c-22 -3 -49
-13 -60 -23 -20 -18 -26 -69 -9 -79 6 -3 10 -11 10 -16 0 -6 -36 -7 -98 -3
-85 6 -100 4 -115 -10 -25 -25 -21 -61 9 -85 22 -17 24 -23 14 -41 -9 -17 -8
-26 4 -44 17 -26 56 -35 169 -37 l69 -2 -63 -63 -63 -64 494 2 c272 1 464 5
425 8 l-70 7 80 -3 c44 -2 114 -6 155 -8 65 -3 68 -3 20 4 l-55 7 53 1 c71 3
66 18 -9 27 -42 5 -57 10 -48 16 8 5 35 7 62 3 43 -5 47 -4 47 15 0 17 -7 21
-37 22 l-38 2 38 10 c52 15 46 25 -15 30 l-53 3 53 2 52 2 0 74 c0 74 0 75
-27 79 l-28 4 28 2 c22 1 27 6 27 25 0 18 -7 26 -22 29 l-23 4 23 2 22 1 0
2315 0 2315 -1479 0 c-999 0 -1482 -3 -1486 -10 -12 -19 6 -70 24 -70 10 0 28
-11 40 -24 l23 -25 -23 5 c-24 5 -24 5 3 -15 22 -18 25 -27 21 -60 -3 -23 -1
-41 6 -45 19 -12 12 -23 -12 -19 -13 3 -27 14 -32 26 -11 24 -51 35 -68 18 -8
-8 -4 -11 13 -11 14 0 31 -4 39 -9 11 -7 11 -10 -1 -17 -16 -10 -19 -75 -3
-86 14 -11 77 -10 71 1 -3 4 -17 6 -31 3 -28 -5 -29 -3 -15 32 19 50 91 15 74
-37 -17 -47 -4 -107 32 -158 19 -28 33 -56 31 -62 -2 -6 -12 4 -23 22 -17 29
-23 32 -51 26 -37 -7 -43 7 -17 36 14 16 14 18 -4 23 -11 4 -27 18 -36 31 -13
20 -20 22 -44 15 -16 -4 -35 -4 -43 0 -7 5 -17 6 -22 3 -5 -3 -8 0 -5 8 3 8
10 14 17 14 11 0 31 23 31 37 0 4 -6 5 -14 2 -10 -4 -21 6 -32 28 -9 18 -18
35 -20 36 -1 2 -19 -1 -38 -8 -44 -14 -48 -34 -6 -28 18 3 29 0 28 -6 -1 -6 2
-22 6 -35 5 -14 4 -27 -3 -34 -7 -7 -15 -1 -26 24 -13 28 -15 29 -11 7 4 -14
2 -28 -2 -30 -4 -2 -2 -14 5 -28 10 -20 13 -21 13 -7 0 16 5 18 43 12 23 -4
47 -10 52 -13 6 -4 18 -5 28 -4 11 2 17 -3 17 -17 0 -10 3 -28 7 -38 6 -16 5
-16 -10 -4 -9 7 -17 9 -17 4 0 -17 79 -55 101 -48 11 4 27 1 35 -5 12 -11 12
-14 -1 -24 -13 -9 -14 -17 -5 -40 8 -21 7 -32 -1 -42 -7 -8 -9 -17 -5 -21 3
-3 6 -1 6 7 0 10 3 10 14 1 20 -17 30 3 16 30 -8 14 -8 25 -2 31 13 13 25 -8
24 -43 0 -16 3 -29 8 -29 4 0 11 -8 15 -17 5 -15 4 -16 -6 -5 -15 14 -33 16
-24 2 4 -6 -6 -7 -24 -4 -19 4 -37 1 -46 -6 -14 -11 -12 -18 11 -59 15 -25 40
-59 56 -75 15 -17 28 -33 28 -37 0 -4 7 -15 16 -23 11 -12 13 -20 5 -33 -9
-15 -10 -15 -11 -2 0 20 -42 59 -63 59 -10 0 -18 -9 -18 -20 -1 -11 -2 -26 -3
-32 -1 -7 5 -12 12 -10 10 2 11 -4 7 -19 -5 -15 0 -29 17 -47 34 -38 59 -108
48 -135 -7 -19 -9 -16 -9 15 -1 27 -7 40 -22 49 -16 8 -23 8 -28 0 -5 -8 -12
-7 -25 2 -18 13 -18 15 -1 40 9 15 16 28 14 28 -2 1 -24 2 -48 4 -26 1 -47 7
-49 15 -3 9 2 11 22 6 14 -3 26 -2 26 3 0 16 -20 23 -46 17 -20 -5 -24 -13
-24 -41 0 -18 4 -36 9 -39 14 -9 -21 -76 -39 -76 -9 0 -22 12 -29 26 -10 23
-16 25 -46 20 l-35 -7 20 36 c11 20 20 42 20 49 0 11 10 13 41 9 40 -6 40 -6
34 23 -15 65 -16 66 -41 60 -14 -4 -24 -2 -24 4 0 5 7 10 16 10 8 0 13 4 9 9
-3 5 -21 7 -41 4 l-36 -6 16 31 c9 17 16 38 16 47 0 12 6 15 20 11 11 -3 30
-9 41 -12 19 -5 21 -3 16 17 -4 15 0 30 11 42 16 19 16 19 -5 13 -14 -5 -23
-3 -23 3 0 6 -9 11 -19 11 -11 0 -23 5 -27 12 -5 8 -2 9 9 5 19 -7 23 8 6 18
-14 9 -69 -14 -69 -29 0 -7 7 -21 15 -32 16 -21 20 -38 6 -30 -5 3 -15 -2 -22
-11 -12 -15 -12 -16 4 -10 23 8 34 -17 17 -38 -9 -11 -16 -12 -25 -5 -9 8 -14
7 -17 -1 -2 -7 -18 1 -38 20 -26 23 -41 30 -58 26 -22 -5 -22 -5 -9 27 8 18
16 38 18 43 2 6 22 10 44 10 22 0 40 5 40 10 0 6 -11 31 -24 58 -20 39 -29 47
-52 47 -15 0 -31 -4 -34 -10 -10 -17 -19 -11 -33 19 -15 34 -64 56 -92 41 -23
-12 -30 -13 -30 -2 0 5 12 14 27 21 19 9 23 15 15 23 -8 8 -18 6 -36 -6 -32
-21 -32 -31 0 -73 l25 -33 -35 0 c-25 0 -36 -4 -36 -15 0 -8 5 -15 12 -15 7 0
5 -5 -5 -12 -9 -7 -19 -33 -23 -57 -7 -43 -7 -44 18 -38 20 5 27 2 36 -19 15
-32 15 -34 -2 -34 -7 0 -18 -6 -25 -13 -8 -11 -5 -13 19 -9 29 4 30 4 19 -27
-6 -17 -14 -31 -19 -31 -13 0 -30 26 -22 35 4 4 -5 0 -21 -10 -25 -16 -29 -16
-46 -1 -9 9 -23 16 -30 16 -9 0 -11 6 -6 18 5 9 10 32 13 50 4 29 7 33 27 28
20 -5 22 -3 16 17 -21 62 -36 87 -54 87 -16 0 -18 5 -14 27 4 24 4 26 -8 10
-15 -21 -25 -22 -25 -2 0 8 -7 15 -15 15 -11 0 -15 -11 -15 -39 0 -43 8 -54
30 -41 9 6 18 3 27 -8 21 -28 15 -47 -18 -59 -29 -11 -30 -15 -28 -57 2 -25
-1 -49 -5 -53 -4 -4 -7 -3 -6 2 5 23 -1 35 -18 35 -28 0 -44 43 -30 77 6 16
10 36 9 46 -1 10 4 17 13 17 21 0 20 12 -4 43 -11 14 -20 32 -20 41 0 9 -4 16
-9 16 -15 0 -24 -41 -12 -53 17 -17 13 -37 -8 -37 -29 0 -45 -28 -42 -72 3
-55 19 -79 42 -65 22 13 28 9 31 -24 3 -22 0 -24 -40 -24 -54 0 -74 11 -49 26
21 12 22 29 2 55 -13 16 -14 16 -9 2 4 -13 1 -18 -11 -18 -23 0 -45 -24 -46
-52 0 -21 -1 -22 -8 -3 -7 17 -7 48 -2 91 0 6 12 16 25 24 15 8 22 18 19 28
-4 8 4 22 18 33 23 19 23 20 5 33 -23 19 -14 35 17 29 34 -7 57 20 48 54 -6
19 -3 37 7 54 12 22 22 26 63 28 37 1 49 -2 49 -13 0 -8 12 -24 26 -35 l27
-21 -35 0 c-21 0 -41 -7 -49 -17 -13 -15 -11 -16 24 -9 25 5 37 3 37 -4 0 -6
11 2 25 18 14 17 23 37 19 45 -3 8 -1 18 5 22 6 3 11 11 11 16 0 6 -5 7 -11 3
-7 -4 -20 4 -30 17 -19 23 -20 24 -34 5 -23 -30 -30 -11 -10 29 9 20 18 52 20
71 3 31 1 34 -24 34 -26 0 -51 -16 -51 -32 0 -4 8 -8 18 -8 14 0 14 -3 -5 -18
-12 -9 -29 -35 -37 -57 l-14 -40 -7 28 c-4 15 -5 31 -1 34 3 4 -1 15 -11 25
-9 10 -11 18 -5 18 6 0 9 7 6 15 -10 24 -31 17 -38 -11 -5 -20 0 -36 19 -63
l25 -36 -39 -3 c-31 -2 -45 -10 -65 -37 -31 -40 -31 -44 -8 -61 11 -9 13 -13
4 -14 -7 0 -10 -5 -6 -11 5 -8 -1 -10 -18 -6 -19 5 -28 2 -32 -9 -9 -24 -7
-28 9 -14 11 9 15 9 15 1 0 -6 -7 -14 -15 -17 -8 -4 -15 -12 -15 -19 0 -7 -6
-16 -12 -19 -9 -3 -7 -9 7 -17 19 -13 19 -13 -5 -19 -23 -6 -25 -11 -23 -54 1
-34 -2 -45 -9 -38 -13 13 -28 93 -17 86 5 -3 9 1 10 8 0 7 2 23 5 36 2 13 0
21 -5 18 -5 -4 -1 12 10 34 11 22 20 52 21 67 1 15 6 34 11 41 7 9 2 12 -21
12 -17 0 -32 -6 -36 -15 -13 -35 -22 -10 -18 51 3 48 1 65 -7 60 -19 -12 -12
9 10 28 17 14 19 20 8 26 -8 5 -19 4 -26 -2 -17 -14 -16 -3 1 57 13 41 13 50
0 70 -13 20 -12 25 16 60 16 21 30 43 30 50 0 6 9 20 20 30 19 18 20 17 20 -6
0 -13 -4 -31 -10 -39 -9 -15 4 -40 22 -40 19 0 26 44 10 63 -14 15 -14 19 1
35 13 14 13 19 1 30 -19 18 -27 15 -65 -18 -55 -48 -70 -38 -17 11 l32 29
-1827 0 -1827 0 0 -1357z m3436 800 c20 -31 47 -66 58 -77 12 -12 21 -25 21
-31 1 -5 6 -9 12 -8 6 1 17 -5 25 -15 12 -15 11 -16 -4 -3 -10 7 -18 9 -18 3
0 -13 25 -33 33 -27 4 3 5 2 2 -1 -2 -4 5 -24 16 -46 11 -21 17 -43 14 -49 -4
-5 -1 -8 6 -7 15 4 63 -77 56 -95 -3 -7 -9 0 -15 15 -6 14 -16 29 -22 33 -6 4
-4 -8 4 -27 8 -18 21 -49 30 -70 9 -20 16 -39 16 -43 0 -8 -30 -39 -34 -34
-19 26 -54 104 -50 111 4 6 1 14 -7 18 -7 5 -14 14 -15 22 -5 29 -24 68 -34
68 -5 0 -10 5 -10 10 0 6 -11 23 -25 38 -14 15 -25 31 -25 36 0 5 -7 17 -16
27 -8 9 -22 43 -31 75 -8 33 -20 68 -26 79 -14 24 -17 55 -7 55 5 0 25 -25 46
-57z m843 -101 c24 -26 24 -27 4 -30 -26 -4 -38 -43 -18 -55 11 -6 12 -13 3
-32 -9 -20 -8 -28 4 -42 44 -51 44 -93 -1 -93 -22 0 -28 -7 -39 -40 -17 -56
-16 -61 14 -54 18 5 29 1 39 -12 20 -26 18 -51 -3 -57 -12 -2 -22 -17 -25 -36
-6 -28 -10 -31 -29 -25 -13 4 -29 15 -36 25 -7 11 -20 19 -29 19 -11 0 -13 5
-7 18 4 9 8 31 8 48 1 19 5 30 12 27 16 -6 46 26 42 45 -2 9 -14 22 -28 29
-14 7 -19 13 -11 13 11 0 11 3 1 15 -10 12 -16 13 -26 4 -19 -15 -18 1 0 46
17 40 17 40 57 19 37 -19 49 -11 25 15 -10 11 -25 35 -34 53 -11 20 -26 34
-39 36 -26 4 -27 10 -11 64 l11 39 46 -7 c32 -4 53 -14 70 -32z m-317 -224
c-19 -19 -14 -30 9 -17 31 16 52 -7 24 -26 -46 -32 -47 -35 -40 -99 8 -69 11
-74 28 -57 9 9 9 14 -3 21 -13 8 -12 10 2 10 17 0 38 -28 38 -49 0 -5 -12 -11
-27 -13 -22 -2 -29 -9 -33 -32 -6 -35 -18 -36 -34 -4 -9 18 -9 33 1 67 16 56
17 81 0 81 -7 0 -18 14 -24 31 -10 26 -9 33 10 52 13 13 17 22 9 25 -22 7 -12
17 20 19 24 2 29 0 20 -9z m-266 -185 c4 -10 8 -21 9 -25 2 -5 4 -11 5 -15 1
-5 2 -12 1 -16 -1 -5 4 -7 11 -5 7 3 15 13 16 24 6 32 22 40 22 11 0 -15 4
-27 9 -27 12 0 20 -124 12 -190 -4 -30 -3 -73 1 -95 5 -22 12 -65 17 -95 13
-87 41 -190 70 -254 l26 -59 5 49 c3 27 3 54 0 59 -13 26 -30 82 -30 103 0 35
16 26 30 -19 8 -23 15 -38 17 -32 2 5 -5 36 -16 68 -11 33 -18 61 -16 64 5 5
55 -99 55 -116 0 -6 18 -50 40 -98 43 -93 49 -134 25 -159 -8 -8 -15 -21 -15
-28 -1 -8 -4 -7 -11 4 -5 10 -16 15 -24 12 -8 -4 -15 -2 -15 2 0 5 -10 20 -21
34 l-20 25 6 -32 c11 -54 -12 -45 -54 22 -23 36 -44 65 -47 65 -6 0 53 -110
67 -125 18 -18 9 -28 -11 -10 -11 10 -20 23 -20 28 0 6 -9 20 -19 31 -26 28
-67 139 -76 205 -4 30 -18 75 -31 101 -28 56 -30 75 -8 66 25 -9 9 237 -21
325 -21 61 -23 119 -5 119 4 0 11 -8 16 -17z m-42 -41 c3 -20 2 -89 -3 -152
-4 -63 -4 -126 0 -140 4 -14 13 -43 18 -65 6 -22 21 -71 32 -109 12 -38 23
-77 23 -85 1 -9 13 -49 26 -88 43 -129 -1 -102 -99 62 -11 18 -12 16 -7 -13 3
-19 15 -46 26 -62 11 -15 20 -36 20 -46 0 -26 84 -174 130 -230 22 -27 40 -54
40 -60 0 -6 11 -21 25 -34 14 -13 25 -18 25 -12 0 7 -4 12 -10 12 -5 0 -10 4
-10 9 0 5 30 -8 68 -30 74 -43 238 -198 190 -180 -15 5 -49 13 -77 16 -66 7
-97 20 -112 44 -7 10 -18 17 -24 15 -14 -6 -102 72 -93 82 8 8 -17 34 -56 58
-34 21 -82 76 -79 88 2 4 -2 8 -9 8 -6 0 -9 3 -5 6 3 3 -10 26 -28 50 -41 54
-52 84 -34 95 13 8 6 13 -13 10 -15 -2 -38 47 -93 199 -45 124 -58 175 -67
258 -6 56 -8 106 -3 110 4 4 24 -12 44 -35 20 -24 41 -43 47 -43 7 0 15 24 18
53 12 90 63 260 76 252 5 -3 11 -22 14 -43z m1809 -9 c-5 -12 -3 -14 7 -8 10
6 11 4 5 -11 -5 -10 -9 -31 -10 -46 -1 -15 -8 -34 -15 -43 -24 -29 5 -15 44
23 l39 37 -28 -38 c-24 -32 -26 -40 -14 -48 8 -5 10 -9 5 -9 -6 0 -5 -5 2 -12
31 -31 5 -47 -84 -53 -40 -3 -59 -11 -85 -34 -18 -17 -36 -28 -41 -25 -4 3
-34 -14 -65 -38 -32 -23 -51 -33 -43 -22 21 29 284 344 287 344 1 0 -1 -7 -4
-17z m-2053 -638 c0 -7 6 -18 14 -24 8 -7 17 -24 21 -39 3 -15 31 -58 62 -96
83 -103 97 -140 96 -265 -1 -57 -6 -108 -12 -114 -7 -7 -8 -3 -4 12 3 11 1 21
-3 21 -13 -1 -47 -50 -34 -50 12 0 13 -39 2 -58 -5 -7 -16 -10 -25 -6 -14 5
-16 16 -11 62 6 61 17 97 32 106 13 8 4 41 -21 84 -13 21 -22 60 -25 104 -5
67 -7 74 -43 108 -20 19 -41 49 -44 65 -4 17 -16 48 -26 71 -25 54 -25 73 1
49 11 -10 20 -24 20 -30z m700 -192 c23 -38 68 -108 101 -158 32 -49 66 -103
75 -120 8 -16 26 -48 39 -70 36 -59 91 -167 99 -191 6 -19 3 -21 -20 -16 -20
4 -32 17 -50 56 -14 28 -36 65 -50 81 -18 20 -22 23 -15 8 15 -29 14 -33 -4
-26 -17 6 -55 73 -55 96 0 8 -6 20 -14 26 -14 12 -136 224 -136 236 0 4 9 -3
20 -16 18 -20 17 -16 -5 29 -14 28 -21 52 -15 52 16 0 12 40 -5 46 -13 5 -22
34 -10 34 2 0 23 -30 45 -67z m876 -248 c14 -20 14 -20 9 2 -11 43 16 33 47
-17 18 -29 33 -57 34 -63 1 -7 8 -33 15 -59 7 -26 9 -51 5 -55 -13 -13 -51 44
-70 102 -17 54 -46 93 -33 44 4 -13 7 -50 7 -81 0 -53 2 -58 23 -59 21 0 21
-1 2 -8 -16 -7 -26 -1 -46 23 -15 17 -25 34 -23 38 3 4 -4 25 -15 46 -11 22
-18 42 -15 45 3 3 -2 17 -12 32 -18 27 -18 28 6 47 23 19 25 19 38 1 7 -10 20
-27 28 -38z m-1110 -167 c4 -4 -1 -10 -10 -14 -26 -10 -19 -25 9 -18 21 5 25
3 25 -16 0 -11 -4 -18 -10 -15 -5 3 -8 0 -5 -7 2 -7 -6 -25 -20 -40 -23 -27
-43 -38 -30 -18 3 6 4 10 1 10 -3 0 -13 -15 -21 -32 -14 -29 -14 -31 0 -14 11
15 15 16 15 5 0 -18 -39 -54 -70 -64 -21 -7 -21 -6 -5 24 10 20 12 31 4 31 -6
0 -9 7 -5 15 3 8 2 15 -2 15 -9 0 -42 -37 -42 -48 0 -4 -11 -19 -24 -34 -32
-38 -53 -36 -26 1 l21 30 -38 -5 c-21 -3 -57 -10 -81 -15 -24 -5 -48 -6 -54
-3 -7 4 -8 3 -4 -4 4 -6 -6 -18 -23 -27 -44 -22 -62 -18 -21 6 38 22 33 21
-63 -5 -61 -17 -45 1 23 25 128 45 286 125 330 166 25 24 50 47 55 52 12 10
60 9 71 -1z m942 -135 c-6 -16 -22 -37 -35 -49 -16 -14 -26 -35 -29 -63 l-5
-42 46 25 c44 25 46 25 64 7 11 -11 22 -17 25 -13 3 3 6 0 6 -6 0 -6 -5 -14
-10 -17 -6 -3 -7 -17 -4 -31 5 -19 3 -23 -9 -18 -8 3 -18 1 -22 -5 -3 -6 -31
-11 -60 -11 -47 0 -59 4 -85 30 -23 23 -30 38 -30 69 0 22 5 51 11 65 13 27
60 52 84 42 9 -3 21 4 31 19 22 34 36 32 22 -2z m-670 -117 c-16 -12 -15 -14
10 -26 15 -7 33 -12 40 -11 21 4 52 -29 52 -56 l0 -23 -127 4 c-71 2 -130 5
-133 6 -3 1 -9 2 -14 1 -4 -1 -6 12 -4 29 3 16 1 30 -4 30 -4 0 -8 -11 -8 -24
0 -14 -5 -28 -11 -31 -23 -15 -3 58 21 74 15 10 21 11 16 4 -10 -18 18 -17 33
1 6 7 22 11 36 8 14 -2 25 0 25 6 0 10 25 18 65 20 19 1 19 0 3 -12z m-259
-53 c21 -17 21 -20 6 -62 -8 -24 -23 -51 -33 -60 -10 -9 -21 -24 -25 -34 -8
-22 -39 -35 -45 -19 -2 7 -11 12 -21 12 -9 0 -24 6 -33 13 -14 10 -15 20 -6
64 12 58 32 82 80 93 50 12 54 11 77 -7z m1489 -105 c18 -18 14 -31 -8 -25
-11 3 -20 1 -20 -4 0 -5 -6 -9 -14 -9 -8 0 -17 -4 -20 -9 -3 -4 6 -6 19 -3 19
3 27 -1 35 -19 10 -23 10 -22 5 4 -5 24 -3 28 12 25 12 -2 18 -12 18 -31 -1
-24 2 -27 22 -22 18 4 23 1 23 -14 0 -11 -8 -22 -17 -24 -128 -34 -122 -34
-128 5 -2 12 -10 44 -18 70 l-15 47 27 10 c37 13 65 13 79 -1z m-644 -83 c50
-25 99 -51 109 -58 18 -15 23 -37 8 -37 -4 0 -21 -18 -36 -40 -15 -22 -33 -40
-40 -40 -7 0 -18 -7 -25 -15 -8 -10 -17 -12 -22 -7 -11 11 -50 4 -44 -7 3 -4
-3 -7 -12 -8 -9 -1 -42 -3 -72 -5 -33 -3 -65 1 -80 9 -14 6 -38 15 -53 18 -15
3 -31 13 -34 23 -4 9 -12 23 -19 30 -22 21 5 88 53 134 67 64 141 65 267 3z
m-1255 -42 c20 -8 43 -24 52 -36 15 -18 30 -21 128 -25 103 -4 140 -16 90 -29
-14 -4 -17 -8 -9 -13 19 -12 -83 -23 -132 -15 -24 4 -50 14 -60 22 -10 9 -18
11 -22 4 -4 -6 -31 -8 -67 -5 -38 4 -65 1 -74 -6 -8 -6 -24 -9 -37 -6 l-23 6
23 -10 c69 -31 69 -31 33 -25 -18 3 -51 5 -72 5 -22 0 -39 5 -39 10 0 6 7 10
15 10 9 0 18 6 21 14 9 24 58 35 105 25 26 -6 46 -6 52 0 6 6 -15 12 -58 16
-50 6 -76 4 -106 -8 -21 -9 -39 -11 -39 -6 0 6 -5 7 -10 4 -6 -4 -8 -11 -5
-16 4 -5 0 -9 -9 -9 -8 0 -23 -3 -33 -6 -16 -5 -16 -4 1 10 15 12 16 16 5 17
-169 11 -200 19 -70 19 57 0 80 3 75 11 -4 6 -20 8 -39 5 -18 -4 -43 -2 -56 3
-18 7 1 10 76 11 55 1 109 4 120 7 11 3 39 5 63 5 25 -1 40 3 37 8 -4 6 -16
10 -28 10 -12 0 -29 5 -37 11 -22 15 84 0 129 -18z m-1861 -120 c-21 -8 -36
-19 -33 -23 3 -5 1 -11 -5 -15 -15 -9 -12 -46 5 -65 9 -10 26 -37 38 -61 25
-50 54 -58 73 -21 14 28 54 59 54 42 0 -7 16 -11 44 -9 29 2 53 -3 71 -15 14
-10 34 -15 42 -12 13 5 13 4 4 -8 -6 -7 -8 -21 -5 -31 4 -10 1 -21 -7 -26 -18
-11 -56 -12 -61 -1 -5 13 -89 72 -102 72 -6 0 -20 -14 -31 -30 -11 -16 -26
-30 -32 -30 -22 0 -14 -18 25 -60 22 -22 48 -40 58 -40 11 0 35 16 54 35 26
26 37 32 47 24 21 -18 16 -23 -46 -53 l-60 -28 -30 21 c-49 35 -100 104 -126
172 -18 47 -38 75 -72 107 -42 37 -44 41 -19 32 24 -9 35 -7 70 14 22 14 50
25 61 25 13 0 6 -6 -17 -16z m1277 -24 c33 -5 87 -14 120 -19 90 -15 119 -21
125 -27 3 -3 -12 -4 -32 -1 -47 5 -35 -13 22 -32 21 -7 37 -17 34 -21 -3 -5 3
-10 13 -11 32 -2 38 -4 60 -16 12 -7 29 -12 38 -12 9 0 14 -4 11 -9 -3 -4 5
-6 18 -4 18 4 28 -1 36 -18 11 -19 10 -21 -5 -15 -53 20 -206 58 -250 62 -41
4 -91 9 -115 13 -3 1 2 6 10 11 12 8 9 10 -13 10 -18 0 -26 -4 -21 -11 4 -8 1
-8 -12 -1 -39 20 -167 37 -271 37 -40 0 -73 3 -73 7 0 14 71 40 113 41 42 1
164 -11 202 -20 46 -10 140 -22 144 -18 8 8 -48 24 -126 35 -43 6 -96 15 -118
19 l-40 9 35 1 c19 0 62 -4 95 -10z m2732 -161 c-6 -4 -15 -4 -21 -1 -6 4 -7
-173 -3 -478 4 -310 2 -536 -5 -630 -6 -80 -8 -158 -4 -172 4 -18 30 -42 83
-78 85 -57 85 -58 -15 -83 -79 -20 -92 -20 -92 -1 0 17 -30 17 -41 1 -4 -5
-18 -6 -32 -2 -26 6 -26 4 -6 86 2 8 11 18 19 22 11 5 8 7 -8 7 -13 1 -21 5
-18 10 3 5 -16 12 -44 16 -68 9 -63 22 8 19 44 -2 50 -1 27 5 -20 6 -23 9 -11
10 16 1 17 4 8 13 -7 7 -12 20 -12 30 0 11 -5 15 -15 12 -11 -4 -13 -2 -9 9 7
20 -28 87 -71 134 -25 28 -35 33 -35 21 0 -24 -12 -23 -30 3 -8 12 -19 27 -25
33 -5 7 -15 21 -22 31 -6 11 -17 19 -24 17 -10 -3 -10 1 2 15 8 10 16 32 18
48 4 41 11 45 11 7 0 -36 10 -41 27 -13 10 15 10 21 0 24 -7 3 -5 6 5 6 42 2
48 133 10 208 -35 68 -82 94 -133 73 -47 -20 -72 -71 -77 -162 -3 -44 -8 -74
-12 -67 -5 7 -6 23 -4 36 4 21 1 23 -40 23 -47 0 -66 14 -47 33 6 6 10 27 10
47 l-1 35 -8 -30 -8 -30 -1 32 c0 18 5 38 12 45 8 6 11 22 9 35 -3 15 0 23 9
23 10 0 10 3 1 12 -17 17 -16 82 2 75 11 -4 11 1 1 31 -6 21 -11 58 -10 85 2
26 -1 47 -6 47 -5 0 -9 17 -9 38 0 21 -7 47 -16 58 -8 10 -13 13 -9 7 4 -8 0
-13 -9 -13 -9 0 -16 -8 -16 -19 0 -14 -6 -19 -22 -18 -13 0 -27 6 -31 12 -6 7
-10 6 -14 -3 -2 -6 -9 -10 -14 -6 -5 3 -9 -2 -9 -10 0 -9 -4 -16 -10 -16 -5 0
-10 7 -10 15 0 8 -2 15 -4 15 -9 0 -66 -59 -66 -69 0 -14 -33 -14 -47 0 -11
11 -53 -7 -53 -23 0 -11 -19 -10 -33 2 -7 6 -21 17 -31 24 -14 9 -20 29 -24
68 -4 53 -2 57 34 97 49 55 104 82 173 87 76 5 92 -2 89 -33 -2 -15 3 -28 11
-31 8 -2 11 0 7 6 -3 6 -3 18 1 28 5 15 11 11 40 -22 l33 -39 0 45 c0 25 7 54
15 64 9 12 15 15 15 7 0 -10 4 -10 13 -3 6 5 59 12 117 15 58 3 116 8 130 10
14 2 44 5 68 5 33 2 42 6 42 20 0 14 2 14 9 3 8 -12 19 -12 66 -3 32 7 62 9
68 5 5 -3 7 -1 4 4 -4 6 3 13 16 17 12 3 24 1 25 -4 5 -13 32 -13 32 0 0 6 9
10 20 10 11 0 20 6 21 13 0 6 4 3 8 -8 5 -12 4 -23 -2 -27z m-3502 0 c7 -7 1
-9 -20 -5 -37 7 -85 -2 -85 -15 0 -6 10 -8 23 -4 32 8 105 -13 86 -25 -11 -7
-11 -9 4 -9 21 0 23 -18 2 -26 -8 -4 -12 -10 -9 -15 3 -5 -13 -9 -36 -9 -25 0
-39 -4 -35 -10 13 -21 -15 -9 -48 20 -19 16 -37 27 -39 24 -6 -5 -48 48 -48
60 0 3 8 6 19 6 10 0 25 7 32 16 11 13 25 15 79 9 36 -4 70 -11 75 -17z m2365
-30 c17 -12 28 -28 25 -36 -2 -7 -1 -11 4 -8 5 3 11 -3 14 -14 3 -11 1 -18 -4
-14 -5 3 -9 -4 -9 -16 0 -12 -4 -19 -9 -15 -6 3 -15 -3 -21 -14 -16 -31 -82
-79 -88 -63 -3 10 -8 8 -19 -5 -10 -13 -16 -15 -19 -5 -8 17 -54 15 -54 -2 0
-8 8 -17 18 -19 10 -3 8 -5 -8 -5 -14 1 -38 -4 -53 -11 -54 -21 -92 20 -77 84
12 53 35 81 110 133 60 41 69 44 112 39 26 -4 61 -16 78 -29z m-2881 -25 c6
-10 11 -13 11 -8 0 6 13 -17 29 -51 25 -52 50 -80 71 -76 3 0 7 -12 8 -27 3
-41 -25 -68 -78 -75 -44 -6 -44 -6 -22 10 12 9 22 23 22 30 0 12 -5 12 -30 -1
-36 -19 -40 -19 -40 1 0 9 5 12 12 8 7 -5 8 -3 3 5 -8 14 31 61 52 61 7 0 13
3 13 6 0 9 -42 68 -55 76 -5 4 -7 8 -2 8 4 0 0 11 -9 25 -9 14 -12 25 -6 25 6
0 16 -8 21 -17z m5361 -68 c0 -3 -19 -26 -41 -50 -23 -25 -37 -45 -31 -45 6 0
14 5 17 10 3 6 10 10 15 10 5 0 -4 -13 -20 -29 -20 -19 -43 -30 -74 -34 -25
-4 -73 -18 -107 -32 -34 -14 -75 -25 -91 -25 -15 0 -28 -4 -28 -10 0 -14 -27
-12 -80 5 l-45 15 60 -4 c44 -4 54 -2 38 4 -73 31 -71 29 -33 29 19 0 47 3 62
7 15 3 41 1 58 -4 16 -6 30 -7 30 -2 0 4 -12 13 -27 18 l-28 10 28 1 c30 1 37
17 10 24 -14 4 -13 5 4 6 12 0 34 -4 48 -9 15 -6 32 -7 38 -3 6 4 -11 14 -39
24 l-49 18 49 -6 c36 -5 47 -3 42 5 -5 8 2 12 18 12 14 0 26 4 26 9 0 5 8 11
18 15 9 3 24 9 32 12 12 4 12 3 2 -4 -11 -7 -9 -10 7 -15 12 -3 21 -1 21 5 0
5 4 7 8 4 4 -2 19 4 32 15 27 20 30 22 30 14z m-3902 -83 c27 -14 44 -34 63
-73 33 -68 62 -184 55 -215 -8 -32 -89 -84 -132 -84 -18 0 -34 5 -34 10 0 6
-6 10 -14 10 -35 0 -21 66 16 74 13 3 32 7 43 8 42 7 27 35 -39 72 -62 35 -65
38 -85 101 -26 80 -26 83 2 107 26 23 68 20 125 -10z m-1042 -7 c4 -8 11 -15
17 -15 6 0 18 -7 28 -16 14 -13 29 -14 93 -7 88 11 104 5 171 -63 44 -43 58
-85 35 -99 -5 -3 -10 -26 -10 -51 0 -24 -4 -44 -10 -44 -5 0 -29 -17 -51 -39
l-41 -39 -82 4 c-44 2 -84 4 -88 4 -5 0 -8 19 -8 41 0 32 -7 49 -29 75 -31 34
-51 89 -51 136 0 15 -6 31 -14 35 -7 4 -17 27 -21 51 -7 42 -7 42 24 42 19 0
34 -6 37 -15z m834 -61 c18 -30 31 -56 29 -57 -2 -2 -17 -7 -33 -12 -32 -11
-47 -35 -22 -35 9 0 16 -3 17 -7 0 -5 2 -15 4 -23 2 -8 6 -25 9 -38 3 -13 8
-32 11 -43 8 -25 -3 -43 -18 -30 -7 5 -29 12 -49 16 -21 4 -42 13 -48 20 -6 8
-25 17 -41 20 -40 9 -41 45 -1 45 36 0 63 40 42 65 -19 22 -3 83 28 111 15 13
30 24 34 24 3 0 21 -25 38 -56z m917 -79 l118 -65 9 33 10 32 5 -40 c6 -40 6
-40 54 -43 34 -2 47 -7 47 -18 0 -8 5 -12 10 -9 6 4 5 -8 -3 -27 -13 -32 -15
-33 -73 -34 -121 -2 -329 16 -356 31 -14 8 -34 15 -43 15 -12 0 -15 5 -11 16
5 13 4 14 -7 6 -18 -15 -26 -6 -20 19 5 18 39 39 64 39 5 0 9 -13 9 -29 0 -17
5 -33 10 -36 6 -4 46 -8 88 -11 60 -2 71 -1 52 7 -14 6 -51 11 -82 12 -62 2
-64 3 -47 41 10 20 9 30 -5 51 -10 15 -16 29 -13 31 2 2 24 -3 48 -12 24 -9
64 -22 89 -29 41 -13 43 -13 25 1 -11 8 -41 27 -67 42 -45 25 -60 42 -39 42 5
0 63 -29 128 -65z m433 -19 c134 -42 266 -106 345 -168 16 -13 35 -22 41 -20
7 1 29 -18 50 -43 35 -43 36 -47 20 -63 -14 -14 -18 -15 -25 -3 -7 10 -10 11
-16 1 -6 -10 -11 -9 -21 4 -8 11 -14 13 -19 7 -13 -22 -27 -11 -21 15 4 15 3
23 -3 20 -16 -10 -71 6 -71 21 0 8 -4 12 -9 8 -5 -3 -12 -1 -15 3 -3 5 -17 7
-31 4 -14 -2 -32 1 -40 8 -8 6 -23 9 -35 5 -12 -4 -20 -2 -20 6 0 8 -4 8 -16
-2 -13 -10 -17 -10 -24 1 -4 7 -17 11 -29 7 -12 -3 -24 -1 -27 5 -3 5 -13 3
-24 -7 -17 -15 -19 -15 -25 4 -7 23 -25 26 -55 11 -11 -5 -30 -15 -41 -21 -17
-8 -24 -8 -30 3 -5 7 -9 8 -9 2 0 -6 -7 -11 -14 -11 -10 0 -12 5 -7 16 26 51
15 149 -15 137 -24 -9 -15 11 17 38 36 30 96 35 169 12z m-2254 -182 c-5 -12
-2 -15 9 -10 9 3 18 -1 22 -10 4 -11 -19 -40 -75 -94 -66 -63 -84 -75 -93 -64
-6 8 -18 14 -26 14 -20 0 -2 30 58 93 27 28 47 58 44 65 -2 7 -1 11 3 9 4 -3
16 -1 27 4 31 12 38 10 31 -7z m418 -71 c4 -10 2 -47 -5 -84 -10 -55 -17 -70
-44 -92 l-32 -25 -66 17 c-37 10 -68 16 -70 14 -8 -7 -57 58 -63 83 -11 42 1
54 55 54 27 0 62 5 78 11 33 13 113 37 129 38 7 1 15 -7 18 -16z m1509 -72
c34 -16 73 -31 87 -35 23 -6 23 -5 6 6 -63 43 -48 42 39 -2 55 -28 106 -61
112 -73 12 -21 13 -20 13 11 0 43 30 54 124 47 39 -3 82 -5 95 -5 50 0 238
-63 349 -117 42 -21 56 -24 75 -16 38 19 53 21 68 12 12 -7 12 -9 -1 -10 -8
-1 -1 -5 15 -9 25 -6 21 -8 -25 -9 -41 -1 -51 -4 -38 -11 9 -6 45 -9 80 -8 61
3 63 4 69 33 7 30 11 19 12 -32 1 -12 5 -20 9 -17 4 3 8 -2 8 -10 0 -9 5 -16
10 -16 12 0 14 -37 2 -44 -4 -2 -9 -28 -10 -57 -1 -29 -6 -57 -10 -63 -14 -18
-14 -108 -1 -117 7 -4 14 -31 16 -60 2 -34 9 -57 21 -66 17 -15 10 -14 -57 0
-11 3 -13 29 -10 128 1 68 2 144 1 168 -2 35 0 42 13 37 13 -4 14 -2 5 14 -5
10 -10 32 -10 48 0 37 -3 40 -40 34 -35 -5 -39 -19 -7 -27 18 -5 22 -14 24
-55 3 -53 -16 -72 -44 -45 -12 13 -18 13 -30 3 -11 -8 -16 -9 -21 0 -4 6 -20
9 -35 8 -20 -2 -37 5 -59 26 -17 16 -37 27 -43 24 -7 -2 -18 1 -24 7 -8 8 -11
8 -11 -1 0 -7 -4 -12 -10 -12 -5 0 -10 6 -10 13 0 8 -21 13 -63 15 -60 2 -81
8 -140 39 -16 8 -54 16 -84 17 -34 1 -58 7 -61 14 -2 7 -17 12 -32 12 -16 0
-32 5 -36 11 -4 7 -24 9 -51 6 -43 -5 -44 -4 -39 19 5 17 2 24 -8 24 -8 0 -17
-4 -20 -9 -7 -10 -64 -20 -68 -12 -2 3 -17 13 -33 22 -22 11 -35 13 -47 6 -10
-7 -50 -7 -114 -1 l-99 9 -2 53 -3 52 28 -6 c37 -9 44 -14 39 -27 -2 -8 18
-16 52 -23 31 -6 65 -15 76 -19 20 -8 20 -8 1 13 -10 12 -39 29 -65 38 -25 10
-50 21 -55 26 -6 4 -18 8 -27 8 -22 0 -31 13 -23 35 8 20 30 16 117 -24z
m-1789 -81 c27 0 35 -15 39 -74 2 -24 -3 -30 -24 -36 -15 -4 -46 -4 -69 0 -66
12 -78 47 -33 98 21 24 30 29 44 21 10 -5 29 -9 43 -9z m3109 -365 c-3 -8 0
-15 6 -15 6 0 11 -13 11 -30 0 -16 5 -30 11 -30 5 0 8 -4 5 -9 -4 -5 0 -12 6
-14 10 -4 9 -8 -2 -16 -12 -9 -11 -11 10 -12 14 -1 32 -2 40 -1 8 1 22 -1 30
-4 11 -4 12 -7 2 -13 -19 -11 6 -61 30 -61 10 0 18 -7 18 -15 0 -8 9 -24 20
-35 11 -11 20 -23 20 -26 0 -6 -82 0 -162 12 -27 4 -48 10 -48 14 0 3 -13 5
-29 2 -16 -2 -32 1 -35 7 -5 7 3 9 22 5 17 -3 32 -1 36 5 4 5 13 8 21 5 9 -4
13 1 11 13 -2 10 1 29 6 42 10 29 5 36 -30 37 -54 2 -114 17 -101 25 7 4 27 6
44 3 26 -4 27 -3 8 5 -15 7 -21 16 -17 26 5 12 10 13 17 6 18 -18 22 -13 22
27 -1 39 13 74 27 66 4 -3 5 -11 1 -19z m-952 -35 c4 0 11 5 14 10 8 13 65 13
65 1 0 -5 8 -12 19 -16 10 -3 31 -24 47 -46 27 -39 28 -40 39 -18 12 21 12 21
18 -9 4 -22 13 -31 29 -34 18 -2 23 -10 24 -33 0 -17 6 -39 13 -50 9 -15 11
-15 7 -3 -3 10 -1 20 4 23 6 4 10 -1 10 -9 0 -9 5 -16 10 -16 6 0 10 -10 10
-22 1 -21 2 -22 14 -5 7 9 19 17 27 17 10 -1 9 -4 -4 -14 -17 -13 -14 -46 5
-46 5 0 6 -5 2 -11 -4 -7 2 -6 17 1 l23 13 -24 9 c-23 9 -24 10 -8 22 10 7 15
16 12 19 -10 9 122 19 157 12 30 -7 31 -9 14 -16 -11 -4 -51 -9 -90 -10 -48
-2 -58 -4 -30 -6 22 -3 44 -10 48 -16 6 -9 10 -9 14 1 3 8 27 12 71 11 66 -1
66 -1 30 -13 -28 -8 -35 -15 -28 -25 7 -12 11 -12 25 2 20 21 26 21 51 2 17
-13 17 -14 2 -15 -10 0 -18 -4 -18 -10 0 -5 -24 -10 -52 -10 l-53 0 29 -15
c20 -11 33 -12 40 -5 5 5 28 10 50 10 l41 -1 -30 -13 -30 -12 25 -7 c13 -3 36
-3 50 0 22 6 23 4 12 -10 -8 -9 -20 -13 -28 -10 -8 3 -14 -1 -14 -10 0 -11
-15 -17 -52 -21 -29 -3 -77 -8 -107 -12 -38 -4 -51 -3 -47 5 4 6 1 11 -7 11
-13 0 -31 33 -28 52 1 5 -3 8 -9 8 -5 0 -10 4 -10 9 0 5 25 13 55 16 59 8 66
25 9 25 -21 0 -33 -4 -29 -10 3 -6 -5 -10 -18 -10 -14 0 -27 -7 -31 -15 -3 -8
-2 -15 3 -15 5 0 11 -9 14 -19 3 -14 1 -18 -9 -14 -8 3 -14 0 -14 -6 0 -6 5
-11 11 -11 5 0 7 -5 4 -10 -4 -7 -13 -7 -26 0 -11 6 -19 7 -19 1 0 -5 -9 -7
-20 -4 -24 6 -24 7 -3 41 17 26 17 26 0 13 -15 -12 -17 -11 -17 3 0 9 -7 16
-16 16 -8 0 -12 5 -9 10 3 6 -1 10 -10 10 -9 0 -13 4 -10 10 3 6 1 10 -5 10
-7 0 -9 8 -5 20 7 24 -2 26 -25 5 -9 -8 -25 -12 -37 -9 -22 6 -22 6 -2 40 10
19 14 34 9 34 -6 0 -9 3 -9 8 5 28 -2 32 -32 17 -30 -16 -31 -16 -24 4 4 12 2
21 -4 21 -6 0 -11 7 -11 15 0 21 -20 19 -20 -2 -1 -13 -5 -10 -16 9 -9 17 -20
25 -29 22 -10 -4 -15 0 -15 10 0 13 -4 15 -18 7 -13 -7 -23 -6 -31 2 -9 9 -14
9 -21 -3 -7 -11 -11 -8 -21 13 -10 23 -10 30 5 46 15 16 15 19 1 31 -20 16
-19 28 3 32 9 2 21 -4 26 -14 5 -10 13 -18 17 -18z m-2471 -455 c7 -8 19 -15
26 -15 21 0 17 -38 -4 -44 -10 -4 -40 -6 -68 -5 -27 1 -154 -6 -282 -15 -305
-21 -305 -21 -293 3 6 10 22 22 36 25 14 4 25 13 25 21 0 9 10 15 28 16 l27 1
-25 9 c-16 6 2 7 50 3 41 -4 86 -6 100 -5 14 0 80 2 147 4 67 2 125 6 129 10
14 13 91 7 104 -8z"/>
<path d="M2840 3480 c-25 -7 -21 -11 19 -22 8 -2 3 -8 -13 -16 -22 -10 -26 -9
-26 3 0 23 -16 18 -44 -16 -20 -23 -26 -42 -26 -76 0 -37 3 -44 16 -39 45 17
64 18 64 2 0 -9 -4 -16 -10 -16 -5 0 -10 -4 -10 -10 0 -6 10 -5 26 2 21 10 27
9 35 -3 9 -14 10 -11 13 24 1 6 -6 12 -14 12 -8 0 -16 8 -18 18 -2 9 3 17 10
17 8 0 20 15 28 33 7 17 15 35 17 38 2 4 -6 18 -19 32 -18 19 -28 23 -48 17z"/>
<path d="M3021 3399 c6 -13 6 -19 -1 -19 -5 0 -10 -5 -10 -12 0 -6 -7 -20 -16
-29 -15 -17 -15 -20 0 -43 33 -52 7 -88 -30 -41 -23 29 -25 29 -96 0 -13 -5
-18 -2 -18 9 0 9 -8 15 -17 14 -10 -1 -29 0 -42 0 -20 2 -21 4 -11 17 9 10 9
15 1 15 -10 0 -15 -13 -12 -32 0 -5 -3 -8 -8 -8 -5 0 -17 -14 -25 -32 -15 -29
-15 -33 -1 -47 13 -14 15 -12 15 19 l0 34 30 -34 c35 -42 37 -54 8 -67 l-23
-10 23 -12 c18 -10 22 -9 22 3 0 21 15 27 41 17 l23 -8 -22 -14 c-12 -8 -22
-17 -22 -20 0 -13 116 53 133 77 21 27 57 32 57 8 0 -8 -4 -13 -8 -10 -11 6
-52 -22 -52 -35 0 -6 9 -7 21 -4 21 7 21 7 3 -18 -11 -14 -22 -20 -25 -15 -4
6 -13 -2 -20 -18 -11 -23 -21 -29 -46 -29 -35 0 -48 -8 -39 -24 4 -6 24 -9 46
-7 32 3 38 1 33 -13 -11 -31 -36 -51 -55 -45 -10 3 -18 0 -18 -6 0 -6 5 -8 13
-4 8 5 8 2 -2 -9 -11 -14 -11 -17 1 -17 8 0 19 -5 26 -12 9 -9 182 -20 182
-11 0 2 -10 8 -22 13 -19 8 -18 9 10 4 25 -4 32 -2 32 10 0 9 8 16 18 16 10 0
27 6 38 14 19 14 18 15 -6 36 -14 12 -41 28 -60 36 -36 16 -97 71 -87 80 3 3
23 0 46 -7 35 -10 43 -10 59 4 23 21 36 21 51 3 9 -11 6 -15 -15 -20 -18 -5
-24 -12 -20 -22 3 -9 1 -12 -4 -9 -6 3 -10 2 -10 -4 0 -9 31 -31 44 -31 3 0
13 16 22 35 13 28 14 38 4 50 -10 12 -9 15 5 15 11 0 15 5 11 15 -3 9 0 15 9
15 8 0 15 5 15 12 0 11 -78 88 -90 88 -4 0 -17 -9 -30 -20 -29 -25 -29 -25
-26 3 5 34 17 58 27 51 15 -9 10 3 -8 22 -13 13 -14 19 -5 22 20 6 14 32 -9
32 -12 0 -23 8 -26 19 -3 11 -13 21 -24 24 -16 4 -17 2 -8 -14z"/>
<path d="M2418 3373 c-21 -14 -38 -30 -38 -36 0 -6 -10 -21 -22 -34 l-21 -23
29 0 29 -1 -27 -15 c-25 -13 -27 -18 -23 -62 3 -40 2 -45 -9 -29 -22 29 -42
21 -43 -19 -1 -20 -5 -39 -10 -43 -17 -11 -32 -67 -22 -82 5 -8 9 -30 9 -50 0
-85 76 -134 125 -81 13 13 28 21 34 18 19 -12 -47 -66 -80 -66 -16 0 -29 -4
-29 -10 0 -5 14 -10 31 -10 27 0 30 -2 19 -15 -10 -12 -9 -15 8 -15 11 0 22
-5 24 -11 5 -16 48 -1 48 16 0 16 25 26 46 18 9 -3 13 -12 10 -22 -5 -14 -4
-13 7 1 11 13 16 15 26 5 9 -9 19 -4 44 22 l32 34 -33 -23 c-33 -22 -61 -19
-30 4 13 9 16 23 13 54 -2 23 0 44 5 47 6 4 4 19 -6 37 -9 17 -14 41 -11 54 3
17 -1 25 -17 30 -34 11 -76 12 -76 2 0 -5 -5 -6 -11 -2 -8 5 -8 9 1 14 10 6 9
10 -1 16 -8 5 -20 19 -27 32 -11 19 -10 23 4 29 9 3 19 1 23 -4 3 -6 16 -13
28 -17 11 -4 28 -18 37 -31 10 -15 26 -25 40 -25 12 0 26 -3 30 -7 12 -13 48
-13 63 -1 11 9 16 9 23 -2 6 -9 4 -17 -3 -22 -7 -4 -9 -8 -5 -8 3 0 14 -3 24
-7 13 -5 16 -3 11 10 -3 9 -2 19 4 22 5 4 7 11 3 16 -7 12 28 41 36 30 6 -8
57 -41 65 -41 17 0 0 20 -25 29 -16 5 -30 15 -30 22 0 6 -7 9 -15 6 -8 -4 -17
-2 -20 4 -4 5 -10 7 -15 4 -4 -3 -10 5 -13 16 -4 15 -2 19 9 15 17 -7 18 22 1
45 -15 19 -55 31 -59 17 -2 -6 -11 -4 -20 5 -8 9 -18 14 -21 11 -3 -3 -16 2
-30 11 -18 12 -26 13 -29 4 -3 -9 -19 -8 -61 6 -44 14 -57 22 -57 38 0 15 3
17 14 8 10 -9 15 -8 20 4 3 9 0 15 -11 15 -13 0 -14 2 -2 17 13 15 12 15 -8 5
-47 -25 -30 0 24 35 10 6 14 12 8 12 -5 0 -27 -12 -47 -26z"/>
<path d="M2880 2882 c-8 -3 -21 -13 -28 -24 -10 -14 -17 -16 -33 -8 -16 9 -19
7 -19 -10 0 -11 6 -20 13 -20 7 0 13 -16 14 -41 1 -47 -17 -49 -31 -1 -6 21
-14 30 -27 29 -19 -1 -27 -17 -9 -17 6 0 10 -7 10 -17 0 -14 -2 -14 -20 2 -19
17 -20 17 -20 -1 0 -15 -5 -12 -26 14 -29 37 -51 36 -92 -2 -13 -11 -29 -21
-35 -22 -7 0 -19 -2 -27 -3 -8 0 -20 -13 -27 -27 -10 -21 -9 -32 2 -54 13 -25
18 -28 55 -23 26 4 40 2 40 -6 0 -6 -6 -11 -14 -11 -16 0 -26 -21 -26 -56 0
-15 6 -24 16 -24 14 0 14 -3 4 -15 -10 -12 -9 -15 4 -15 23 0 79 -29 89 -47 5
-7 13 -10 19 -7 7 4 35 7 64 6 40 0 56 4 70 19 20 23 36 25 28 4 -6 -15 -3
-15 44 1 14 5 12 9 -13 20 -28 13 -25 13 37 7 61 -5 71 -3 103 18 37 26 46 42
18 32 -13 -4 -12 0 6 17 17 17 25 19 31 11 5 -9 9 -8 14 4 9 23 8 25 -9 19 -9
-4 -15 0 -15 9 0 9 -3 24 -6 34 -5 17 -5 17 6 1 12 -20 30 -24 30 -7 0 21 -43
49 -74 49 -35 0 -64 -15 -53 -27 5 -4 12 -1 17 7 7 11 13 11 32 2 13 -7 15
-10 6 -8 -13 4 -18 0 -18 -13 0 -22 -25 -45 -40 -36 -5 3 -10 15 -10 27 0 16
-5 19 -22 15 -25 -7 -58 8 -58 27 0 21 23 25 50 11 20 -11 28 -10 48 3 19 12
23 21 18 44 -6 31 -6 31 54 10 8 -3 5 4 -7 15 -13 11 -23 25 -23 30 0 11 -43
33 -65 33 -7 0 -15 5 -17 10 -4 12 -56 20 -78 12z"/>
<path d="M775 2711 c-18 -8 -65 -55 -65 -65 0 -3 21 -8 48 -11 119 -16 203
-36 272 -64 89 -37 90 -37 90 -10 0 31 -64 87 -138 122 -66 31 -169 45 -207
28z"/>
<path d="M720 1532 c-119 -69 -131 -77 -118 -90 7 -7 19 -12 27 -12 11 0 10 4
-5 15 -18 13 -17 14 19 15 35 0 37 -1 27 -21 -6 -11 -9 -25 -6 -32 3 -8 5 -8
5 -1 1 7 22 29 47 49 l46 38 -16 -32 c-10 -18 -25 -35 -34 -38 -30 -11 -31
-27 -4 -44 29 -18 44 -12 64 24 8 17 8 19 -6 14 -8 -3 -18 -2 -21 3 -4 6 7 10
22 10 20 0 40 11 63 35 18 19 31 38 27 41 -3 4 4 15 16 25 l22 18 -23 1 c-13
0 -20 -4 -17 -10 3 -6 -1 -7 -9 -4 -9 3 -14 11 -13 16 4 20 -21 19 -28 -1 -3
-12 -11 -21 -18 -21 -8 0 -8 3 1 12 13 13 16 28 5 28 -5 -1 -37 -18 -73 -38z"/>
<path d="M897 1511 c-20 -22 -47 -47 -62 -57 -18 -11 -24 -22 -20 -35 5 -14
-1 -22 -19 -30 -28 -13 -43 -39 -21 -39 7 0 16 4 20 9 3 6 13 10 23 10 54 1
83 9 106 30 14 13 23 27 20 32 -2 4 5 17 17 28 12 11 18 24 15 29 -3 5 3 12
14 15 14 3 18 10 14 22 -4 9 -13 14 -20 11 -7 -3 -16 -1 -19 4 -12 19 -33 10
-68 -29z"/>
<path d="M377 1003 c-3 -5 0 -20 6 -33 34 -66 137 -87 254 -52 38 12 77 30 87
41 17 18 15 19 -73 20 -80 0 -187 12 -247 27 -12 3 -24 2 -27 -3z"/>
</g>
</svg>
