<?xml version="1.0" standalone="no"?>
<!DOCTYPE svg PUBLIC "-//W3C//DTD SVG 20010904//EN"
 "http://www.w3.org/TR/2001/REC-SVG-20010904/DTD/svg10.dtd">
<svg version="1.0" xmlns="http://www.w3.org/2000/svg"
 width="750.000000pt" height="500.000000pt" viewBox="0 0 750.000000 500.000000"
 preserveAspectRatio="xMidYMid meet">
<metadata>
Created by potrace 1.16, written by Peter Selinger 2001-2019
</metadata>
<g transform="translate(0.000000,500.000000) scale(0.100000,-0.100000)"
fill="#000000" stroke="none">
<path d="M1 3643 l0 -1358 27 35 c54 70 138 153 199 196 73 53 204 115 291
140 55 15 70 24 110 71 26 30 64 63 84 73 121 64 309 14 451 -119 70 -66 111
-125 128 -183 5 -18 38 -64 74 -101 l63 -68 82 7 81 7 16 36 c13 30 17 33 21
16 2 -11 9 -26 14 -32 6 -7 10 -30 10 -52 -1 -36 2 -39 31 -44 18 -4 43 -9 57
-13 22 -7 24 -6 12 9 -8 9 -11 21 -7 28 6 8 10 7 16 -2 7 -11 9 -11 9 3 0 9
-14 28 -31 42 -34 29 -27 35 11 9 14 -10 36 -18 50 -18 19 0 26 -6 28 -24 4
-23 3 -23 -13 -8 -25 26 -38 20 -19 -8 13 -20 14 -25 3 -23 -9 2 -13 -4 -11
-16 3 -14 -1 -17 -12 -13 -9 4 -16 2 -16 -3 0 -5 -13 -8 -29 -8 -16 1 -41 -9
-56 -21 -15 -11 -23 -21 -17 -21 6 0 14 4 17 10 3 6 27 10 52 10 40 0 51 5 87
39 23 22 58 55 79 74 43 38 84 146 64 166 -6 6 -7 11 -1 11 5 0 2 5 -6 11 -13
9 -13 10 0 6 8 -2 14 -11 12 -18 -8 -33 17 9 27 45 9 36 8 40 -15 59 -18 14
-22 22 -13 27 6 5 10 19 7 33 -3 17 -1 24 7 21 20 -8 28 29 11 42 -9 6 -16 15
-16 19 0 4 -9 20 -21 37 -12 16 -18 32 -14 36 4 4 10 1 12 -5 3 -7 8 -13 13
-13 11 0 -16 54 -34 69 -22 19 -63 3 -71 -27 -5 -20 -8 -23 -16 -11 -5 9 -9
10 -9 2 0 -7 -8 -20 -19 -30 -13 -13 -20 -39 -25 -98 -4 -44 -11 -105 -15
-135 l-8 -55 -3 55 c-6 120 -9 208 -10 276 0 64 -3 73 -30 101 l-30 30 27 -5
c17 -3 30 1 38 12 11 14 14 15 25 1 20 -25 30 -17 15 12 -21 39 -9 41 28 5 18
-18 37 -32 42 -32 6 0 3 6 -5 13 -8 7 -26 25 -40 41 l-25 29 23 -13 c22 -11
23 -10 17 10 -5 14 -3 20 3 16 6 -3 12 -1 14 5 2 6 15 2 31 -11 30 -24 34 -20
12 13 -13 21 -13 23 6 24 28 2 37 12 20 22 -7 5 -10 14 -6 20 5 9 10 9 21 0
17 -14 19 2 2 22 -7 7 11 -8 40 -36 61 -57 68 -52 15 14 -36 45 -36 46 -4 16
26 -24 31 -26 26 -10 -6 19 -6 19 8 3 23 -29 31 -21 8 8 -18 22 -18 28 -6 40
7 8 17 14 21 14 4 0 16 7 26 17 10 9 18 11 18 5 0 -6 -4 -12 -9 -14 -5 -1 -3
-12 6 -23 13 -16 15 -17 10 -2 -4 11 -1 17 9 17 10 0 14 6 11 14 -9 24 6 28
19 5 l12 -22 7 23 c5 17 3 27 -11 37 -17 13 -17 13 6 11 17 -2 25 3 28 16 7
34 88 150 135 193 76 70 224 153 271 153 34 0 13 19 -36 34 -72 21 -93 36 -53
36 24 0 27 2 15 11 -11 8 6 9 60 5 79 -6 132 -17 243 -48 37 -10 72 -16 79
-12 6 4 8 3 4 -4 -8 -13 3 -20 47 -33 l32 -9 -27 23 c-27 22 -52 72 -82 162
-19 58 -36 214 -24 221 5 3 18 -16 29 -43 11 -26 27 -65 36 -85 9 -21 24 -45
34 -54 18 -17 19 -16 13 14 -6 27 -2 33 35 56 23 15 41 31 41 37 0 6 7 9 15 5
13 -5 14 -2 4 15 -10 19 -8 20 20 16 16 -3 35 -8 42 -13 9 -5 10 -2 6 10 -6
15 1 13 39 -8 26 -14 52 -26 60 -26 7 0 15 -12 18 -27 2 -16 2 13 0 62 -3 50
-14 128 -25 175 -11 47 -22 95 -24 106 -5 24 12 84 24 84 15 0 40 -36 66 -95
21 -47 29 -56 34 -41 5 13 18 19 44 21 31 2 38 -2 47 -24 6 -14 17 -37 25 -50
12 -22 12 -26 -3 -38 -16 -12 -16 -12 1 -13 9 0 17 -5 17 -11 0 -5 5 -7 10 -4
6 3 10 2 10 -4 0 -5 -6 -12 -12 -15 -7 -2 -4 -4 7 -2 11 1 34 10 51 19 17 9
34 13 38 10 12 -12 6 -40 -12 -56 -59 -53 -93 -210 -92 -420 0 -194 29 -290
138 -467 35 -56 43 -78 33 -84 -10 -7 -51 27 -51 42 0 6 -11 17 -24 24 -38 20
-98 109 -85 125 8 9 5 15 -15 24 -19 9 -29 26 -41 68 -9 31 -20 66 -25 79 -6
13 -10 109 -10 214 0 105 -3 188 -7 185 -4 -4 -6 -46 -5 -93 1 -47 -1 -83 -5
-81 -5 3 -9 -6 -9 -19 -1 -13 3 -24 10 -24 7 0 8 -3 1 -8 -6 -4 -11 -29 -11
-57 0 -27 -4 -68 -8 -90 -5 -22 -10 -67 -11 -100 l-3 -60 7 50 8 50 1 -66 c1
-37 9 -83 17 -103 54 -129 61 -297 20 -441 -35 -121 -63 -166 -159 -258 -135
-130 -281 -185 -458 -173 -154 10 -264 60 -390 175 -41 39 -78 68 -81 64 -4
-3 4 -14 16 -24 l22 -18 -22 6 c-13 3 -23 9 -23 14 0 5 -11 15 -25 21 -27 12
-34 48 -10 48 8 0 15 2 15 5 0 8 -91 179 -101 190 -6 5 -9 3 -9 -8 0 -9 -4
-17 -8 -17 -11 0 -22 -24 -75 -160 -74 -194 -107 -303 -95 -317 8 -10 6 -13
-8 -14 -18 0 -18 -1 1 -9 19 -8 19 -9 -3 -9 -26 -1 -75 -35 -65 -45 3 -3 -1
-6 -11 -6 -11 0 -15 -5 -10 -12 4 -7 3 -10 -1 -5 -5 4 -17 -1 -28 -10 -15 -13
-18 -14 -12 -3 8 13 7 13 -8 1 -9 -7 -17 -17 -17 -21 0 -11 80 10 105 27 26
18 40 17 25 -2 -7 -8 -19 -15 -26 -15 -8 0 -14 -5 -14 -11 0 -6 6 -9 14 -6 8
3 17 0 19 -7 3 -7 -3 -12 -15 -12 -12 1 -23 -3 -24 -9 -4 -9 42 -12 64 -5 4 1
11 2 15 1 5 -1 5 4 1 10 -5 9 -2 10 10 6 10 -4 20 -7 22 -7 2 0 4 -4 4 -10 0
-5 -15 -17 -32 -25 -18 -8 -25 -13 -15 -10 12 3 17 1 15 -7 -9 -28 -70 -31
-143 -9 -46 14 -57 20 -32 17 34 -4 36 -3 27 15 -6 11 -8 24 -5 29 3 6 -2 11
-12 11 -41 3 -110 1 -141 -4 -18 -3 -30 -2 -28 2 3 4 -11 5 -29 3 -26 -3 -37
1 -46 16 -10 16 -17 18 -30 11 -21 -11 -89 13 -243 85 -54 25 -109 46 -121 46
-33 0 -54 10 -65 30 -8 16 -5 16 48 -1 31 -11 66 -23 77 -29 11 -5 37 -16 58
-25 20 -8 53 -22 73 -30 l35 -16 -12 23 c-6 13 -51 61 -99 108 -79 77 -97 90
-186 127 -149 62 -236 82 -385 87 -104 4 -209 -9 -209 -25 0 -5 -7 -6 -16 -2
-8 3 -25 1 -37 -4 -39 -18 -139 -68 -163 -81 -32 -17 -64 -60 -64 -85 0 -20 0
-20 14 -1 14 18 15 18 21 2 4 -10 11 -15 16 -12 5 3 9 1 9 -4 0 -6 -7 -13 -16
-16 -9 -4 -12 -11 -7 -18 4 -7 10 -35 13 -62 4 -43 9 -53 37 -69 17 -10 41
-19 52 -20 11 0 19 -4 18 -7 -1 -3 3 -6 8 -7 6 -2 10 12 10 29 0 34 28 56 111
84 41 14 46 13 86 -8 50 -25 70 -24 110 5 26 19 27 22 11 29 -28 11 5 9 57 -3
25 -6 52 -16 60 -23 26 -22 108 -37 198 -35 101 3 115 -3 186 -73 33 -32 55
-47 66 -43 10 3 29 1 44 -5 25 -9 26 -12 20 -59 -6 -47 -5 -51 35 -94 22 -24
41 -53 42 -63 0 -16 1 -17 7 -3 9 22 38 11 75 -28 l27 -29 -41 1 c-22 1 -45 8
-49 16 -11 17 -22 7 -14 -14 3 -9 17 -17 32 -19 40 -5 39 -26 -2 -23 -27 3
-35 -1 -35 -13 0 -15 -9 -185 -10 -205 -2 -18 -21 6 -22 26 0 13 -7 3 -18 -27
-15 -42 -21 -49 -44 -50 -15 -1 -27 3 -27 8 0 11 -47 -39 -65 -68 -8 -12 -19
-15 -48 -10 -32 6 -37 9 -31 28 4 11 11 23 15 24 18 7 8 24 -10 19 -14 -3 -18
-1 -14 9 3 8 1 14 -3 14 -14 -1 -54 -37 -54 -49 0 -6 -9 -15 -20 -21 -11 -6
-20 -17 -20 -26 0 -8 -11 -19 -24 -24 -14 -5 -30 -18 -36 -30 -10 -19 -40 -28
-40 -12 0 4 15 24 33 44 28 31 38 66 19 69 -4 0 -18 2 -32 4 -18 2 -38 -9 -74
-44 -41 -39 -47 -42 -41 -21 4 14 17 33 29 42 l21 18 -21 0 c-13 0 -24 8 -27
20 -5 21 -37 28 -37 9 0 -6 -5 -9 -12 -7 -6 2 -52 -18 -101 -44 -95 -52 -138
-61 -68 -15 42 28 53 47 26 47 -8 0 -15 7 -15 15 0 13 -9 10 -45 -11 -51 -29
-70 -27 -31 4 31 24 33 32 6 32 -11 0 -20 -5 -20 -10 0 -6 -10 -15 -23 -20
-12 -5 -16 -9 -9 -9 7 -1 10 -6 7 -12 -4 -5 0 -18 10 -29 9 -10 17 -30 19 -46
3 -29 36 -49 67 -41 10 3 20 -6 28 -24 7 -16 19 -29 27 -29 8 0 14 -4 14 -8 0
-15 52 -7 64 11 19 25 30 21 12 -5 -23 -33 -20 -37 22 -31 20 2 53 6 72 9 19
2 46 1 60 -2 23 -6 24 -7 5 -14 -29 -12 -37 -12 -29 2 4 7 3 8 -5 4 -6 -4 -9
-18 -7 -32 4 -21 1 -24 -22 -24 -15 1 -45 7 -67 15 -22 8 -53 15 -69 15 -26 0
-28 -2 -21 -27 3 -16 13 -32 21 -36 8 -4 14 -14 14 -22 0 -19 37 -53 75 -69
78 -34 115 -40 181 -29 213 37 410 232 488 485 17 53 24 65 35 59 30 -19 -32
-188 -114 -311 -93 -140 -292 -294 -453 -351 -43 -14 -78 -32 -78 -38 -1 -6
-2 -18 -3 -26 -2 -24 -118 -93 -196 -117 -52 -17 -96 -22 -171 -23 -92 0 -105
2 -159 30 -51 26 -63 38 -87 85 -15 30 -33 78 -40 105 -10 42 -25 64 -93 135
-45 47 -94 100 -108 118 l-27 34 0 -661 0 -661 568 0 c312 0 577 3 590 6 18 5
20 9 11 20 -9 10 -8 15 2 18 26 9 222 23 434 31 72 3 149 8 172 11 42 6 43 5
44 -22 0 -29 17 -79 18 -56 1 8 20 12 60 12 58 0 59 0 65 33 6 33 56 73 86 68
25 -4 60 -51 60 -81 0 -21 5 -29 18 -28 9 1 101 -3 203 -7 l186 -8 6 48 c4 26
8 69 8 94 1 41 2 42 8 16 4 -16 5 -43 3 -59 -4 -28 -2 -29 14 -15 16 13 17 12
10 -6 -6 -16 -5 -18 5 -8 21 21 29 15 19 -12 -8 -22 -8 -25 6 -17 8 5 21 19
27 33 8 15 22 24 41 26 37 3 41 8 28 38 -7 15 -8 25 -2 25 6 0 10 9 10 21 0
11 -4 17 -10 14 -5 -3 -18 -1 -27 4 -16 10 -16 11 5 17 16 5 21 12 17 24 -6
20 20 36 31 19 4 -7 23 -8 53 -3 25 4 55 8 66 8 11 1 26 5 32 9 7 4 29 5 49 1
30 -5 40 -3 51 11 13 18 14 18 28 -1 13 -16 16 -17 26 -4 9 12 10 11 6 -7 -6
-27 10 -42 19 -19 3 9 12 16 20 16 8 0 14 10 14 24 0 30 -56 60 -94 50 -15 -3
-38 1 -57 10 -18 9 -46 16 -63 16 -17 0 -26 4 -20 8 6 4 14 19 17 33 5 19 12
25 29 24 13 -1 32 3 43 9 11 5 25 11 30 11 12 1 7 27 -7 36 -7 4 -6 9 1 13 6
4 11 18 11 31 0 13 5 27 10 30 6 4 10 -19 11 -62 1 -37 2 -74 3 -80 2 -21 21
-15 24 7 2 11 8 18 13 15 15 -10 22 22 9 44 -10 20 -9 21 19 16 25 -4 30 -1
34 17 3 15 5 9 6 -14 1 -25 8 -42 21 -51 17 -12 19 -18 10 -42 -16 -42 -25
-175 -12 -175 6 0 13 6 15 13 3 6 6 1 6 -12 1 -13 -10 -38 -22 -55 -18 -23
-26 -50 -31 -108 -7 -78 -7 -78 17 -78 30 0 50 22 41 45 -4 10 -1 21 7 26 12
8 12 10 -1 18 -22 14 -10 18 38 13 47 -5 54 -27 9 -27 -29 1 -38 -15 -9 -16
10 0 12 -3 4 -6 -6 -2 -9 -9 -6 -14 3 -6 0 -16 -6 -24 -11 -13 26 -15 291 -14
216 0 296 3 277 11 -33 11 -37 28 -7 28 11 0 30 5 42 12 21 11 21 11 2 19 -14
5 -5 8 30 9 50 1 50 1 20 14 -19 8 -25 15 -17 20 7 4 16 5 21 2 5 -4 20 -2 33
3 21 9 21 10 -10 10 -48 1 -29 21 19 21 22 0 49 -5 59 -10 13 -7 21 -7 25 0 3
5 31 10 62 10 46 0 60 -4 78 -24 12 -13 30 -26 40 -27 25 -5 21 -23 -7 -31
-13 -3 6 -4 42 -1 63 6 95 22 64 33 -13 5 -14 8 -2 17 7 6 24 13 38 16 21 4
20 4 -7 6 -18 0 -33 5 -33 10 0 4 22 4 49 -2 46 -9 49 -11 34 -26 -15 -15 -15
-16 2 -19 9 -2 21 1 25 8 4 6 18 10 31 8 l24 -5 -24 -10 c-31 -13 -15 -24 54
-38 30 -6 49 -15 47 -23 -1 -6 4 -12 12 -12 8 0 17 -7 20 -16 6 -16 29 -16 70
1 14 6 17 5 12 -3 -5 -9 10 -12 53 -12 46 0 61 4 61 14 0 8 5 16 12 18 7 3 8
9 3 19 -5 8 -10 21 -12 29 -1 8 -4 27 -7 43 -5 24 -2 27 22 28 27 1 27 1 3 8
-89 24 64 48 166 26 l58 -13 -45 -1 c-38 -1 -42 -3 -26 -13 10 -6 55 -10 100
-10 93 1 91 -4 -6 -13 -93 -9 -86 -23 10 -19 l77 3 -50 -13 c-28 -7 -43 -15
-35 -18 8 -2 -7 -8 -35 -12 -39 -6 -46 -10 -32 -17 9 -6 22 -7 28 -3 16 9 122
6 150 -5 20 -8 13 -10 -36 -11 -33 0 -67 -5 -75 -10 -11 -7 3 -10 48 -10 34 0
62 -4 62 -10 0 -6 168 -9 450 -10 l450 0 -135 152 c-74 84 -145 159 -157 165
-15 8 -17 13 -8 13 22 0 70 48 70 69 0 10 -7 38 -16 62 -19 51 -44 239 -32
239 4 0 8 9 8 20 0 21 15 27 25 10 3 -6 11 -10 17 -10 6 0 3 9 -7 20 -16 18
-14 24 7 21 4 0 10 8 13 19 4 11 13 20 21 20 8 0 14 5 14 10 0 6 5 10 10 10 6
0 21 9 33 21 12 12 48 39 79 60 32 22 70 55 85 75 29 38 66 57 197 105 92 34
106 35 106 12 0 -12 20 2 63 42 101 97 163 152 142 125 -11 -13 -30 -33 -43
-43 -12 -10 -20 -22 -17 -27 3 -5 -3 -11 -14 -15 -13 -4 -17 -12 -14 -25 4
-16 11 -18 32 -13 23 6 25 5 13 -10 -8 -9 -11 -20 -8 -25 10 -17 46 -21 54 -7
4 8 13 11 20 6 8 -5 3 -14 -19 -30 -18 -13 -29 -19 -25 -13 3 6 2 13 -3 16 -5
4 -8 -2 -6 -11 2 -11 -18 -38 -50 -68 -78 -74 -165 -155 -215 -198 l-45 -39
-13 29 c-11 25 -12 25 -7 3 11 -44 10 -52 -5 -60 -8 -3 -28 -13 -44 -21 -16
-8 -31 -21 -34 -29 -3 -9 6 -5 24 10 23 19 21 16 -6 -13 -19 -22 -70 -68 -112
-104 -43 -37 -78 -71 -78 -76 0 -6 8 -3 18 6 10 10 26 17 35 17 11 0 14 5 10
15 -3 9 -2 15 3 14 23 -4 35 3 44 26 5 14 15 25 23 25 7 0 19 8 28 18 24 27
110 97 117 95 4 0 18 14 32 33 14 18 29 34 34 34 6 0 33 25 62 55 29 30 57 55
63 55 6 0 11 5 11 10 0 6 6 9 13 8 6 -2 11 2 10 8 -1 7 11 14 26 17 20 4 28
12 27 24 -1 13 5 17 19 15 15 -3 17 -1 8 8 -9 10 0 23 36 59 27 26 51 54 54
62 4 9 6 10 6 2 1 -7 6 -13 12 -13 5 0 7 5 4 10 -3 6 7 18 24 28 17 9 31 23
31 30 0 6 10 12 23 12 18 0 19 2 7 10 -13 8 -12 10 3 10 9 0 17 7 17 15 0 9 9
15 23 15 16 0 18 3 8 9 -9 6 -10 10 -2 16 7 4 17 2 24 -3 7 -5 21 -6 32 -1 18
7 18 8 2 8 -10 1 -16 5 -13 10 4 5 0 12 -6 14 -13 5 16 11 39 8 8 -1 10 5 7
14 -7 16 4 19 24 6 10 -6 10 -10 -3 -21 -17 -14 -21 -50 -4 -50 6 0 8 8 4 19
-3 12 0 21 9 24 10 4 13 1 9 -9 -3 -7 0 -14 7 -14 8 0 9 -10 5 -32 -7 -33 -7
-33 13 -15 13 12 22 15 27 7 3 -6 3 -10 -2 -9 -19 3 -22 -2 -13 -27 9 -21 6
-29 -12 -44 -12 -10 -29 -16 -38 -13 -11 4 -12 2 -3 -4 9 -6 -9 -30 -63 -83
-62 -62 -76 -72 -85 -60 -9 13 -10 12 -5 -3 4 -12 -9 -30 -41 -60 -26 -23
-106 -96 -178 -162 -72 -66 -156 -143 -188 -171 l-58 -52 125 -7 c88 -5 129
-11 137 -21 6 -8 19 -15 28 -15 9 -1 -6 -5 -32 -9 -27 -5 -57 -16 -68 -26 -20
-18 -26 -69 -9 -79 6 -3 10 -11 10 -17 0 -7 -30 -8 -96 -3 -83 6 -98 5 -115
-11 -10 -9 -19 -27 -19 -39 0 -24 28 -55 50 -55 11 0 11 -3 2 -12 -16 -16 -15
-63 2 -77 13 -11 74 -19 175 -22 l52 -2 -63 -64 -63 -63 580 2 c319 1 555 5
525 8 l-55 7 53 1 c28 1 52 6 52 11 0 10 -48 21 -94 21 -24 0 -27 3 -16 10 8
5 36 7 62 4 l48 -7 0 121 0 121 -27 4 -28 4 28 2 c22 1 27 6 27 25 0 18 -7 26
-22 29 l-23 4 23 2 22 1 0 2315 0 2315 -1479 0 c-999 0 -1482 -3 -1486 -10
-12 -19 6 -70 24 -70 10 0 28 -11 40 -24 l22 -23 -28 4 -28 5 32 -20 c28 -19
31 -24 26 -60 -3 -24 -1 -42 6 -46 20 -12 12 -23 -13 -19 -13 3 -26 14 -29 24
-7 24 -30 33 -65 23 -23 -6 -24 -8 -7 -11 68 -13 71 -14 55 -26 -18 -15 -23
-79 -7 -89 19 -12 79 -10 72 2 -4 6 -16 8 -27 4 -17 -5 -19 -2 -16 23 2 23 8
28 31 28 33 1 52 -25 41 -58 -17 -47 -4 -107 32 -158 19 -28 33 -56 31 -62 -2
-6 -12 4 -23 22 -17 29 -23 32 -51 26 -37 -7 -43 7 -16 37 10 12 12 18 4 18
-7 0 -25 14 -40 30 -24 27 -31 30 -54 21 -18 -7 -28 -7 -33 0 -3 6 -13 8 -21
5 -9 -4 -13 -1 -11 6 3 7 10 13 17 13 11 0 31 23 31 37 0 4 -6 5 -14 2 -10 -4
-21 6 -32 28 -9 18 -18 35 -20 36 -3 4 -74 -18 -74 -23 0 -1 7 -20 16 -40 13
-31 13 -39 2 -46 -11 -7 -10 -11 1 -18 12 -8 12 -12 2 -25 -7 -8 -11 -21 -9
-28 3 -7 11 2 19 20 15 35 24 38 66 21 15 -6 40 -11 56 -11 15 0 27 -4 27 -9
0 -5 -4 -9 -10 -9 -5 0 -10 -5 -10 -11 0 -5 4 -8 9 -5 10 7 23 -22 16 -34 -9
-14 52 -41 78 -35 31 8 58 -20 28 -30 -18 -5 -18 -8 -4 -36 12 -24 12 -33 2
-45 -6 -8 -9 -17 -5 -21 3 -3 6 -1 6 7 0 10 3 10 14 1 20 -17 30 3 16 30 -8
14 -8 25 -2 31 13 13 25 -8 24 -43 0 -16 3 -29 8 -29 4 0 11 -8 15 -17 5 -15
4 -16 -6 -5 -15 14 -33 16 -24 2 4 -6 -6 -7 -24 -4 -19 4 -37 1 -46 -6 -14
-11 -12 -18 11 -59 15 -25 40 -59 56 -75 15 -17 28 -33 28 -37 0 -4 7 -15 16
-23 11 -12 13 -20 5 -33 -9 -15 -10 -15 -11 -2 0 20 -41 59 -62 59 -9 0 -19
-11 -22 -25 -7 -29 0 -48 16 -39 6 4 8 -1 3 -16 -5 -16 0 -29 17 -48 34 -38
59 -108 48 -135 -7 -19 -9 -16 -9 15 -1 27 -7 40 -22 49 -16 8 -23 8 -28 0 -5
-8 -12 -7 -25 2 -18 13 -18 15 -1 40 9 15 16 28 14 28 -2 1 -24 2 -48 4 -26 1
-47 7 -49 15 -3 9 2 11 22 6 14 -3 26 -2 26 3 0 16 -20 23 -46 17 -20 -5 -24
-13 -24 -41 0 -18 4 -36 9 -39 14 -9 -19 -72 -39 -73 -10 -1 -22 10 -29 24
-10 21 -16 24 -41 19 -17 -3 -30 -4 -30 -2 0 2 9 23 19 47 19 41 22 43 55 41
40 -4 40 -3 25 51 -9 34 -13 38 -35 33 -14 -4 -24 -2 -24 4 0 5 7 10 16 10 8
0 12 4 9 10 -3 5 -19 7 -35 3 -34 -6 -40 10 -16 42 8 11 12 25 9 32 -3 8 0 11
8 9 8 -2 27 -7 43 -11 26 -5 28 -4 23 17 -4 14 0 29 11 41 16 19 16 19 -5 13
-14 -5 -23 -3 -23 3 0 6 -9 11 -19 11 -11 0 -23 5 -27 12 -5 8 -2 9 10 5 12
-5 16 -3 14 5 -6 19 -40 20 -62 3 -17 -13 -18 -17 -6 -42 21 -41 24 -49 15
-41 -12 11 -35 -11 -28 -28 3 -7 -2 -17 -11 -20 -9 -3 -13 -10 -10 -15 10 -18
-5 -9 -38 21 -19 18 -40 29 -50 26 -21 -5 -22 6 -6 52 12 32 15 34 49 29 38
-5 69 5 51 17 -6 4 -21 27 -33 51 -19 37 -27 45 -50 45 -15 0 -31 -4 -34 -10
-9 -15 -25 -12 -25 4 0 21 -50 66 -74 66 -12 0 -27 -5 -34 -12 -7 -7 -12 -8
-12 -2 0 5 9 15 20 22 12 7 18 17 15 22 -9 15 -19 12 -49 -11 l-26 -20 25 -33
c32 -42 31 -46 -5 -46 -20 0 -30 -5 -30 -15 0 -8 5 -15 12 -15 7 0 5 -5 -5
-12 -9 -7 -19 -33 -23 -57 -7 -43 -7 -44 18 -38 20 5 27 2 36 -19 16 -33 15
-34 -8 -34 -12 0 -22 -9 -25 -23 -4 -13 -15 -29 -27 -36 -16 -10 -23 -10 -37
3 -10 9 -23 16 -30 16 -9 0 -11 6 -6 18 5 9 10 32 13 50 4 28 8 33 26 28 18
-4 21 -1 21 28 0 22 -4 32 -12 29 -7 -3 -15 7 -19 21 -4 17 -13 26 -25 26 -10
0 -19 6 -19 14 0 22 28 82 45 96 9 7 13 21 10 31 -3 9 -1 20 5 24 5 3 10 11
10 16 0 6 -5 7 -11 3 -7 -4 -20 4 -30 17 -18 23 -20 23 -33 6 -20 -26 -28 -5
-12 29 8 16 16 46 19 67 5 35 4 37 -22 37 -26 0 -51 -16 -51 -32 0 -4 7 -8 16
-8 13 0 11 -5 -8 -23 -14 -13 -29 -39 -33 -57 -5 -23 -10 -29 -16 -19 -4 8 -6
23 -3 35 3 12 -1 26 -11 34 -9 8 -12 16 -6 19 16 10 -5 35 -23 28 -24 -10 -19
-54 10 -93 l26 -34 -40 0 c-33 0 -44 -5 -66 -34 -31 -41 -31 -45 -8 -62 11 -9
13 -13 4 -14 -7 0 -10 -5 -6 -11 5 -8 -1 -10 -18 -6 -19 5 -28 2 -32 -9 -9
-24 -7 -28 9 -14 11 9 15 9 15 1 0 -6 -7 -14 -15 -17 -8 -4 -15 -12 -15 -19 0
-7 -6 -16 -12 -19 -9 -3 -7 -9 7 -17 19 -13 19 -13 -5 -19 -22 -6 -25 -11 -24
-54 0 -43 -1 -46 -13 -30 -10 13 -12 32 -8 59 10 59 10 59 19 74 7 11 5 13 -6
9 -13 -5 -12 0 3 33 11 21 20 51 21 66 1 15 6 34 11 41 7 9 2 12 -21 12 -17 0
-32 -6 -36 -15 -13 -35 -22 -10 -18 51 3 48 1 65 -7 60 -21 -13 -11 12 12 27
18 14 20 18 7 26 -9 7 -19 6 -27 -1 -17 -14 -16 -3 1 57 13 41 13 50 0 70 -13
20 -12 25 16 60 16 21 30 43 30 50 0 6 9 20 20 30 19 18 20 17 20 -6 0 -13 -4
-30 -9 -38 -5 -8 -7 -20 -4 -28 9 -22 33 -15 43 13 9 21 7 29 -7 39 -17 13
-17 14 1 34 12 14 15 21 6 21 -6 0 -10 7 -7 15 9 21 -36 2 -71 -30 -26 -24
-42 -31 -42 -19 0 3 15 18 32 35 l32 29 -1827 0 -1827 0 1 -1357z m4749 1277
c0 -5 -2 -10 -4 -10 -3 0 -8 5 -11 10 -3 6 -1 10 4 10 6 0 11 -4 11 -10z m44
-26 c9 -3 14 -10 11 -15 -7 -10 -35 0 -35 12 0 11 3 11 24 3z m-1104 -14 c0
-5 -5 -10 -11 -10 -5 0 -7 5 -4 10 3 6 8 10 11 10 2 0 4 -4 4 -10z m1154 -15
c4 -11 -1 -15 -17 -14 -12 0 -16 3 -9 6 6 2 10 9 6 14 -3 5 -1 9 4 9 6 0 12
-7 16 -15z m-179 -56 c11 -17 -1 -21 -15 -4 -8 9 -8 15 -2 15 6 0 14 -5 17
-11z m-4080 -118 c-3 -6 -11 -11 -17 -11 -6 0 -6 6 2 15 14 17 26 13 15 -4z
m3861 -16 c-3 -9 0 -25 6 -35 10 -15 10 -22 1 -31 -10 -10 -14 -8 -18 7 -4 10
-11 27 -16 36 -12 24 -12 26 9 31 9 3 19 5 21 6 2 0 0 -6 -3 -14z m-3899 -20
c0 -8 -4 -12 -9 -9 -5 3 -6 10 -3 15 9 13 12 11 12 -6z m4166 -45 c-6 -6 -33
30 -33 44 0 6 9 0 20 -14 10 -14 16 -27 13 -30z m-4188 20 c3 -5 0 -7 -8 -4
-8 3 -18 1 -22 -5 -3 -6 -12 -11 -18 -11 -7 0 -3 7 7 15 23 18 33 19 41 5z
m-75 -35 c0 -2 -10 -9 -22 -15 -22 -11 -22 -10 -4 4 21 17 26 19 26 11z m3144
-54 c-5 -6 -33 31 -33 44 -1 6 8 -1 19 -15 10 -14 17 -27 14 -29z m381 -36
l32 -35 -32 0 c-18 0 -39 -7 -46 -17 -13 -15 -11 -16 24 -9 40 8 43 3 25 -37
-14 -29 -28 -36 -28 -12 0 8 -7 15 -16 15 -12 0 -14 -9 -12 -42 2 -36 6 -43
22 -41 20 1 45 -22 46 -42 0 -6 -13 -16 -30 -22 -29 -11 -35 -26 -31 -83 0
-10 -1 -11 -5 -2 -3 6 -14 12 -23 12 -27 0 -43 44 -29 77 6 16 10 37 9 47 -2
14 2 17 13 13 22 -9 20 15 -4 46 -11 14 -20 32 -20 41 0 8 -7 19 -17 24 -10 6
-14 16 -10 26 4 9 2 16 -4 16 -6 0 -3 13 6 28 14 22 25 28 57 29 34 2 45 -3
73 -32z m-158 1 c0 -8 -8 -11 -19 -8 -10 2 -26 -2 -35 -9 -15 -13 -15 -12 -2
9 15 24 56 30 56 8z m-370 -81 c18 -27 57 -84 87 -125 29 -41 49 -78 44 -81
-14 -9 10 -51 23 -43 11 6 38 -23 38 -41 1 -5 -8 1 -19 15 -23 30 -26 14 -5
-26 19 -37 19 -64 1 -64 -8 0 -17 -6 -19 -12 -3 -7 -3 2 0 20 4 24 -1 42 -21
72 -14 22 -26 44 -26 50 0 6 -4 9 -8 6 -5 -3 -16 8 -26 25 -9 16 -21 29 -27
29 -5 0 -9 7 -9 15 0 9 -6 18 -14 21 -15 6 -25 28 -47 104 -7 25 -16 50 -21
56 -5 7 -11 22 -13 34 -4 19 -2 20 12 8 9 -7 31 -35 50 -63z m-2527 5 c0 -5
-4 -10 -10 -10 -5 0 -10 5 -10 10 0 6 5 10 10 10 6 0 10 -4 10 -10z m2717 -13
c-6 -20 -27 -19 -27 2 0 14 5 19 15 14 9 -3 14 -10 12 -16z m598 12 c11 -17
-1 -21 -15 -4 -8 9 -8 15 -2 15 6 0 14 -5 17 -11z m-391 -23 c-3 -13 -1 -27 5
-30 18 -11 12 -36 -8 -36 -28 0 -45 -27 -43 -67 2 -28 0 -34 -12 -30 -10 4
-13 1 -9 -9 3 -9 -1 -14 -12 -14 -22 0 -45 -24 -45 -47 -1 -15 -2 -15 -9 -3
-7 13 -8 41 -2 86 0 6 12 16 25 24 15 8 22 18 19 28 -4 8 4 22 18 33 23 19 23
20 5 33 -23 19 -14 35 18 29 14 -3 29 2 37 11 19 21 20 20 13 -8z m-2899 4 c3
-5 1 -10 -4 -10 -6 0 -11 5 -11 10 0 6 2 10 4 10 3 0 8 -4 11 -10z m59 -5 c-4
-8 -11 -12 -16 -9 -6 4 -5 10 3 15 19 12 19 11 13 -6z m-216 -35 c-7 -11 -16
-20 -21 -20 -4 0 -3 9 3 20 6 11 15 20 20 20 6 0 5 -9 -2 -20z m52 11 c0 -5
-7 -12 -16 -15 -14 -5 -15 -4 -4 9 14 17 20 19 20 6z m3505 -1 c-3 -5 -11 -10
-16 -10 -6 0 -7 5 -4 10 3 6 11 10 16 10 6 0 7 -4 4 -10z m-66 -38 c24 -26 24
-27 4 -30 -26 -4 -38 -43 -17 -55 14 -8 14 -11 0 -26 -15 -16 -15 -20 4 -44
12 -15 24 -43 27 -62 5 -33 4 -35 -23 -35 -25 0 -31 -5 -42 -40 -17 -56 -16
-61 14 -54 18 5 29 1 39 -12 20 -26 18 -51 -3 -57 -12 -2 -22 -17 -25 -36 -6
-28 -10 -31 -29 -25 -12 4 -31 17 -41 30 -10 14 -23 22 -28 19 -5 -4 -9 -2 -9
4 0 5 5 13 11 17 6 3 9 21 7 39 -2 22 0 31 8 28 16 -6 46 26 42 45 -2 9 -14
22 -28 29 -14 7 -19 13 -11 13 11 0 11 3 1 15 -10 12 -16 13 -26 4 -9 -7 -14
-7 -14 -1 0 11 29 82 34 82 1 0 17 -7 35 -16 38 -19 51 -12 27 15 -10 11 -25
34 -34 53 -10 18 -27 35 -39 38 -16 4 -20 9 -14 19 5 8 7 20 4 27 -2 7 0 22 7
33 9 18 17 20 53 15 27 -4 50 -15 66 -32z m-139 18 c0 -5 -2 -10 -4 -10 -3 0
-8 5 -11 10 -3 6 -1 10 4 10 6 0 11 -4 11 -10z m-20 -50 c0 -5 -2 -10 -4 -10
-3 0 -8 5 -11 10 -3 6 -1 10 4 10 6 0 11 -4 11 -10z m585 -30 c3 -5 -1 -10 -9
-10 -8 0 -18 5 -21 10 -3 6 1 10 9 10 8 0 18 -4 21 -10z m45 -17 c0 -16 2 -48
4 -72 2 -23 1 -39 -4 -35 -14 16 -30 76 -23 88 4 6 6 19 5 29 -2 9 2 17 8 17
5 0 10 -12 10 -27z m-1060 -52 c0 -6 -4 -12 -8 -15 -5 -3 -9 1 -9 9 0 8 4 15
9 15 4 0 8 -4 8 -9z m125 -12 c-9 -13 9 -11 24 4 10 10 15 8 27 -8 8 -10 13
-24 11 -30 -3 -8 -53 -11 -99 -6 -15 2 -8 21 7 21 8 0 15 9 15 21 0 11 5 17
10 14 6 -4 8 -11 5 -16z m625 -19 c-6 -12 -14 -19 -17 -16 -3 3 0 12 6 20 7 8
9 21 5 28 -5 10 -4 10 5 2 10 -9 10 -17 1 -34z m-120 0 c0 -5 -2 -10 -4 -10
-3 0 -8 5 -11 10 -3 6 -1 10 4 10 6 0 11 -4 11 -10z m-182 -30 c-12 -37 -32
-34 -35 3 -1 22 2 27 22 27 22 0 23 -2 13 -30z m-386 -15 c6 -27 1 -30 -22
-15 -9 6 -11 10 -3 10 7 0 10 7 7 15 -4 8 -2 15 4 15 5 0 12 -11 14 -25z m661
-1 c-3 -9 -2 -19 3 -23 5 -3 17 -18 27 -33 15 -24 15 -28 2 -28 -9 0 -18 -12
-21 -29 -6 -28 -9 -29 -55 -28 -50 2 -70 17 -23 17 16 0 23 4 18 11 -3 6 -22
9 -40 7 -22 -3 -33 0 -30 6 3 6 10 28 17 48 11 34 15 37 38 32 43 -11 45 -10
49 14 2 12 7 22 12 22 5 0 7 -7 3 -16z m-706 -26 c-3 -8 -6 -5 -6 6 -1 11 2
17 5 13 3 -3 4 -12 1 -19z m255 10 c-19 -19 -14 -30 9 -17 28 14 54 -7 27 -22
-42 -24 -51 -41 -44 -93 3 -32 1 -55 -7 -65 -9 -12 -9 -13 1 -7 7 4 12 2 12
-6 0 -8 6 -6 18 5 15 16 15 19 2 27 -13 8 -13 10 2 10 20 0 44 -38 31 -50 -4
-4 -17 -10 -28 -12 -13 -2 -22 -14 -25 -33 -6 -35 -18 -36 -34 -3 -9 18 -9 33
1 67 16 56 17 81 0 81 -7 0 -18 14 -24 31 -10 26 -9 32 8 47 10 9 19 22 19 28
0 12 15 22 35 23 5 1 4 -4 -3 -11z m-302 -33 c0 -5 -5 -3 -10 5 -5 8 -10 20
-10 25 0 6 5 3 10 -5 5 -8 10 -19 10 -25z m440 4 c0 -10 6 -19 13 -19 7 0 19
-10 26 -22 15 -24 15 -35 0 -30 -14 3 -49 -17 -49 -28 0 -5 14 -7 32 -3 23 5
29 3 24 -6 -5 -7 -14 -10 -22 -7 -7 3 -18 -3 -23 -13 -14 -25 -63 -16 -78 14
-8 19 -8 28 2 42 7 9 11 23 8 30 -3 7 0 13 6 13 6 0 11 -4 11 -9 0 -12 36 -20
60 -14 22 6 17 23 -7 23 -23 0 -44 32 -31 47 13 16 28 7 28 -18z m-309 -6
c-12 -20 -14 -14 -5 12 4 9 9 14 11 11 3 -2 0 -13 -6 -23z m-17 -54 c-13 -14
-24 -32 -24 -40 -1 -9 -4 -8 -12 5 -8 15 -8 21 0 24 7 2 12 19 12 38 l0 35 24
-18 24 -18 -24 -26z m710 45 c3 -8 2 -12 -4 -9 -6 3 -10 10 -10 16 0 14 7 11
14 -7z m-779 -14 c3 -5 1 -10 -4 -10 -6 0 -11 5 -11 10 0 6 2 10 4 10 3 0 8
-4 11 -10z m575 -10 c-6 -11 -13 -20 -15 -20 -3 0 -5 9 -5 20 0 11 7 20 15 20
13 0 14 -4 5 -20z m470 -5 c0 -9 7 -18 16 -22 12 -4 13 -8 3 -13 -7 -5 -18 -6
-26 -3 -15 6 -18 53 -3 53 6 0 10 -7 10 -15z m-864 -40 c-5 -19 -3 -23 9 -19
27 11 16 -11 -15 -28 -18 -10 -30 -25 -30 -38 0 -12 -7 -20 -16 -20 -13 0 -15
6 -10 33 4 17 7 41 8 53 0 18 19 32 57 43 2 1 0 -10 -3 -24z m731 -37 c-3 -8
-6 -5 -6 6 -1 11 2 17 5 13 3 -3 4 -12 1 -19z m-205 -31 c-2 -16 1 -27 8 -27
8 0 10 -9 6 -25 -5 -18 -2 -25 9 -25 19 0 20 -16 0 -24 -8 -3 -15 -14 -15 -25
0 -27 -38 -34 -53 -10 -6 10 -20 19 -29 19 -10 0 -18 5 -18 10 0 6 9 10 20 10
11 0 20 4 20 10 0 5 -8 7 -17 3 -16 -5 -16 -4 0 9 17 13 17 15 3 27 -26 21
-19 30 19 24 36 -6 42 1 26 27 -11 17 -4 33 12 27 7 -2 11 -16 9 -30z m-282 8
c0 -8 -4 -15 -10 -15 -5 0 -7 7 -4 15 4 8 8 15 10 15 2 0 4 -7 4 -15z m-480
-120 c-8 -150 -2 -268 14 -314 9 -24 16 -54 16 -67 0 -13 4 -24 9 -24 11 0 36
-59 28 -66 -5 -5 8 -46 37 -116 5 -11 1 -20 -11 -26 -15 -9 -19 -7 -20 10 -1
11 -13 30 -26 42 -14 13 -33 38 -43 57 -14 27 -19 30 -22 15 -6 -29 125 -298
177 -360 19 -23 40 -56 48 -73 14 -35 56 -69 72 -59 22 14 100 -36 171 -109
59 -60 68 -74 43 -61 -18 9 -50 18 -73 20 -22 2 -43 6 -47 10 -3 3 -14 6 -24
6 -9 0 -24 11 -33 25 -9 14 -24 25 -34 25 -9 0 -31 12 -49 28 -24 20 -31 33
-27 48 6 22 -26 54 -53 54 -22 0 -73 63 -67 83 3 9 1 17 -4 17 -17 0 -74 59
-67 70 3 5 -1 10 -10 10 -11 0 -15 6 -11 18 2 9 7 27 11 38 6 22 -12 37 -45
38 -8 1 -22 17 -31 36 -32 68 -78 220 -72 236 4 11 2 15 -4 11 -6 -4 -15 10
-21 31 -16 54 -30 194 -22 216 6 17 9 15 33 -16 15 -19 27 -45 27 -58 0 -17 4
-21 17 -16 9 4 19 2 23 -4 4 -6 7 18 7 53 0 36 8 91 17 123 10 33 24 83 33
113 13 48 17 52 26 35 7 -11 10 -51 7 -99z m122 55 c8 0 9 -43 5 -142 -4 -110
-2 -152 9 -183 7 -22 14 -52 14 -66 0 -44 38 -181 67 -242 25 -53 28 -56 34
-34 9 35 2 127 -12 143 -6 7 -9 19 -7 26 5 14 39 -55 53 -107 5 -19 10 -24 12
-14 2 9 -8 51 -22 94 -14 43 -25 80 -24 84 1 9 37 -72 38 -86 1 -7 19 -49 41
-95 44 -91 47 -113 25 -144 -20 -29 -61 -20 -81 17 -12 25 -18 28 -34 19 -14
-7 -20 -7 -20 0 0 5 -6 9 -12 8 -7 -2 -12 5 -12 14 1 10 -2 16 -6 13 -4 -3
-17 10 -29 28 -17 26 -21 28 -22 12 -1 -36 -27 34 -39 110 -7 39 -19 82 -26
97 -8 16 -19 39 -24 54 -9 22 -8 25 8 20 17 -6 17 0 9 81 -12 117 -3 247 20
303 17 42 18 43 21 18 2 -16 8 -28 14 -28z m319 -1 c4 -19 7 -26 8 -16 0 9 8
17 16 17 19 0 19 -2 -3 -28 -18 -21 -18 -21 -31 -1 -10 17 -15 18 -27 8 -12
-10 -13 -9 -8 5 3 9 10 16 16 16 5 0 6 10 3 21 -5 15 -3 20 6 17 8 -3 17 -20
20 -39z m549 26 c20 -24 6 -28 -15 -5 -10 11 -13 20 -8 20 6 0 16 -7 23 -15z
m-30 -18 c0 -7 -9 -18 -20 -25 -20 -12 -21 -12 -4 13 18 28 24 31 24 12z
m-288 -19 c-7 -7 -12 -8 -12 -2 0 6 3 14 7 17 3 4 9 5 12 2 2 -3 -1 -11 -7
-17z m1151 9 c7 4 8 0 3 -13 -16 -38 -24 -74 -18 -74 3 0 1 -5 -6 -12 -7 -7
-12 -17 -12 -22 0 -6 21 10 47 34 43 42 45 43 20 9 -31 -41 -33 -52 -12 -69
36 -30 8 -48 -87 -56 -34 -3 -55 -12 -79 -34 -18 -16 -36 -27 -41 -24 -4 3
-34 -14 -65 -37 -55 -41 -57 -41 -33 -11 106 133 266 319 268 311 2 -5 9 -6
15 -2z m-837 -18 c5 -8 9 -8 14 1 6 9 12 6 21 -11 30 -55 11 -93 -23 -46 -14
19 -29 27 -50 27 l-30 0 23 20 c28 23 35 24 45 9z m-86 -20 c0 -6 -4 -7 -10
-4 -5 3 -10 11 -10 16 0 6 5 7 10 4 6 -3 10 -11 10 -16z m-716 -22 c-3 -9 -10
-17 -15 -17 -11 0 -12 34 -2 44 11 11 24 -9 17 -27z m252 -6 c2 -2 12 3 23 13
16 15 19 15 31 1 10 -12 10 -15 -4 -15 -9 0 -17 -7 -17 -15 -1 -8 -2 -21 -3
-27 -2 -27 -31 -24 -59 6 -25 27 -27 31 -13 42 9 6 16 17 16 25 0 9 5 6 12 -6
6 -11 13 -22 14 -24z m154 4 c0 -8 -2 -15 -4 -15 -2 0 -6 7 -10 15 -3 8 -1 15
4 15 6 0 10 -7 10 -15z m267 -11 c3 -8 12 -13 19 -10 8 3 14 2 14 -2 0 -11
-19 -37 -22 -32 -22 28 -36 60 -28 60 6 0 13 -7 17 -16z m-551 -22 c-17 -16
-18 -16 -5 5 7 12 15 20 18 17 3 -2 -3 -12 -13 -22z m-46 -12 c-16 -4 -26 -14
-28 -28 -2 -12 -8 -22 -13 -22 -15 0 -11 15 11 43 14 18 26 24 38 20 14 -6 13
-8 -8 -13z m367 7 c-2 -7 -11 -11 -21 -9 -9 2 -16 -2 -16 -8 0 -5 -10 -10 -22
-10 -12 0 -18 3 -15 7 4 3 2 12 -4 19 -8 10 0 12 36 12 31 0 45 -4 42 -11z
m-427 -7 c0 -5 -4 -10 -10 -10 -5 0 -10 5 -10 10 0 6 5 10 10 10 6 0 10 -4 10
-10z m830 -21 c0 -11 -4 -17 -10 -14 -5 3 -10 13 -10 21 0 8 5 14 10 14 6 0
10 -9 10 -21z m-256 -5 c11 -30 6 -37 -14 -19 -11 10 -20 22 -20 27 0 15 28 9
34 -8z m-424 2 c0 -3 -4 -8 -10 -11 -5 -3 -10 -1 -10 4 0 6 5 11 10 11 6 0 10
-2 10 -4z m300 -16 c16 -10 17 -10 -26 -14 -6 -1 -19 -7 -28 -15 -10 -8 -26
-11 -42 -7 -31 8 -29 13 8 20 15 2 35 9 45 15 22 13 24 13 43 1z m252 -20 c-2
-13 -10 -29 -18 -37 -9 -10 -11 -20 -4 -38 6 -16 6 -25 -1 -25 -15 0 -28 43
-17 57 6 8 3 21 -8 38 -13 20 -23 25 -41 20 -13 -3 -23 -1 -23 5 0 6 22 9 58
7 53 -3 57 -5 54 -27z m-418 -6 c9 -22 -3 -32 -14 -14 -12 19 -12 30 -1 30 5
0 12 -7 15 -16z m127 -21 c-8 -15 -10 -15 -11 -2 0 17 10 32 18 25 2 -3 -1
-13 -7 -23z m1287 5 c16 -16 15 -33 -1 -19 -8 6 -16 9 -19 6 -2 -3 -5 2 -5 10
0 18 9 19 25 3z m-1522 -19 c-14 -11 -26 -28 -26 -37 0 -15 -2 -15 -10 -2 -5
8 -10 11 -10 5 0 -5 -5 -2 -11 8 -13 22 -2 42 16 27 9 -7 16 -6 25 5 7 8 19
15 28 15 9 0 6 -7 -12 -21z m674 -14 c0 -5 -5 -3 -10 5 -5 8 -10 20 -10 25 0
6 5 3 10 -5 5 -8 10 -19 10 -25z m-823 -27 c-3 -7 -5 -2 -5 12 0 14 2 19 5 13
2 -7 2 -19 0 -25z m547 -14 c4 -9 4 -19 2 -21 -8 -8 -26 8 -26 23 0 19 16 18
24 -2z m-34 -19 c19 -23 8 -25 -14 -4 -11 11 -15 19 -9 19 6 0 16 -7 23 -15z
m-393 -17 c-3 -8 -6 -5 -6 6 -1 11 2 17 5 13 3 -3 4 -12 1 -19z m-77 -9 c0 -6
-4 -7 -10 -4 -5 3 -10 11 -10 16 0 6 5 7 10 4 6 -3 10 -11 10 -16z m222 -1
c-6 -6 -15 -8 -19 -4 -4 4 -1 11 7 16 19 12 27 3 12 -12z m-182 -9 c0 -6 -4
-7 -10 -4 -5 3 -10 11 -10 16 0 6 5 7 10 4 6 -3 10 -11 10 -16z m634 -53 c1
-70 -8 -80 -17 -18 -5 40 2 97 11 88 2 -3 5 -34 6 -70z m-61 -96 c-6 -7 -43
39 -43 54 0 6 11 -2 24 -19 13 -16 22 -32 19 -35z m246 -25 c-23 -38 -38 -52
-40 -36 -1 6 -2 17 -3 24 -1 9 43 43 61 47 1 0 -7 -16 -18 -35z m-228 -34
c-13 -23 -51 -47 -51 -32 0 5 9 16 20 24 12 8 20 18 19 23 -3 20 2 27 12 17 8
-8 8 -17 0 -32z m115 -7 c-40 -35 -61 -34 -54 2 2 13 15 21 43 25 22 3 42 7
45 7 3 1 -13 -14 -34 -34z m148 -14 c-31 -46 -72 -69 -86 -48 -14 22 -9 28 35
47 23 10 48 26 56 35 26 31 22 8 -5 -34z m126 -29 c0 -5 -7 -12 -15 -15 -9 -3
-15 -11 -13 -18 2 -7 -2 -14 -7 -16 -6 -2 -25 -13 -43 -24 -45 -28 -57 -19
-29 21 26 38 107 77 107 52z m-225 -11 c3 -5 0 -10 -7 -10 -7 0 -30 -19 -50
-42 -24 -28 -35 -36 -32 -23 7 27 -29 50 -56 35 -18 -10 -50 -4 -50 9 0 3 15
7 33 7 17 1 57 9 87 17 69 19 68 19 75 7z m-428 -16 c-3 -3 -12 -4 -19 -1 -8
3 -5 6 6 6 11 1 17 -2 13 -5z m148 -14 c-14 -15 -31 -20 -74 -20 -43 0 -52 3
-43 12 7 7 36 15 65 19 28 3 56 7 61 8 5 0 1 -8 -9 -19z m57 -2 c-17 -17 -15
-28 5 -28 10 0 13 -3 8 -9 -13 -11 -85 -22 -85 -13 0 4 17 19 38 34 39 29 54
36 34 16z m306 -38 c-8 -29 -19 -45 -44 -59 l-34 -20 0 24 c0 14 5 23 13 21 6
-1 9 -1 5 1 -19 11 -5 41 25 56 45 22 46 22 35 -23z m-1348 -63 c0 -5 12 -24
26 -43 36 -46 7 -47 -33 0 -26 29 -31 47 -24 85 1 7 30 -33 31 -42z m376 1
c16 -31 16 -32 0 -19 -23 19 -40 51 -27 51 6 0 18 -15 27 -32z m861 -3 c-7
-14 -15 -25 -19 -25 -4 0 -18 -12 -32 -26 -28 -31 -56 -27 -56 8 1 18 13 29
53 48 29 14 55 24 59 23 3 -2 1 -14 -5 -28z m-432 5 c-3 -5 -11 -10 -16 -10
-6 0 -7 5 -4 10 3 6 11 10 16 10 6 0 7 -4 4 -10z m275 -21 c-7 -11 -14 -18
-17 -15 -3 3 0 12 7 21 18 21 23 19 10 -6z m-30 -14 c0 -8 -7 -15 -15 -15 -8
0 -15 -4 -15 -9 0 -10 -50 -25 -58 -17 -2 3 4 9 14 12 10 4 30 16 43 26 29 22
31 22 31 3z m462 8 c9 -5 -31 -47 -59 -61 -29 -16 -60 -15 -60 1 0 6 -4 20 -8
29 -5 13 -1 20 16 28 22 9 95 11 111 3z m-1092 -57 c0 -6 -7 -2 -15 8 -8 11
-15 25 -15 30 0 6 7 2 15 -8 8 -11 15 -25 15 -30z m447 4 c-14 -11 -36 -20
-49 -19 -20 0 -19 2 9 12 17 7 35 15 39 20 4 4 12 7 17 7 5 0 -2 -9 -16 -20z
m875 -30 c-31 -29 -52 -38 -52 -22 0 6 69 51 80 51 3 0 -10 -13 -28 -29z m-35
14 c-3 -3 -12 -4 -19 -1 -8 3 -5 6 6 6 11 1 17 -2 13 -5z m-1613 -26 c9 -12
16 -30 16 -39 0 -9 6 -19 14 -22 21 -8 33 -93 26 -182 -4 -44 -8 -69 -8 -55
-1 14 -6 20 -10 15 -4 -6 -20 -16 -35 -23 -27 -12 -28 -11 -22 10 4 13 14 30
21 39 20 22 18 39 -11 92 -26 50 -29 66 -27 140 2 52 13 59 36 25z m598 -40
c18 -28 41 -63 50 -77 17 -25 37 -59 81 -133 12 -20 43 -73 69 -116 42 -70 78
-142 78 -157 0 -3 -4 -5 -10 -5 -5 0 -10 7 -10 16 0 14 -2 14 -16 3 -13 -11
-15 -11 -14 2 4 28 0 39 -16 39 -13 0 -14 3 -4 15 14 17 5 36 -13 29 -8 -2
-20 8 -28 23 -8 15 -20 34 -26 41 -7 7 -13 18 -13 24 0 6 -17 36 -38 67 -58
85 -142 235 -142 252 0 14 8 29 16 29 1 0 17 -23 36 -52z m908 31 c9 -16 15
-17 31 -8 12 6 22 9 24 7 10 -9 -16 -30 -70 -58 -48 -24 -61 -28 -73 -17 -13
10 -15 9 -9 -5 6 -18 2 -20 -28 -20 -8 0 -19 0 -24 1 -14 2 -20 39 -7 49 20
16 66 23 86 12 15 -8 18 -7 14 3 -3 8 5 18 18 25 21 10 20 11 -17 12 -34 2
-36 3 -15 9 44 12 60 10 70 -10z m-247 -8 c37 -19 34 -27 -12 -29 -34 -2 -38
0 -36 20 3 29 4 30 13 26 4 -2 19 -10 35 -17z m-131 -96 c3 -58 2 -61 -22 -45
-13 9 -13 11 0 21 12 8 11 9 -7 4 -12 -3 -24 -1 -28 5 -3 5 -1 10 5 10 6 0 16
14 21 30 16 45 27 36 31 -25z m-554 -10 c-3 -3 -9 2 -12 12 -6 14 -5 15 5 6 7
-7 10 -15 7 -18z m731 -56 c13 -39 14 -42 2 -35 -13 8 -32 66 -21 66 4 0 13
-14 19 -31z m-1184 -9 c21 -23 4 -27 -19 -4 -18 17 -20 24 -8 24 5 0 17 -9 27
-20z m503 -2 c6 -13 23 -42 37 -66 24 -39 25 -42 6 -30 -12 7 -21 18 -21 24 0
6 -11 28 -25 48 -27 40 -29 46 -17 46 5 0 14 -10 20 -22z m821 -75 c6 -23 11
-67 11 -97 0 -51 2 -56 23 -57 21 0 21 -1 2 -9 -14 -6 -24 -3 -33 9 -18 23
-68 134 -64 145 1 4 -3 15 -10 23 -11 14 -10 15 12 9 l25 -7 -25 20 c-25 21
-25 21 -5 36 18 14 21 14 37 -7 9 -13 22 -42 27 -65z m60 7 c17 -28 29 -50 26
-50 -2 0 2 -19 10 -41 39 -111 -2 -101 -48 11 -35 85 -47 122 -41 131 8 14 19
4 53 -51z m211 20 c-14 -5 -50 -16 -81 -25 l-57 -16 4 -42 4 -42 -13 39 c-8
22 -19 42 -25 44 -20 6 -2 22 26 22 15 0 50 7 77 14 57 16 107 20 65 6z m-402
-82 c-4 -68 -26 -77 -24 -9 0 27 4 47 9 44 4 -2 7 1 7 6 0 6 2 11 6 11 3 0 4
-23 2 -52z m-593 -38 c29 -45 34 -70 10 -50 -8 7 -15 17 -15 22 0 5 -7 16 -15
24 -14 14 -21 44 -10 44 3 0 16 -18 30 -40z m-868 -30 c7 0 13 -5 13 -11 0 -5
-4 -7 -10 -4 -7 4 -7 -3 0 -19 15 -40 -9 -32 -26 9 -17 42 -19 83 -2 48 6 -13
17 -23 25 -23z m163 30 c0 -5 -9 -10 -20 -10 -11 0 -20 5 -20 10 0 6 9 10 20
10 11 0 20 -4 20 -10z m1820 -10 c-8 -5 -22 -10 -30 -10 -13 0 -13 1 0 10 8 5
22 10 30 10 13 0 13 -1 0 -10z m-65 -20 c-11 -5 -27 -9 -35 -9 -13 -1 -13 0 0
9 8 5 24 9 35 9 l20 0 -20 -9z m-3112 -6 c-9 -4 -9 -11 -1 -30 13 -28 8 -36
-27 -39 -17 -2 -25 2 -25 11 0 9 4 13 9 10 5 -4 16 -3 25 0 12 5 13 9 3 19 -7
7 -15 11 -19 8 -4 -2 -5 3 -2 11 3 9 16 16 28 15 11 0 16 -3 9 -5z m1667 -4
c0 -6 -7 -13 -15 -16 -23 -9 1 -33 25 -27 11 3 20 0 20 -6 0 -6 -7 -11 -16
-11 -12 0 -14 -3 -6 -12 7 -10 4 -21 -14 -41 -13 -15 -24 -24 -24 -18 0 5 5
13 10 16 6 4 8 11 4 16 -3 6 -12 2 -21 -10 -8 -12 -22 -21 -31 -21 -11 0 -13
-3 -5 -11 8 -8 7 -19 -3 -39 -17 -33 -42 -56 -51 -46 -3 3 -2 6 4 6 6 0 14 11
17 25 4 14 11 25 16 25 6 0 10 4 10 10 0 5 -7 7 -15 4 -12 -5 -14 1 -10 27 4
26 3 29 -4 14 -5 -11 -18 -30 -30 -42 -12 -12 -21 -26 -21 -30 -1 -13 -48 -63
-60 -63 -14 0 -13 9 5 26 21 21 19 37 -2 26 -10 -5 -40 -12 -68 -15 -27 -3
-69 -15 -92 -26 -54 -27 -79 -27 -33 0 19 11 26 17 15 14 -113 -29 -138 -35
-153 -35 -9 1 19 14 63 29 155 56 341 145 357 172 18 28 75 62 93 55 8 -3 15
-1 15 4 0 6 5 10 10 10 6 0 10 -5 10 -10z m374 -81 c40 -35 52 -61 37 -86 -8
-14 -11 -15 -12 -3 -1 8 -1 18 0 23 2 12 -10 8 -36 -13 -28 -22 -48 -27 -37
-8 5 8 2 9 -9 5 -10 -3 -17 -2 -17 3 0 5 -21 8 -47 7 -38 -2 -48 1 -51 16 -2
10 3 17 12 17 9 0 16 5 16 11 0 6 7 9 15 6 8 -4 17 -2 20 3 11 18 52 10 68
-12 l16 -23 -1 30 c-1 17 -10 38 -20 48 -10 10 -15 24 -11 34 5 14 8 13 14 -5
5 -12 24 -36 43 -53z m1021 21 l20 -25 -22 19 c-13 11 -23 24 -23 29 0 6 1 8
3 6 1 -2 11 -15 22 -29z m-3285 -21 c0 -6 -4 -7 -10 -4 -5 3 -10 11 -10 16 0
6 5 7 10 4 6 -3 10 -11 10 -16z m1440 5 c0 -8 -5 -12 -10 -9 -6 4 -8 11 -5 16
9 14 15 11 15 -7z m1927 -20 c-3 -3 -12 -4 -19 -1 -8 3 -5 6 6 6 11 1 17 -2
13 -5z m-3372 -14 c3 -5 1 -10 -4 -10 -6 0 -11 5 -11 10 0 6 2 10 4 10 3 0 8
-4 11 -10z m2095 -64 c-13 -13 -39 21 -39 49 0 17 3 16 24 -10 16 -19 21 -33
15 -39z m473 38 c6 -35 -22 -104 -43 -104 -15 0 -15 7 -7 62 6 35 12 57 15 50
2 -6 8 -12 13 -12 4 0 6 7 3 15 -4 8 -2 15 4 15 5 0 12 -12 15 -26z m-948 6
c-3 -5 -11 -10 -16 -10 -6 0 -7 5 -4 10 3 6 11 10 16 10 6 0 7 -4 4 -10z
m1209 -32 c-14 -26 -19 -29 -22 -15 -2 10 4 27 14 38 25 27 28 17 8 -23z
m-3164 5 c0 -19 -30 -29 -41 -12 -14 22 -11 27 16 27 15 0 25 -6 25 -15z
m3130 -21 c0 -10 -8 -28 -17 -41 -9 -14 -11 -21 -5 -17 15 9 15 1 1 -26 -18
-33 9 -41 43 -13 15 13 35 22 45 20 10 -2 22 -4 27 -4 5 -1 3 -7 -3 -15 -10
-12 -8 -13 10 -9 23 6 23 6 3 -14 -37 -37 -88 -62 -107 -52 -9 6 -17 16 -17
22 0 8 -13 13 -32 12 -31 0 -33 2 -41 49 -7 42 -5 54 11 75 18 24 58 43 75 34
4 -2 7 -12 7 -21z m-320 -15 c0 -5 -4 -5 -10 -2 -5 3 -10 14 -10 23 0 15 2 15
10 2 5 -8 10 -19 10 -23z m-4180 8 c-7 -8 -17 -15 -22 -15 -6 0 -5 7 2 15 7 8
17 15 22 15 6 0 5 -7 -2 -15z m3560 11 c0 -3 -4 -8 -10 -11 -5 -3 -10 -1 -10
4 0 6 5 11 10 11 6 0 10 -2 10 -4z m-2893 -43 c-8 -7 -97 19 -92 27 3 5 26 2
51 -7 25 -8 43 -17 41 -20z m733 33 c0 -3 -4 -8 -10 -11 -5 -3 -10 -1 -10 4 0
6 5 11 10 11 6 0 10 -2 10 -4z m-6 -50 c23 -31 25 -36 9 -27 -24 12 -55 56
-46 65 4 3 7 5 8 4 0 -2 14 -20 29 -42z m2492 -23 c-4 -10 4 -9 28 6 l34 22
23 -32 c12 -17 18 -34 12 -38 -5 -3 -9 -21 -9 -38 1 -18 -2 -33 -6 -33 -4 -1
-21 -5 -38 -10 -18 -5 -30 -5 -30 0 0 5 -13 7 -30 4 -19 -4 -30 -2 -30 4 0 6
-6 9 -13 6 -24 -9 -98 -10 -103 -2 -3 5 -10 6 -15 3 -5 -4 -9 -1 -9 6 0 8 -4
8 -15 -1 -12 -10 -15 -10 -15 3 0 30 -33 10 -48 -29 -9 -21 -20 -42 -25 -45
-5 -4 -14 -17 -21 -30 -10 -20 -19 -24 -49 -22 -77 5 -95 38 -62 117 26 62
108 94 157 62 23 -15 26 -15 54 9 16 14 39 25 51 25 12 0 25 5 28 10 3 6 16 8
28 5 12 -2 36 1 52 9 35 15 59 10 51 -11z m-3076 7 c0 -5 -2 -10 -4 -10 -3 0
-8 5 -11 10 -3 6 -1 10 4 10 6 0 11 -4 11 -10z m2320 -20 c0 -5 -8 -10 -17
-10 -15 0 -16 2 -3 10 19 12 20 12 20 0z m-1396 -106 c-16 -9 -31 -20 -35 -26
-4 -7 -9 -7 -13 0 -3 6 3 13 14 17 11 3 20 11 20 16 0 5 -13 3 -29 -6 -19 -9
-32 -11 -36 -5 -4 6 7 13 25 16 17 4 33 11 36 15 3 5 14 4 26 -2 19 -10 19
-11 -8 -25z m3590 20 c8 -21 5 -24 -36 -35 -18 -4 -59 -16 -92 -25 -49 -13
-60 -13 -67 -2 -14 21 -11 25 22 37 40 14 39 14 39 -4 0 -8 4 -15 10 -15 5 0
6 8 3 17 -5 13 -2 15 11 10 9 -4 15 -3 12 2 -3 5 5 11 19 13 18 4 25 1 26 -11
0 -13 1 -14 6 -1 12 31 38 38 47 14z m19 -64 c5 -21 -14 -42 -21 -22 -2 7 -8
12 -13 12 -4 0 -6 -6 -3 -13 3 -8 -1 -14 -8 -14 -7 0 -37 -7 -65 -16 -39 -12
-53 -13 -54 -4 0 9 -2 9 -6 0 -8 -21 -20 -15 -25 11 -4 22 0 26 41 36 25 7 56
14 68 16 12 2 32 8 45 13 28 10 34 8 41 -19z m-235 8 c18 -18 14 -31 -8 -25
-11 3 -20 1 -20 -4 0 -5 -6 -9 -14 -9 -8 0 -17 -4 -20 -9 -4 -5 4 -7 15 -4 15
4 27 0 37 -13 13 -18 14 -18 7 4 -6 20 -4 23 12 20 12 -2 18 -12 18 -31 -1
-24 2 -27 21 -23 16 4 23 1 27 -14 4 -16 -2 -21 -32 -26 -20 -4 -43 -10 -51
-15 -22 -13 39 -1 146 27 102 27 148 31 97 9 -17 -8 -42 -17 -55 -19 -12 -3
-59 -16 -103 -29 -127 -38 -135 -39 -135 -23 0 8 8 17 18 19 13 4 11 5 -5 6
-13 0 -23 4 -24 9 -3 29 -9 53 -22 94 l-15 47 27 10 c37 13 65 13 79 -1z
m-4098 -8 c0 -13 -11 -13 -30 0 -12 8 -11 10 8 10 12 0 22 -4 22 -10z m200
-24 c14 -2 31 -4 38 -5 6 0 12 -5 12 -11 0 -5 -7 -7 -15 -4 -10 4 -13 2 -10
-8 3 -8 19 -19 35 -25 17 -6 30 -16 30 -21 0 -12 -21 -8 -107 20 -66 20 -85
34 -33 23 19 -4 30 -3 30 4 0 7 -27 12 -67 13 -38 1 -77 3 -88 4 -11 1 -31 3
-45 4 -25 2 -25 2 -2 8 22 7 171 5 222 -2z m506 4 c13 0 24 -5 24 -10 0 -11
-45 -3 -70 12 -12 8 -11 8 3 4 10 -3 30 -6 43 -6z m2712 -39 c18 -12 48 -27
68 -33 19 -5 49 -23 67 -39 18 -17 27 -28 21 -25 -5 2 -21 -13 -34 -35 -14
-21 -32 -39 -42 -39 -9 0 -20 -4 -23 -10 -3 -5 -17 -10 -30 -10 -13 0 -27 -5
-30 -11 -4 -6 -13 -8 -21 -5 -8 3 -14 1 -14 -4 0 -6 -15 -9 -32 -8 -18 0 -47
-2 -64 -5 -24 -5 -33 -3 -38 8 -3 9 -18 15 -35 15 -35 0 -61 9 -61 21 0 5 11
7 25 3 15 -4 25 -2 25 5 0 6 -11 11 -25 11 -14 0 -32 6 -39 12 -29 28 26 122
92 158 51 28 145 24 190 -9z m926 4 c6 -15 3 -16 -50 -19 -18 -1 -39 -10 -49
-19 -24 -24 -65 -22 -65 3 0 19 24 27 68 21 8 -1 20 3 27 9 8 7 19 9 25 5 5
-3 10 -1 10 4 0 17 27 13 34 -4z m-4172 -70 c4 -5 5 -11 3 -14 -7 -6 -45 30
-57 54 -9 17 -6 16 18 -5 16 -14 32 -29 36 -35z m682 31 c21 -7 34 -16 27 -20
-6 -4 -20 -2 -32 4 -26 14 -53 5 -45 -15 6 -17 -2 -19 -24 -5 -12 8 -12 10 -1
10 8 0 12 3 8 6 -6 6 13 33 23 33 3 1 22 -5 44 -13z m-99 -27 c-5 -14 1 -22
22 -30 l28 -12 -25 -6 c-23 -7 -22 -8 20 -23 25 -9 65 -22 90 -29 25 -6 54
-17 65 -24 11 -6 28 -14 37 -18 15 -5 16 -4 5 13 -6 11 -17 20 -24 20 -7 0
-13 5 -13 11 0 5 -25 21 -56 35 -31 14 -54 27 -51 30 3 3 27 -5 54 -17 26 -13
56 -22 66 -21 10 1 15 -3 12 -8 -4 -6 8 -11 27 -11 23 -1 26 -3 11 -6 -29 -6
-29 -14 2 -43 18 -17 28 -20 38 -12 16 14 59 4 54 -12 -2 -6 -14 -10 -26 -9
-30 4 -26 -14 14 -58 32 -36 49 -79 25 -64 -5 3 -10 13 -10 21 0 8 -4 14 -8
14 -4 0 -16 14 -26 31 -14 24 -21 28 -28 18 -8 -11 -9 -10 -4 4 5 15 2 16 -14
7 -26 -14 -70 -3 -63 16 4 10 -2 13 -21 12 -25 -2 -26 -4 -10 -15 10 -7 14
-13 8 -13 -9 0 -155 99 -202 136 -13 11 -24 29 -25 41 0 12 -7 25 -14 27 -25
10 -13 22 17 18 25 -3 29 -8 25 -23z m1438 5 c23 -8 50 -25 59 -37 15 -19 27
-22 128 -25 77 -3 110 -8 107 -16 -2 -6 -11 -10 -21 -8 -19 3 -22 -14 -3 -21
18 -8 -68 -13 -146 -9 -29 2 -40 7 -44 22 -3 11 -9 17 -15 14 -5 -3 -15 0 -23
6 -24 20 -177 24 -219 6 -26 -11 -36 -12 -36 -3 0 7 -7 3 -15 -7 -12 -15 -30
-20 -77 -23 -39 -1 -54 0 -39 5 35 11 38 29 4 25 -16 -3 -39 0 -53 6 -21 8
-16 10 32 10 31 1 59 4 61 9 3 4 -22 6 -56 6 -35 -1 -54 2 -46 6 8 5 55 9 104
10 106 2 157 9 150 20 -3 4 14 4 37 -1 48 -11 89 -6 43 5 -16 4 -39 12 -50 17
-31 15 69 0 118 -17z m-1751 -18 c7 4 8 2 4 -4 -8 -14 -46 2 -46 19 0 6 7 3
16 -5 8 -9 20 -13 26 -10z m958 13 c0 -15 -39 -37 -80 -44 -97 -16 -208 -10
-188 10 7 7 219 43 246 42 12 -1 22 -4 22 -8z m-840 -30 c0 -4 -7 -6 -15 -3
-8 4 -15 10 -15 15 0 4 7 6 15 3 8 -4 15 -10 15 -15z m-198 -12 c-7 -8 -8 -18
-4 -22 4 -5 1 -5 -5 -1 -10 5 -10 11 -1 26 7 11 14 17 17 15 2 -3 -1 -11 -7
-18z m1156 3 c45 0 72 -4 64 -9 -8 -4 28 -8 82 -7 53 1 96 -2 96 -6 0 -11
-184 -19 -217 -9 -31 9 -32 9 -23 -15 7 -19 6 -24 -5 -24 -8 0 -15 5 -15 10 0
6 -19 10 -43 10 -31 0 -47 -6 -60 -21 -10 -11 -21 -18 -24 -15 -4 3 2 15 11
25 10 11 15 25 11 30 -3 6 1 11 9 11 10 0 13 6 9 17 -5 13 -2 15 11 10 10 -4
52 -7 94 -7z m2499 -12 c-3 -8 -6 -5 -6 6 -1 11 2 17 5 13 3 -3 4 -12 1 -19z
m173 2 c-8 -5 -22 -9 -30 -9 -10 0 -8 3 5 9 27 12 43 12 25 0z m95 -10 c-11
-5 -29 -9 -40 -9 l-20 0 20 9 c11 5 29 9 40 9 l20 0 -20 -9z m-3572 -17 c18
-9 37 -16 44 -15 6 1 14 -2 18 -8 3 -5 2 -10 -4 -10 -5 0 -18 -3 -28 -7 -10
-3 -14 -2 -10 2 4 5 -11 19 -35 32 -24 12 -37 22 -30 23 7 0 27 -8 45 -17z
m3383 1 c-26 -9 -50 -13 -53 -10 -6 6 54 24 82 24 11 1 -2 -6 -29 -14z m-3526
-14 c0 -11 -2 -20 -4 -20 -2 0 -6 9 -9 20 -3 11 -1 20 4 20 5 0 9 -9 9 -20z
m1546 11 c-3 -5 -15 -7 -26 -4 -11 3 -27 0 -35 -7 -15 -12 -22 0 -8 13 10 11
75 8 69 -2z m2102 4 c-3 -3 -25 -12 -49 -20 l-44 -15 45 6 c63 7 41 -10 -39
-31 -71 -18 -91 -14 -40 9 l34 15 -40 -6 c-57 -8 -34 12 35 30 56 15 108 21
98 12z m127 0 c-47 -17 -115 -32 -115 -25 0 9 64 28 100 28 14 0 21 -1 15 -3z
m-4055 -19 c0 -23 -18 -29 -35 -12 -13 13 -13 15 3 19 30 8 32 7 32 -7z m43 0
c6 -15 -11 -36 -27 -36 -6 0 -3 7 7 14 18 14 18 15 0 25 -16 9 -16 10 -2 11 9
0 19 -6 22 -14z m1035 6 c14 12 14 11 1 -9 -8 -13 -16 -23 -19 -23 -3 0 -6 10
-7 23 0 12 1 16 4 9 4 -10 8 -10 21 0z m-1208 -22 c0 -5 -2 -10 -4 -10 -3 0
-8 5 -11 10 -3 6 -1 10 4 10 6 0 11 -4 11 -10z m1303 -6 c33 -12 17 -22 -18
-12 -19 6 -32 15 -29 20 3 5 11 7 17 4 7 -4 20 -9 30 -12z m652 -16 c15 -6 11
-7 -14 -3 -18 3 -51 5 -72 5 -22 0 -39 5 -39 11 0 12 90 3 125 -13z m650 6
c19 -14 19 -15 -3 -20 -24 -7 -29 -20 -10 -26 6 -2 9 -10 6 -18 -3 -10 -13 -5
-37 18 -28 26 -32 34 -21 47 16 19 39 19 65 -1z m-2190 -4 c3 -5 1 -10 -4 -10
-6 0 -11 5 -11 10 0 6 2 10 4 10 3 0 8 -4 11 -10z m1020 -5 c53 -9 112 -18
133 -20 63 -7 125 -23 177 -44 60 -24 40 -27 -34 -5 -29 8 -58 13 -64 11 -7
-2 8 -10 33 -17 25 -7 53 -23 63 -34 15 -17 18 -18 13 -3 -6 20 10 23 21 3 4
-8 27 -21 51 -29 36 -13 41 -13 31 -1 -9 12 -9 13 3 9 16 -6 54 -65 41 -65 -4
0 -25 6 -48 14 -116 40 -216 59 -303 58 -16 0 -22 4 -18 14 3 8 -1 14 -8 14
-8 0 -16 -5 -18 -12 -3 -8 -18 -7 -55 5 -60 20 -83 21 -83 6 0 -6 9 -9 20 -6
11 3 20 1 20 -4 0 -12 -41 -11 -60 1 -11 7 -11 10 -2 10 7 0 11 4 8 9 -9 14
-168 24 -176 11 -5 -8 -13 -6 -25 6 -17 17 -17 17 -11 -3 4 -14 2 -23 -8 -26
-10 -4 -13 -1 -9 9 3 8 0 20 -6 28 -14 17 6 27 37 19 11 -2 32 3 46 12 20 14
39 16 88 12 35 -4 95 -8 133 -11 l70 -5 -60 10 c-95 16 -105 19 -105 29 0 12
-7 13 105 -5z m235 5 c-14 -4 -47 -8 -75 -8 -41 0 -45 2 -20 7 17 4 50 8 75 8
36 1 40 -1 20 -7z m-1531 -26 c-9 -11 -14 -12 -19 -3 -4 6 -13 8 -19 4 -8 -4
-1 -17 20 -38 17 -18 42 -53 55 -79 13 -26 36 -54 52 -62 19 -11 22 -15 10
-16 -10 0 -18 -4 -18 -9 0 -15 43 -63 73 -82 l31 -18 39 35 c36 33 58 40 59
19 0 -5 -24 -23 -55 -39 l-55 -29 -41 32 c-52 41 -94 102 -121 175 -15 38 -34
66 -62 89 l-40 34 52 1 c45 1 50 -1 39 -14z m126 -15 c4 -5 -5 -9 -19 -9 -14
0 -26 4 -26 8 0 11 39 12 45 1z m742 -19 c4 -12 3 -12 -5 -1 -7 10 -14 11 -31
2 -20 -11 -29 -3 -14 13 12 11 46 2 50 -14z m1268 -6 c19 -19 17 -23 -17 -26
-20 -2 -61 -28 -43 -28 3 0 1 -9 -5 -20 -6 -11 -15 -20 -21 -20 -6 0 -7 5 -4
10 3 6 1 10 -4 10 -6 0 -11 -4 -11 -8 0 -5 -12 -14 -27 -21 -23 -11 -25 -10
-13 3 9 12 9 16 1 16 -7 0 -9 5 -4 13 4 6 8 17 9 22 0 6 2 15 2 22 6 41 103
61 137 27z m-950 -34 c7 -12 -12 -12 -40 0 -18 8 -17 9 7 9 15 1 30 -3 33 -9z
m1322 -6 c9 -8 23 -12 31 -9 14 5 14 4 0 -12 -9 -10 -18 -29 -20 -43 -2 -19
-8 -24 -23 -22 -11 2 -23 9 -27 15 -5 8 -8 5 -8 -7 0 -18 -1 -18 -19 -2 -23
21 -23 53 -1 77 19 22 47 23 67 3z m-1450 -10 c-3 -3 -12 -4 -19 -1 -8 3 -5 6
6 6 11 1 17 -2 13 -5z m2727 -44 c5 -17 4 -20 -2 -10 -5 8 -13 26 -16 40 -5
17 -4 20 2 10 5 -8 13 -26 16 -40z m-1973 15 c24 -14 40 -25 34 -26 -5 0 1 -4
14 -8 13 -3 27 -16 32 -28 7 -21 5 -20 -38 7 -51 33 -69 32 -32 0 21 -18 21
-20 3 -11 -15 7 -25 7 -34 -2 -10 -10 -12 -8 -6 7 3 10 1 25 -6 33 -10 12 -20
53 -12 53 1 0 22 -11 45 -25z m-1657 0 c-4 -8 -11 -12 -16 -9 -6 4 -5 10 3 15
19 12 19 11 13 -6z m3893 -27 c-6 -4 -15 -4 -20 -1 -6 4 -8 -173 -4 -473 3
-303 1 -534 -5 -629 -6 -83 -8 -163 -4 -178 4 -19 29 -42 82 -78 73 -49 81
-58 52 -63 -7 -1 -39 -10 -72 -20 -71 -21 -86 -17 -87 26 -1 30 -2 30 -8 9 -5
-19 -15 -26 -39 -28 -26 -3 -32 -1 -32 16 0 30 11 51 26 51 8 0 14 5 14 11 0
5 4 8 8 5 4 -2 13 4 20 15 7 11 8 19 2 19 -5 0 -10 -5 -10 -11 0 -8 -4 -9 -13
0 -8 6 -17 8 -20 4 -4 -3 -7 -1 -7 5 0 7 -11 12 -24 12 -35 0 -86 11 -86 19 0
4 32 4 71 -1 74 -9 107 -3 50 8 -34 7 -55 33 -45 59 4 9 -2 23 -16 35 -25 22
-50 65 -50 86 0 8 -7 14 -15 14 -8 0 -20 10 -26 23 -16 29 -31 38 -45 27 -7
-7 -20 0 -37 19 -17 19 -22 31 -14 34 7 2 0 10 -15 17 -17 8 -25 17 -20 24 4
6 9 25 11 41 4 41 11 45 11 7 0 -36 10 -41 27 -13 10 15 10 21 0 24 -7 3 -5 6
5 6 19 1 41 59 40 104 -2 81 -72 187 -123 187 -61 0 -118 -73 -119 -151 0 -33
-2 -35 -29 -31 -22 3 -29 9 -28 25 0 12 -3 45 -7 74 -3 31 -2 54 4 58 7 4 7
12 0 25 -15 27 -12 33 11 27 15 -4 18 -2 10 7 -6 7 -7 16 -3 21 4 4 -3 3 -15
-4 -31 -16 -33 -15 -33 19 0 34 7 38 26 13 13 -16 13 -15 5 8 -5 15 -7 30 -4
33 4 3 1 6 -6 6 -8 0 -12 15 -11 48 3 74 1 94 -9 88 -5 -3 -11 13 -13 37 -3
23 -6 49 -9 57 -2 9 2 14 11 12 12 -3 11 0 -2 15 -22 25 -30 62 -20 98 7 25
16 32 53 42 24 6 69 12 99 12 30 1 123 11 205 22 83 12 158 22 167 22 9 1 15
4 12 8 -2 4 6 9 19 13 12 3 24 1 25 -4 5 -13 32 -13 32 0 0 6 9 10 20 10 11 0
20 6 21 13 0 6 4 3 8 -8 5 -12 4 -23 -2 -27z m-4127 23 c0 -5 3 -18 7 -28 6
-17 6 -17 -10 -1 -19 18 -22 38 -7 38 6 0 10 -4 10 -9z m286 -5 c3 -8 22 -17
42 -21 24 -4 31 -9 23 -15 -8 -4 -10 -13 -6 -20 9 -15 -31 8 -57 33 -10 9 -23
17 -29 17 -5 0 -7 5 -4 10 9 14 25 12 31 -4z m1764 4 c0 -5 -5 -10 -11 -10 -5
0 -7 5 -4 10 3 6 8 10 11 10 2 0 4 -4 4 -10z m-1428 -19 c4 -4 -25 -6 -65 -5
-39 0 -64 -1 -54 -4 10 -2 16 -9 14 -16 -4 -9 2 -11 17 -9 23 5 106 -26 106
-39 0 -5 -5 -8 -11 -8 -6 0 -9 -7 -5 -15 4 -12 -2 -14 -34 -10 -24 3 -40 1
-40 -5 0 -19 -17 -10 -71 42 -30 28 -49 49 -42 45 7 -4 19 3 30 18 17 24 22
25 83 19 36 -3 68 -9 72 -13z m432 -12 c5 -5 8 -10 5 -11 -45 -28 -73 -37 -89
-28 -24 13 -15 48 14 53 25 5 57 -2 70 -14z m-834 7 c0 -3 -4 -8 -10 -11 -5
-3 -10 -1 -10 4 0 6 5 11 10 11 6 0 10 -2 10 -4z m2779 -40 l33 -34 -41 -56
c-41 -55 -73 -81 -84 -69 -4 3 -13 0 -22 -7 -8 -7 -15 -8 -15 -3 0 5 -18 9
-39 10 -28 1 -39 -2 -35 -10 2 -7 -2 -21 -10 -32 -14 -19 -15 -19 -21 -2 -8
20 -31 23 -39 5 -8 -21 -36 22 -36 56 0 58 43 106 154 169 47 27 112 16 155
-27z m-979 -27 c9 -15 7 -19 -5 -19 -9 0 -13 5 -10 10 3 6 1 10 -4 10 -6 0
-11 7 -11 16 0 19 16 10 30 -17z m-1910 10 c0 -5 5 -7 10 -4 6 3 10 -1 10 -9
0 -19 38 -87 59 -103 13 -11 11 -13 -10 -13 -19 0 -21 -2 -9 -10 8 -5 22 -7
31 -4 9 2 19 -2 23 -11 5 -15 -12 -64 -23 -66 -3 0 -13 -2 -21 -4 -8 -2 -26
-7 -40 -10 -25 -6 -25 -6 3 12 28 18 35 33 16 33 -5 0 -7 5 -3 12 4 6 -8 2
-28 -10 -39 -24 -48 -27 -48 -13 0 5 10 13 21 16 15 5 18 9 9 15 -9 6 -7 13 8
28 11 11 25 21 33 24 10 3 7 13 -11 39 -13 19 -28 36 -32 37 -5 2 -5 8 -2 13
3 6 0 16 -6 24 -9 11 -9 15 -1 15 6 0 11 -5 11 -11z m3252 -28 c4 0 6 -13 5
-27 -1 -15 4 -29 11 -31 7 -3 10 1 6 11 -4 11 0 16 14 16 23 0 50 -37 59 -80
4 -24 3 -29 -9 -25 -11 5 -14 -1 -10 -25 5 -34 -1 -36 -40 -16 -18 9 -28 11
-28 4 0 -7 -6 -6 -15 2 -10 9 -15 9 -15 1 0 -6 -9 -11 -21 -11 -11 0 -18 -4
-14 -10 3 -5 -8 -16 -25 -25 -16 -8 -30 -21 -30 -29 0 -7 -7 -13 -15 -13 -8 0
-15 4 -15 9 0 17 -49 8 -55 -11 -6 -18 -7 -18 -45 2 -40 22 -50 45 -50 110 0
40 79 118 141 139 36 12 115 17 151 9z m-2887 -19 c-3 -3 -11 0 -18 7 -9 10
-8 11 6 5 10 -3 15 -9 12 -12z m354 1 c-7 -10 -24 -31 -36 -46 l-22 -28 2 29
c1 18 7 28 14 25 6 -3 16 5 23 16 6 12 16 21 22 21 6 0 5 -7 -3 -17z m-159
-14 c0 -5 5 -7 11 -3 7 4 7 -1 -1 -15 -9 -17 -9 -26 1 -37 9 -11 9 -14 -1 -14
-6 0 -14 9 -17 19 -3 12 -17 23 -36 27 l-31 6 25 14 c29 16 49 18 49 3z m4800
-3 c0 -2 -18 -24 -40 -47 -22 -23 -37 -45 -35 -48 3 -2 11 1 17 7 7 7 15 12
19 12 4 0 -5 -13 -21 -29 -20 -19 -43 -30 -74 -34 -25 -4 -73 -18 -108 -32
-35 -14 -75 -27 -90 -27 -16 -1 -28 -5 -28 -10 0 -4 -9 -8 -19 -8 -11 0 -23
-4 -26 -10 -3 -5 -15 -10 -26 -10 -10 0 -19 -4 -19 -8 0 -9 -114 -65 -140 -69
-8 -1 -16 -7 -18 -12 -2 -6 -11 -11 -21 -11 -9 0 -22 -5 -29 -12 -7 -7 -12 -8
-12 -2 0 6 10 16 23 22 20 11 18 11 -13 7 -29 -5 -32 -4 -17 6 10 6 28 9 39 6
24 -7 50 2 42 14 -3 5 -14 9 -25 9 -27 0 -23 8 32 58 43 39 68 54 55 33 -4 -5
-3 -11 1 -14 5 -2 3 -2 -4 -1 -6 2 -17 -3 -23 -11 -9 -11 -1 -14 45 -17 61 -3
69 2 28 20 -25 10 -22 11 27 7 l55 -4 -40 14 -40 15 60 -4 c44 -4 54 -2 38 4
-13 6 -33 15 -45 20 -21 10 -21 10 5 6 16 -2 42 1 57 7 20 8 39 8 64 0 42 -13
49 1 9 15 l-28 10 28 1 c30 1 37 17 10 24 -14 4 -13 5 4 6 12 0 34 -4 48 -9
15 -6 32 -7 38 -3 6 4 -4 12 -24 19 l-34 12 33 1 c19 1 31 5 27 11 -4 6 5 10
19 10 14 0 26 4 26 9 0 5 8 11 18 15 9 3 24 9 32 12 12 4 12 3 2 -4 -11 -7 -9
-10 7 -15 12 -3 21 -1 21 5 0 5 4 7 8 4 4 -2 19 4 32 15 26 20 30 21 30 15z
m-4927 -20 c3 -8 -1 -20 -9 -26 -12 -10 -14 -8 -14 14 0 28 14 35 23 12z m181
-1 c-4 -8 -14 -15 -23 -15 -14 1 -13 3 3 15 25 19 27 19 20 0z m1346 5 c0 -5
-2 -10 -4 -10 -3 0 -8 5 -11 10 -3 6 -1 10 4 10 6 0 11 -4 11 -10z m-1437 -40
c4 -3 -6 -5 -23 -2 -17 2 -33 8 -36 14 -6 10 46 0 59 -12z m-732 -20 c5 0 9
-5 9 -11 0 -8 -5 -8 -15 1 -8 7 -14 20 -14 29 1 13 2 13 6 -1 2 -10 9 -18 14
-18z m1656 -1 c46 -19 52 -26 82 -90 35 -74 57 -175 47 -213 -6 -25 -90 -86
-118 -86 -9 0 -32 7 -52 15 -34 14 -36 18 -36 59 0 41 1 43 28 40 28 -4 72 13
72 28 0 11 -71 40 -86 34 -13 -5 -32 36 -65 139 l-20 59 23 18 c30 23 65 22
125 -3z m-1030 -20 c3 -12 11 -18 19 -15 7 3 18 -3 23 -12 8 -14 23 -17 88
-14 64 2 84 -1 111 -18 17 -11 32 -26 32 -33 0 -8 11 -26 24 -41 27 -28 26
-33 -20 -117 -25 -48 -85 -80 -155 -84 -20 -1 -41 -5 -48 -9 -7 -5 -11 1 -11
14 0 13 4 18 11 15 22 -14 0 57 -27 83 -45 45 -64 84 -64 133 0 29 -6 51 -15
59 -12 10 -15 10 -16 -1 -1 -18 -17 21 -18 44 -1 27 59 24 66 -4z m814 -6 c19
-23 49 -90 49 -109 0 -8 -7 -17 -15 -20 -19 -8 -19 -34 -1 -104 18 -67 8 -85
-32 -64 -15 8 -37 14 -49 14 -12 0 -25 5 -29 11 -3 6 -19 9 -34 6 -33 -7 -50
8 -50 44 0 44 10 59 40 59 33 0 47 15 31 34 -18 21 3 97 34 124 31 27 38 27
56 5z m1178 -16 c-18 -15 -98 -54 -93 -46 9 15 67 49 83 49 8 0 12 -1 10 -3z
m318 -3 c-3 -3 -12 -4 -19 -1 -8 3 -5 6 6 6 11 1 17 -2 13 -5z m-626 -75 c29
-17 82 -46 119 -64 l67 -34 11 32 11 32 -2 -30 c-2 -44 9 -55 59 -55 33 0 44
-4 44 -16 0 -8 4 -13 10 -9 5 3 4 -8 -2 -26 l-11 -32 -176 7 c-97 4 -183 7
-191 7 -33 1 -43 9 -31 23 9 11 32 13 94 10 59 -3 74 -1 52 5 -58 18 -135 30
-149 25 -11 -4 -13 0 -9 15 3 12 9 21 13 21 13 0 -2 44 -19 57 -34 24 -1 22
78 -7 45 -17 87 -30 93 -30 14 0 -88 67 -114 76 -19 6 -25 24 -8 24 5 0 33
-14 61 -31z m-2986 -39 c-3 -5 -12 -10 -18 -10 -7 0 -6 4 3 10 19 12 23 12 15
0z m4912 -27 c-3 -10 -5 -4 -5 12 0 17 2 24 5 18 2 -7 2 -21 0 -30z m-1432 13
c95 -27 181 -62 237 -96 31 -19 69 -43 85 -52 15 -10 35 -22 43 -27 8 -5 27
-14 42 -21 15 -7 30 -21 33 -31 3 -10 14 -21 25 -24 18 -6 35 -33 26 -42 -2
-3 -25 -7 -50 -9 -39 -4 -46 -2 -47 13 0 11 -3 13 -6 6 -2 -7 -12 -13 -20 -13
-11 0 -14 7 -9 23 5 21 3 23 -23 19 -16 -2 -34 2 -43 11 -11 12 -18 13 -27 4
-8 -8 -11 -6 -11 9 0 16 -7 19 -53 19 -28 -1 -59 2 -68 7 -9 4 -21 2 -27 -4
-9 -9 -12 -8 -12 6 0 14 -6 17 -25 14 -14 -3 -28 -1 -31 4 -3 5 -14 2 -24 -7
-17 -15 -19 -15 -25 4 -6 20 -35 30 -35 13 0 -4 -12 -9 -27 -10 -14 -1 -35 -9
-45 -19 -17 -15 -18 -15 -18 3 0 10 -4 15 -8 9 -4 -5 -13 -11 -20 -13 -9 -2
-10 3 -4 15 27 53 17 151 -14 139 -24 -9 -15 11 17 38 36 30 86 34 164 12z
m2450 -51 c-39 -35 -74 -64 -78 -65 -4 0 25 29 65 65 39 36 74 65 77 65 3 0
-26 -29 -64 -65z m-4909 -30 c-5 -52 -12 -65 -32 -65 -8 0 -23 -9 -35 -21
l-21 -21 7 24 c4 12 23 40 42 62 29 32 34 44 29 70 -4 24 -3 27 5 13 6 -9 8
-38 5 -62z m1835 6 c18 -41 19 -41 -28 -26 -14 5 -14 7 3 20 22 17 12 20 -17
5 -23 -13 -26 2 -3 24 22 23 27 20 45 -23z m-1648 18 c-8 -8 -16 -8 -30 0 -16
9 -14 10 12 11 21 0 26 -3 18 -11z m-143 -9 c0 -5 -2 -10 -4 -10 -3 0 -8 5
-11 10 -3 6 -1 10 4 10 6 0 11 -4 11 -10z m47 -6 c-3 -3 -12 -4 -19 -1 -8 3
-5 6 6 6 11 1 17 -2 13 -5z m-207 -34 c-20 -13 -33 -13 -25 0 3 6 14 10 23 10
15 0 15 -2 2 -10z m207 -60 c-23 -61 -62 -44 -65 30 l-2 40 39 -20 c38 -19 39
-21 28 -50z m1588 60 c3 -5 1 -10 -4 -10 -6 0 -11 5 -11 10 0 6 2 10 4 10 3 0
8 -4 11 -10z m2229 -42 c4 -28 3 -48 -2 -48 -11 0 -25 77 -16 91 9 15 11 10
18 -43z m585 25 c-44 -48 -54 -58 -94 -89 -75 -57 -70 -47 15 34 81 77 131
112 79 55z m-5210 3 c-10 -10 -89 -23 -94 -16 -3 5 5 11 17 13 33 6 82 8 77 3z
m2676 -45 c-6 -5 -32 -10 -60 -11 -65 -2 -67 -2 -60 10 3 6 34 10 68 10 37 0
57 -4 52 -9z m-1752 -18 c-5 -12 -2 -15 9 -10 10 3 19 0 22 -9 3 -9 -13 -31
-41 -57 -26 -23 -62 -56 -80 -74 -30 -28 -36 -30 -57 -19 -23 12 -23 12 -4 36
43 55 135 144 155 149 1 1 -1 -7 -4 -16z m1492 -3 c-3 -5 -11 -10 -16 -10 -6
0 -7 5 -4 10 3 6 11 10 16 10 6 0 7 -4 4 -10z m283 -15 c-5 -16 -36 -16 -42 1
-4 12 0 15 19 12 14 -2 24 -7 23 -13z m2009 -17 c-3 -7 -5 -2 -5 12 0 14 2 19
5 13 2 -7 2 -19 0 -25z m-2267 -9 c0 -6 -4 -7 -10 -4 -5 3 -10 11 -10 16 0 6
5 7 10 4 6 -3 10 -11 10 -16z m1550 -5 c0 -8 -4 -12 -10 -9 -5 3 -10 10 -10
16 0 5 5 9 10 9 6 0 10 -7 10 -16z m685 -31 c5 -18 2 -23 -12 -24 -10 0 -13
-3 -5 -6 14 -5 6 -23 -10 -23 -6 0 -9 3 -5 6 3 3 2 16 -3 28 -5 13 -4 29 2 40
11 20 22 13 33 -21z m145 8 c-24 -14 -117 -24 -105 -12 6 5 30 11 55 14 25 2
50 4 55 5 6 1 3 -2 -5 -7z m-3504 -27 c4 -14 2 -30 -5 -37 -6 -6 -11 -19 -11
-28 0 -25 -83 -61 -123 -54 -18 3 -43 7 -56 8 -15 1 -31 13 -41 30 -28 46 -20
61 36 69 27 3 76 13 109 21 82 21 84 21 91 -9z m2663 -11 c-1 -37 -1 -37 -8
-8 -7 28 -5 45 5 45 2 0 3 -17 3 -37z m171 -9 c0 -8 -4 -12 -10 -9 -5 3 -10
13 -10 21 0 8 5 12 10 9 6 -3 10 -13 10 -21z m-1535 -36 c5 2 11 -1 13 -7 2
-6 -8 -11 -22 -11 -27 0 -34 19 -19 57 6 15 8 13 13 -12 3 -16 10 -29 15 -27z
m258 2 c88 -39 114 -39 55 -1 -55 35 -21 23 52 -18 38 -22 78 -42 90 -46 12
-4 25 -16 30 -28 8 -19 9 -18 9 11 1 43 33 55 126 48 39 -3 81 -5 94 -5 54 -1
315 -92 366 -127 23 -16 75 -19 75 -4 0 6 15 10 33 9 30 -1 30 -1 7 -9 -23 -6
-21 -8 15 -12 36 -4 35 -5 -15 -7 -51 -2 -53 -3 -31 -15 15 -8 36 -11 55 -7
35 8 66 4 66 -9 0 -5 -15 -10 -32 -12 l-33 -4 35 -17 c19 -9 29 -16 23 -17 -9
0 -10 -7 -3 -26 22 -56 -4 -92 -41 -58 -17 15 -19 15 -25 0 -7 -19 -24 -21
-24 -3 0 9 -11 12 -33 9 -33 -4 -77 23 -77 47 0 14 -17 15 -25 1 -3 -5 -11
-10 -16 -10 -6 0 -8 4 -4 9 3 5 1 12 -4 15 -5 3 -11 -1 -15 -9 -8 -21 -29 -19
-22 3 5 15 -2 17 -52 17 -55 0 -75 5 -144 42 -18 9 -56 17 -90 17 -36 1 -59 5
-63 13 -2 7 -18 13 -34 13 -16 0 -33 5 -37 11 -3 6 -24 9 -45 7 -34 -3 -38 -1
-33 14 9 29 -5 41 -30 25 -18 -12 -27 -12 -68 0 -29 10 -51 24 -59 39 -14 27
-143 96 -181 98 -16 1 -24 8 -26 24 -4 29 3 27 131 -28z m1084 13 c-3 -10 -5
-4 -5 12 0 17 2 24 5 18 2 -7 2 -21 0 -30z m1992 0 c-15 -18 -4 -29 14 -14 11
9 17 8 26 -3 9 -10 7 -16 -6 -27 -16 -13 -17 -12 -4 4 14 18 2 24 -15 7 -7 -7
-18 -2 -34 15 -19 20 -21 27 -10 40 10 12 16 13 26 4 11 -9 12 -15 3 -26z
m-869 12 c0 -8 -63 -45 -75 -45 -5 1 8 12 30 25 43 27 45 28 45 20z m-390 -15
c0 -5 -7 -10 -16 -10 -8 0 -12 5 -9 10 3 6 10 10 16 10 5 0 9 -4 9 -10z
m-3960 -21 c0 -5 -4 -9 -10 -9 -5 0 -10 7 -10 16 0 8 5 12 10 9 6 -3 10 -10
10 -16z m3257 -29 c2 -12 -3 -20 -12 -20 -16 0 -19 9 -9 35 8 19 17 12 21 -15z
m650 8 c-3 -8 -6 -5 -6 6 -1 11 2 17 5 13 3 -3 4 -12 1 -19z m-1873 3 c3 -4
-6 -13 -20 -20 -33 -15 -34 -14 -34 9 0 15 7 20 24 20 14 0 27 -4 30 -9z
m3249 -26 c-22 -16 -38 -8 -23 10 6 8 18 11 26 8 12 -4 12 -8 -3 -18z m-1803
4 c0 -5 -4 -8 -9 -5 -5 3 -11 -2 -13 -12 -3 -10 -22 -26 -42 -36 -20 -9 -36
-23 -36 -31 0 -8 -4 -15 -10 -15 -22 0 14 47 45 59 18 6 35 20 38 31 5 21 27
28 27 9z m-3132 -25 c9 -3 12 -17 10 -41 -2 -21 -7 -36 -12 -35 -5 2 -13 -2
-17 -10 -5 -7 -9 -8 -9 -2 0 6 -10 10 -22 7 -13 -2 -33 5 -46 15 l-24 18 22
36 c20 34 22 35 53 25 18 -5 38 -12 45 -13z m1781 3 c42 -11 73 -39 59 -52 -3
-4 -49 -3 -101 1 -71 5 -97 11 -102 22 -15 40 52 53 144 29z m1794 -122 c4
-82 3 -96 -3 -55 -13 83 -20 197 -10 180 4 -8 10 -64 13 -125z m1403 113 l19
-23 -21 18 c-19 16 -22 16 -28 2 -3 -9 -11 -13 -17 -9 -9 5 -6 11 6 21 23 16
18 17 41 -9z m-2246 2 c-20 -5 -39 -5 -44 1 -6 5 7 9 35 8 l44 -1 -35 -8z
m247 -42 c-3 -7 -5 -2 -5 12 0 14 2 19 5 13 2 -7 2 -19 0 -25z m-199 15 c-10
-2 -26 -2 -35 0 -10 3 -2 5 17 5 19 0 27 -2 18 -5z m2218 -28 c-9 -9 -16 -13
-16 -8 0 12 22 34 28 28 2 -2 -3 -11 -12 -20z m-2275 6 c-12 -8 -51 -4 -51 5
0 2 15 4 33 4 22 0 28 -3 18 -9z m-1166 -11 c3 -5 1 -10 -4 -10 -6 0 -11 5
-11 10 0 6 2 10 4 10 3 0 8 -4 11 -10z m1517 -42 c-9 -9 -12 -4 -11 23 0 32 1
33 11 11 8 -17 8 -26 0 -34z m-264 35 c-10 -2 -28 -2 -40 0 -13 2 -5 4 17 4
22 1 32 -1 23 -4z m187 -14 c4 -11 21 -37 38 -56 l32 -37 -28 19 c-29 18 -75
95 -58 95 5 0 13 -9 16 -21z m725 16 c0 -6 -73 -25 -78 -20 -2 2 11 8 29 14
41 11 49 12 49 6z m-2220 -35 c0 -5 -4 -10 -10 -10 -5 0 -10 5 -10 10 0 6 5
10 10 10 6 0 10 -4 10 -10z m1620 -11 c0 -6 -4 -7 -10 -4 -5 3 -10 11 -10 16
0 6 5 7 10 4 6 -3 10 -11 10 -16z m-260 -17 c0 -5 -7 -9 -15 -9 -8 0 -12 4 -9
9 3 4 9 8 15 8 5 0 9 -4 9 -8z m220 -2 c0 -5 -5 -10 -11 -10 -5 0 -7 5 -4 10
3 6 8 10 11 10 2 0 4 -4 4 -10z m-1585 -20 c18 -20 17 -20 -19 -20 -34 0 -36
2 -26 20 6 11 14 20 19 20 4 0 16 -9 26 -20z m3146 -7 c13 -16 12 -17 -3 -4
-10 7 -18 15 -18 17 0 8 8 3 21 -13z m-2952 -26 c0 -21 -1 -21 -9 -2 -12 28
-12 37 0 30 6 -3 10 -16 9 -28z m1184 6 c6 -34 -1 -53 -17 -47 -18 7 -19 74
-2 74 8 0 16 -12 19 -27z m-3440 -59 c-9 -14 -22 -23 -29 -20 -7 3 -15 -2 -18
-10 -3 -8 -10 -14 -16 -14 -6 0 6 25 27 54 33 48 39 52 45 35 5 -13 2 -29 -9
-45z m5147 31 c13 -14 21 -25 18 -25 -2 0 -15 11 -28 25 -13 14 -21 25 -18 25
2 0 15 -11 28 -25z m-5330 -25 c0 -5 -4 -10 -10 -10 -5 0 -10 5 -10 10 0 6 5
10 10 10 6 0 10 -4 10 -10z m2455 -23 c8 -44 3 -107 -10 -110 -6 -1 -11 29
-13 71 -3 75 12 100 23 39z m2850 13 c10 -11 16 -20 13 -20 -3 0 -13 9 -23 20
-10 11 -16 20 -13 20 3 0 13 -9 23 -20z m-45 -11 c0 -6 -4 -7 -10 -4 -5 3 -10
11 -10 16 0 6 5 7 10 4 6 -3 10 -11 10 -16z m-2547 -8 c9 -9 -4 -11 -55 -9
-52 2 -65 5 -60 16 6 17 96 12 115 -7z m893 -37 c-5 -44 -5 -44 -14 -44 -7 0
-9 64 -3 95 4 23 20 -24 17 -51z m731 24 c-3 -7 -5 -2 -5 12 0 14 2 19 5 13 2
-7 2 -19 0 -25z m1144 15 c13 -16 12 -17 -3 -4 -17 13 -22 21 -14 21 2 0 10
-8 17 -17z m-243 -23 c12 -19 11 -20 -8 -8 -20 13 -27 28 -12 28 4 0 13 -9 20
-20z m62 -15 c13 -14 21 -25 18 -25 -2 0 -15 11 -28 25 -13 14 -21 25 -18 25
2 0 15 -11 28 -25z m-100 -5 c0 -5 -2 -10 -4 -10 -3 0 -8 5 -11 10 -3 6 -1 10
4 10 6 0 11 -4 11 -10z m30 -103 c0 -4 -18 13 -40 37 -22 24 -40 46 -40 49 0
4 18 -13 40 -37 22 -24 40 -46 40 -49z m154 77 c3 -8 2 -12 -4 -9 -6 3 -10 10
-10 16 0 14 7 11 14 -7z m57 -1 c13 -16 12 -17 -3 -4 -10 7 -18 15 -18 17 0 8
8 3 21 -13z m-211 -3 c0 -5 -2 -10 -4 -10 -3 0 -8 5 -11 10 -3 6 -1 10 4 10 6
0 11 -4 11 -10z m77 -25 c8 -9 13 -18 11 -21 -3 -2 -13 5 -23 16 -21 23 -11
27 12 5z m-1709 -44 c-4 -40 -2 -50 11 -54 12 -3 16 -16 15 -53 -1 -31 4 -55
14 -66 19 -22 4 -23 -26 -2 -13 9 -22 11 -22 4 0 -6 -3 -9 -7 -7 -12 8 -3 227
9 227 7 0 9 -18 6 -49z m-728 24 c0 -8 -4 -15 -10 -15 -5 0 -10 7 -10 15 0 8
5 15 10 15 6 0 10 -7 10 -15z m117 1 c-4 -9 2 -17 13 -21 10 -3 28 -22 40 -43
21 -35 23 -36 36 -17 14 18 14 18 14 -1 0 -11 -5 -25 -12 -32 -8 -8 -9 -12 -1
-12 6 0 14 6 16 13 4 9 8 9 15 -1 5 -8 12 -13 16 -13 23 3 27 -2 25 -31 -2
-18 2 -42 9 -53 6 -11 12 -15 12 -10 0 6 -5 16 -12 23 -9 9 -9 12 1 12 18 0
40 -30 41 -55 1 -19 1 -19 14 -2 7 9 19 17 27 17 10 -1 9 -4 -4 -14 -17 -13
-14 -46 5 -46 5 0 6 -5 3 -10 -4 -6 5 -5 20 2 l26 12 -28 12 c-26 12 -25 12
30 13 36 1 56 -3 52 -9 -4 -6 7 -10 25 -10 18 0 29 4 25 10 -4 6 15 10 52 9
55 -1 56 -2 26 -11 -18 -6 -33 -14 -33 -19 0 -14 24 -23 28 -11 4 12 62 17 62
6 0 -4 -8 -13 -17 -20 -21 -16 -113 -19 -113 -4 0 6 -24 10 -52 9 -39 0 -48
-3 -33 -9 18 -8 17 -9 -7 -9 -30 -1 -41 -20 -21 -39 18 -18 17 -36 -2 -28 -8
3 -15 1 -15 -4 0 -5 9 -12 20 -15 23 -7 24 -13 10 -49 -9 -25 -50 -38 -50 -16
0 6 4 10 8 10 5 0 17 6 27 14 18 13 17 14 -13 30 -18 9 -32 12 -32 7 0 -5 -9
-7 -20 -4 -24 6 -24 7 -3 41 13 20 14 24 3 16 -11 -8 -19 -7 -32 7 -9 9 -13
21 -10 24 4 4 -4 4 -17 0 -17 -5 -22 -4 -19 6 7 21 -15 36 -50 34 -18 -1 -32
0 -32 1 0 2 9 19 20 39 11 19 15 35 9 35 -5 0 -8 4 -4 9 11 19 -15 22 -46 6
-17 -9 -28 -12 -24 -6 8 14 -4 71 -15 71 -5 0 -10 -10 -13 -22 -3 -22 -4 -22
-15 5 -9 21 -17 27 -31 22 -16 -5 -18 -2 -14 16 5 19 4 20 -16 7 -18 -11 -23
-11 -31 2 -9 13 -11 13 -19 0 -12 -18 -17 -13 -26 21 -5 20 -1 29 18 42 13 8
31 22 39 31 8 8 33 16 54 19 21 2 41 4 43 5 2 1 1 -5 -2 -12z m2297 -22 c5
-14 4 -15 -9 -4 -17 14 -19 20 -6 20 5 0 12 -7 15 -16z m-1423 -35 c9 0 10 -2
2 -5 -17 -8 -55 15 -47 28 5 7 11 6 19 -5 7 -10 18 -17 26 -18z m-2124 -21
c-3 -7 -5 -2 -5 12 0 14 2 19 5 13 2 -7 2 -19 0 -25z m3533 17 c7 -8 8 -15 2
-15 -5 0 -15 7 -22 15 -7 8 -8 15 -2 15 5 0 15 -7 22 -15z m-1402 -15 c12 0
13 -3 4 -12 -9 -9 -15 -9 -23 -1 -6 6 -18 9 -27 6 -10 -5 -13 -2 -8 6 5 7 15
10 23 7 8 -3 22 -6 31 -6z m-2268 -36 c0 -11 -5 -14 -16 -10 -9 3 -18 6 -20 6
-3 0 -2 5 1 10 10 16 35 12 35 -6z m535 6 c-4 -6 -1 -17 5 -25 10 -12 9 -15
-9 -15 -23 0 -28 19 -9 38 15 15 21 16 13 2z m1695 0 c0 -5 -4 -10 -10 -10 -5
0 -10 5 -10 10 0 6 5 10 10 10 6 0 10 -4 10 -10z m1506 -37 c21 -26 33 -44 27
-40 -14 9 -77 87 -70 87 3 0 22 -21 43 -47z m-1442 28 c4 -5 -3 -7 -14 -4 -23
6 -26 13 -6 13 8 0 17 -4 20 -9z m456 -1 c0 -5 -16 -10 -35 -10 -19 0 -35 5
-35 10 0 6 16 10 35 10 19 0 35 -4 35 -10z m-1773 -56 c-9 -9 -28 6 -21 18 4
6 10 6 17 -1 6 -6 8 -13 4 -17z m-1657 6 c0 -5 -10 -10 -22 -9 -22 0 -22 1 -3
9 11 5 21 9 23 9 1 1 2 -3 2 -9z m1308 -15 c-6 -14 -15 -25 -20 -25 -5 0 -1
11 8 25 9 14 18 25 20 25 2 0 -2 -11 -8 -25z m1767 -30 c19 -14 19 -14 -5 -15
-36 -1 -5 -20 33 -20 15 0 27 -5 27 -11 0 -13 -131 -3 -165 12 -13 6 -3 7 30
4 28 -3 46 -2 40 2 -5 4 -11 13 -12 19 -1 6 -4 24 -7 40 l-5 28 22 -22 c12
-13 31 -29 42 -37z m2113 38 c-10 -2 -26 -2 -35 0 -10 3 -2 5 17 5 19 0 27 -2
18 -5z m-5191 -63 c0 -29 -3 -36 -18 -35 -10 1 -22 5 -26 10 -5 4 -3 5 4 1 6
-3 14 -2 18 4 3 5 -1 10 -10 10 -12 0 -15 5 -11 16 3 9 6 19 6 24 0 5 8 8 19
7 14 -1 18 -9 18 -37z m33 -75 c0 -58 -4 -95 -10 -95 -7 0 -9 25 -6 68 2 37 5
79 5 95 1 15 3 27 6 27 3 0 5 -43 5 -95z m1785 26 c8 -82 -6 -123 -17 -46 -9
74 -9 115 1 115 5 0 12 -31 16 -69z m690 60 c28 -6 27 -7 -19 -14 -68 -10
-124 -9 -131 2 -10 17 93 25 150 12z m103 -6 c-11 -11 -58 -15 -58 -5 0 5 14
10 32 10 17 0 29 -2 26 -5z m-1715 -32 c-7 -2 -19 -2 -25 0 -7 3 -2 5 12 5 14
0 19 -2 13 -5z m4264 1 c-3 -3 -12 -4 -19 -1 -8 3 -5 6 6 6 11 1 17 -2 13 -5z
m-5164 -31 c4 -3 2 -13 -5 -20 -8 -10 -8 -17 -2 -21 6 -4 10 -22 10 -39 -1
-27 -5 -33 -23 -33 -20 0 -23 5 -23 41 0 57 22 94 43 72z m2496 -39 c17 -4 28
-11 24 -17 -4 -7 5 -8 28 -3 42 9 111 17 84 10 -47 -12 -50 -16 -20 -25 17 -5
38 -6 48 -3 9 3 17 1 17 -5 0 -6 -8 -11 -19 -11 -10 0 -24 -7 -31 -15 -9 -10
-31 -15 -72 -15 -37 0 -57 -4 -53 -10 4 -6 -10 -10 -35 -10 -25 0 -39 4 -35
10 3 6 0 10 -7 10 -20 0 -38 46 -24 60 8 8 6 9 -6 5 -10 -4 -18 -3 -18 3 0 10
23 16 71 21 9 0 30 -2 48 -5z m-1099 -38 c0 -3 -4 -8 -10 -11 -5 -3 -10 -1
-10 4 0 6 5 11 10 11 6 0 10 -2 10 -4z m-393 -12 c-3 -3 -12 -4 -19 -1 -8 3
-5 6 6 6 11 1 17 -2 13 -5z m-97 -14 c0 -5 20 -10 45 -10 33 0 45 -4 45 -15 0
-8 -11 -17 -24 -21 -28 -7 -73 -2 -66 7 3 4 -4 16 -14 28 -17 19 -17 21 -3 21
10 0 17 -4 17 -10z m287 -26 c-3 -3 -12 -4 -19 -1 -8 3 -5 6 6 6 11 1 17 -2
13 -5z m-2177 -14 c13 -9 13 -10 0 -10 -8 0 -22 5 -30 10 -13 9 -13 10 0 10 8
0 22 -5 30 -10z m3617 4 c-3 -3 -12 -4 -19 -1 -8 3 -5 6 6 6 11 1 17 -2 13 -5z
m-3137 -34 c11 -7 -1 -10 -40 -11 -30 0 -64 -5 -75 -10 -13 -6 13 -7 73 -3 88
6 92 5 92 -14 0 -25 -24 -34 -82 -31 -49 2 -197 -6 -373 -21 -172 -14 -194
-13 -191 6 1 9 16 22 32 29 16 8 25 14 19 15 -5 0 7 9 28 20 39 19 101 19 138
-1 9 -5 20 -4 27 3 10 10 91 15 167 10 22 -2 56 1 75 6 47 13 92 14 110 2z
m2203 -7 c-13 -2 -33 -2 -45 0 -13 2 -3 4 22 4 25 0 35 -2 23 -4z m-723 -14
c11 -8 4 -9 -27 -5 -26 4 -43 2 -43 -4 0 -5 16 -10 36 -10 21 0 33 -4 29 -10
-11 -18 -79 -12 -92 9 -11 17 -9 20 10 24 42 8 72 7 87 -4z m277 5 c-3 -3 -12
-4 -19 -1 -8 3 -5 6 6 6 11 1 17 -2 13 -5z m853 -8 c0 -2 -7 -6 -15 -10 -8 -3
-15 -1 -15 4 0 6 7 10 15 10 8 0 15 -2 15 -4z m2867 -2 c-3 -3 -12 -4 -19 -1
-8 3 -5 6 6 6 11 1 17 -2 13 -5z m226 -1 c-13 -2 -33 -2 -45 0 -13 2 -3 4 22
4 25 0 35 -2 23 -4z m-4028 -13 c-3 -5 -10 -10 -16 -10 -5 0 -9 5 -9 10 0 6 7
10 16 10 8 0 12 -4 9 -10z m195 -9 c-14 -27 -32 -37 -23 -14 6 15 22 32 31 33
1 0 -2 -9 -8 -19z m-190 -21 c0 -5 -4 -10 -10 -10 -5 0 -10 5 -10 10 0 6 5 10
10 10 6 0 10 -4 10 -10z m-2627 -17 c-7 -2 -21 -2 -30 0 -10 3 -4 5 12 5 17 0
24 -2 18 -5z m2582 -33 c17 -19 17 -20 -9 -30 -35 -13 -36 -13 -36 5 0 8 8 15
17 15 15 0 14 2 -3 15 -16 12 -16 14 -3 15 9 0 24 -9 34 -20z m195 16 c0 -9
-40 -13 -46 -5 -3 5 6 9 20 9 14 0 26 -2 26 -4z m3750 -16 c0 -12 -36 -12
-100 -1 -43 8 -41 9 28 10 42 0 72 -3 72 -9z m-53 -37 c-20 -2 -52 -2 -70 0
-17 2 0 4 38 4 39 0 53 -2 32 -4z"/>
<path d="M3500 4296 c0 -2 8 -10 18 -17 15 -13 16 -12 3 4 -13 16 -21 21 -21
13z"/>
<path d="M4225 4240 c-3 -5 3 -10 14 -10 12 0 21 5 21 10 0 6 -6 10 -14 10 -8
0 -18 -4 -21 -10z"/>
<path d="M4260 4124 c0 -8 5 -12 10 -9 6 3 10 10 10 16 0 5 -4 9 -10 9 -5 0
-10 -7 -10 -16z"/>
<path d="M3830 4180 c-12 -8 -10 -10 8 -10 13 0 20 4 17 10 -7 12 -6 12 -25 0z"/>
<path d="M3540 3573 c1 -5 7 -19 15 -33 8 -14 14 -37 15 -51 0 -27 48 -124 57
-115 2 2 -5 35 -16 74 -12 38 -21 76 -21 84 0 9 -11 23 -25 32 -14 9 -25 13
-25 9z"/>
<path d="M3690 3381 c0 -5 5 -13 10 -16 6 -3 10 -2 10 4 0 5 -4 13 -10 16 -5
3 -10 2 -10 -4z"/>
<path d="M3959 2807 c19 -21 39 -37 44 -37 14 0 -11 28 -47 52 l-31 21 34 -36z"/>
<path d="M3951 3225 c1 -19 18 -51 18 -35 0 8 -4 22 -9 30 -5 8 -9 11 -9 5z"/>
<path d="M5380 3705 c-11 -13 -8 -15 15 -15 23 0 26 2 15 15 -7 8 -14 15 -15
15 -1 0 -8 -7 -15 -15z"/>
<path d="M4246 2525 c4 -8 10 -15 15 -15 4 0 6 7 3 15 -4 8 -10 15 -15 15 -4
0 -6 -7 -3 -15z"/>
<path d="M5493 2195 c0 -8 4 -15 9 -15 4 0 8 4 8 9 0 6 -4 12 -8 15 -5 3 -9
-1 -9 -9z"/>
<path d="M5368 2123 c7 -3 16 -2 19 1 4 3 -2 6 -13 5 -11 0 -14 -3 -6 -6z"/>
<path d="M4440 2026 c0 -2 7 -6 15 -10 8 -3 15 -1 15 4 0 6 -7 10 -15 10 -8 0
-15 -2 -15 -4z"/>
<path d="M3170 2026 c0 -10 28 -13 41 -5 10 6 7 9 -13 9 -16 0 -28 -2 -28 -4z"/>
<path d="M2745 2040 c-16 -7 -17 -9 -3 -9 9 -1 20 4 23 9 7 11 7 11 -20 0z"/>
<path d="M2955 1922 c35 -16 101 -25 90 -13 -6 6 -33 13 -60 16 -34 4 -43 3
-30 -3z"/>
<path d="M5212 1743 c-15 -6 -42 -55 -42 -76 0 -8 8 -25 18 -37 25 -31 59 -19
78 27 25 60 -4 106 -54 86z m48 -53 c0 -5 -17 -10 -37 -10 -28 0 -34 3 -23 10
20 13 60 13 60 0z"/>
<path d="M5190 1508 c0 -11 28 -10 35 1 3 6 -4 9 -15 8 -11 -1 -20 -5 -20 -9z"/>
<path d="M5215 1470 c-3 -5 -1 -10 4 -10 6 0 11 5 11 10 0 6 -2 10 -4 10 -3 0
-8 -4 -11 -10z"/>
<path d="M5158 1453 c7 -3 16 -2 19 1 4 3 -2 6 -13 5 -11 0 -14 -3 -6 -6z"/>
<path d="M5458 1013 c12 -2 32 -2 45 0 12 2 2 4 -23 4 -25 0 -35 -2 -22 -4z"/>
<path d="M5480 884 c0 -8 5 -12 10 -9 6 3 10 1 10 -4 0 -6 5 -11 10 -11 6 0 5
8 -2 20 -15 24 -28 26 -28 4z"/>
<path d="M5560 871 c0 -5 5 -13 10 -16 6 -3 10 -2 10 4 0 5 -4 13 -10 16 -5 3
-10 2 -10 -4z"/>
<path d="M4315 1670 c-3 -5 1 -10 9 -10 9 0 16 5 16 10 0 6 -4 10 -9 10 -6 0
-13 -4 -16 -10z"/>
<path d="M1689 1543 c-13 -16 -12 -17 4 -4 9 7 17 15 17 17 0 8 -8 3 -21 -13z"/>
<path d="M4896 1585 c-8 -22 3 -40 16 -27 7 7 7 16 1 27 -9 16 -10 16 -17 0z"/>
<path d="M6610 1510 c8 -5 22 -10 30 -10 13 0 13 1 0 10 -8 5 -22 10 -30 10
-13 0 -13 -1 0 -10z"/>
<path d="M3790 1380 c20 -13 43 -13 35 0 -3 6 -16 10 -28 10 -18 0 -19 -2 -7
-10z"/>
<path d="M6955 1119 c-10 -15 3 -25 16 -12 7 7 7 13 1 17 -6 3 -14 1 -17 -5z"/>
<path d="M4250 560 c0 -5 5 -10 10 -10 6 0 10 5 10 10 0 6 -4 10 -10 10 -5 0
-10 -4 -10 -10z"/>
<path d="M4480 489 c0 -5 5 -7 10 -4 6 3 10 8 10 11 0 2 -4 4 -10 4 -5 0 -10
-5 -10 -11z"/>
<path d="M4708 273 c12 -2 30 -2 40 0 9 3 -1 5 -23 4 -22 0 -30 -2 -17 -4z"/>
<path d="M1505 140 c-7 -12 38 -12 75 0 20 7 16 8 -22 9 -26 1 -50 -3 -53 -9z"/>
<path d="M1433 133 c9 -2 23 -2 30 0 6 3 -1 5 -18 5 -16 0 -22 -2 -12 -5z"/>
<path d="M1293 123 c9 -2 25 -2 35 0 9 3 1 5 -18 5 -19 0 -27 -2 -17 -5z"/>
<path d="M3755 4990 c3 -5 8 -10 11 -10 2 0 4 5 4 10 0 6 -5 10 -11 10 -5 0
-7 -4 -4 -10z"/>
<path d="M3807 4985 c-9 -22 8 -26 21 -4 10 15 10 19 -2 19 -8 0 -16 -7 -19
-15z"/>
<path d="M3889 4986 c14 -6 29 -5 44 2 19 9 16 10 -21 9 -36 -1 -40 -3 -23
-11z"/>
<path d="M4000 4985 c0 -8 2 -15 4 -15 2 0 6 7 10 15 3 8 1 15 -4 15 -6 0 -10
-7 -10 -15z"/>
<path d="M4214 4961 c0 -12 6 -17 18 -13 10 2 21 8 24 13 3 5 -2 6 -10 3 -9
-3 -16 -1 -16 5 0 6 -4 11 -8 11 -4 0 -8 -8 -8 -19z"/>
<path d="M3895 4962 c-7 -7 39 -41 47 -36 5 3 12 13 17 23 8 15 5 17 -25 17
-19 0 -37 -2 -39 -4z"/>
<path d="M3860 4950 c0 -5 5 -10 11 -10 5 0 7 5 4 10 -3 6 -8 10 -11 10 -2 0
-4 -4 -4 -10z"/>
<path d="M4180 4916 c0 -26 15 -43 24 -28 7 12 -4 52 -15 52 -5 0 -9 -11 -9
-24z"/>
<path d="M4494 4901 c4 -6 2 -11 -3 -11 -6 0 -11 -9 -11 -20 0 -11 4 -20 9
-20 8 0 11 8 20 45 1 5 -3 11 -10 14 -7 2 -9 -1 -5 -8z"/>
<path d="M4414 4884 c3 -9 6 -18 6 -20 0 -2 5 -4 10 -4 6 0 10 9 10 20 0 12
-7 20 -16 20 -11 0 -14 -5 -10 -16z"/>
<path d="M3640 4851 c0 -5 -9 -11 -20 -14 -12 -3 -20 -14 -20 -27 0 -13 8 -24
20 -27 12 -3 20 -14 20 -27 0 -11 5 -28 10 -36 7 -11 10 -6 10 22 0 48 -8 68
-26 61 -8 -3 -14 0 -14 6 0 6 4 11 10 11 5 0 14 9 20 20 7 14 7 20 0 20 -5 0
-10 -4 -10 -9z"/>
<path d="M4075 4850 c-3 -5 3 -10 15 -10 12 0 18 5 15 10 -3 6 -10 10 -15 10
-5 0 -12 -4 -15 -10z"/>
<path d="M4290 4848 c0 -6 3 -8 7 -5 3 4 12 2 20 -4 8 -7 13 -8 13 -1 0 5 -7
13 -16 16 -22 8 -24 8 -24 -6z"/>
<path d="M3794 4835 c-19 -14 -19 -14 2 -15 11 0 29 7 40 15 19 14 19 14 -2
15 -11 0 -29 -7 -40 -15z"/>
<path d="M3935 4826 c-10 -7 -15 -18 -11 -24 10 -16 27 -15 24 1 -2 7 6 11 20
10 27 -3 28 3 3 16 -13 7 -23 6 -36 -3z"/>
<path d="M4437 4828 c-16 -12 -15 -13 7 -14 17 -1 23 2 19 12 -6 17 -5 17 -26
2z"/>
<path d="M4296 4821 c-4 -5 -2 -12 3 -15 5 -4 12 -2 15 3 4 5 2 12 -3 15 -5 4
-12 2 -15 -3z"/>
<path d="M3721 4804 c0 -11 3 -14 6 -6 3 7 2 16 -1 19 -3 4 -6 -2 -5 -13z"/>
<path d="M4325 4788 c-20 -15 -30 -18 -33 -10 -2 7 -8 12 -14 12 -6 0 -7 -7
-4 -15 3 -8 9 -22 12 -31 5 -12 1 -15 -16 -12 -13 1 -25 -1 -27 -7 -1 -5 14
-10 35 -11 20 0 50 -2 67 -5 27 -4 30 -1 37 35 5 25 4 43 -3 52 -15 19 -22 18
-54 -8z m-4 -41 c-8 -8 -11 -7 -11 4 0 20 13 34 18 19 3 -7 -1 -17 -7 -23z"/>
<path d="M3835 4790 c-3 -5 -1 -10 4 -10 6 0 11 5 11 10 0 6 -2 10 -4 10 -3 0
-8 -4 -11 -10z"/>
<path d="M4068 4793 c-22 -6 -30 -30 -17 -55 21 -39 0 -29 -23 11 -23 41 -47
51 -66 28 -17 -21 1 -41 26 -28 17 9 20 7 24 -14 6 -29 0 -32 -18 -7 -7 9 -13
13 -13 7 0 -5 6 -18 14 -29 11 -14 21 -17 49 -12 33 6 35 9 26 32 -14 36 -12
54 5 54 9 0 12 -6 8 -16 -4 -12 -2 -15 8 -12 8 2 15 14 17 26 3 22 -4 25 -40
15z"/>
<path d="M3767 4783 c-13 -3 -16 -12 -13 -40 6 -46 25 -59 45 -30 19 26 22 60
7 69 -6 4 -13 7 -16 7 -3 -1 -13 -3 -23 -6z"/>
<path d="M4122 4714 c-12 -8 -22 -23 -22 -32 0 -11 3 -13 8 -6 4 6 17 14 30
18 12 4 22 14 22 22 0 18 -10 18 -38 -2z"/>
<path d="M4250 4685 c0 -8 7 -15 15 -15 9 0 12 6 9 15 -4 8 -10 15 -15 15 -5
0 -9 -7 -9 -15z"/>
<path d="M3687 4652 c-15 -15 -27 -33 -27 -40 0 -7 -8 -12 -17 -12 -14 -1 -11
-4 8 -15 14 -7 30 -25 37 -39 6 -14 18 -26 27 -26 18 0 19 5 5 31 -7 11 -7 19
-1 19 10 0 26 58 18 67 -3 3 -12 1 -19 -3 -17 -11 -38 -14 -38 -6 0 14 61 41
78 36 14 -5 15 -4 2 5 -24 17 -45 13 -73 -17z"/>
<path d="M4146 4664 c-9 -9 -21 -12 -28 -8 -7 5 -5 -5 6 -20 12 -19 14 -31 8
-35 -6 -4 7 -6 28 -6 37 0 39 1 33 25 -3 14 -10 30 -14 36 -5 6 -6 14 -2 17 3
4 1 7 -5 7 -6 0 -18 -7 -26 -16z m17 -35 c4 -16 3 -18 -9 -8 -16 13 -19 29 -5
29 5 0 11 -9 14 -21z"/>
<path d="M4320 4670 c0 -5 5 -10 11 -10 5 0 7 5 4 10 -3 6 -8 10 -11 10 -2 0
-4 -4 -4 -10z"/>
<path d="M4237 4622 c-18 -20 -22 -32 -9 -32 4 0 12 11 19 25 13 30 12 31 -10
7z"/>
<path d="M4273 4608 c-27 -13 -28 -25 -8 -52 19 -25 19 -40 0 -32 -18 7 -21
-29 -3 -40 8 -5 9 -2 5 9 -4 11 -1 17 8 17 8 0 15 -3 15 -7 0 -5 18 -9 41 -10
37 -2 40 -1 33 20 -16 53 -24 67 -38 67 -20 0 -31 -19 -17 -33 13 -13 15 -37
3 -37 -11 0 -42 66 -35 74 4 3 17 6 29 6 17 0 22 4 18 15 -7 17 -20 18 -51 3z"/>
<path d="M4080 4595 c-14 -16 -10 -18 14 -9 9 3 16 10 16 15 0 14 -16 11 -30
-6z"/>
<path d="M4072 4544 c-12 -8 -22 -24 -22 -35 0 -11 -5 -29 -10 -40 -13 -23
-10 -23 36 -4 l35 14 -18 27 c-16 25 -16 27 2 40 26 19 5 18 -23 -2z"/>
<path d="M4417 4513 c-14 -4 -17 -10 -12 -26 4 -12 8 -34 8 -49 0 -23 6 -28
43 -37 24 -6 51 -11 62 -11 12 0 26 -14 38 -39 11 -24 28 -42 41 -46 13 -3 26
-6 29 -8 10 -3 33 82 24 88 -4 3 -13 -2 -20 -10 -7 -8 -18 -15 -25 -15 -17 0
-64 39 -47 40 6 0 12 -5 12 -10 0 -6 8 -5 19 2 27 17 15 30 -22 26 -32 -2 -35
1 -21 36 6 16 4 18 -14 14 -12 -4 -22 -2 -22 3 0 5 -13 9 -30 9 -32 0 -37 -9
-18 -28 6 -6 9 -15 5 -19 -10 -10 -24 7 -32 38 -6 24 -4 25 26 21 24 -3 30 -1
27 9 -5 15 -40 21 -71 12z m187 -179 c4 -10 1 -14 -6 -12 -15 5 -23 28 -10 28
5 0 13 -7 16 -16z"/>
<path d="M4550 4504 c0 -8 5 -12 10 -9 6 4 8 11 5 16 -9 14 -15 11 -15 -7z"/>
<path d="M3680 4455 c0 -8 5 -15 10 -15 6 0 10 7 10 15 0 8 -4 15 -10 15 -5 0
-10 -7 -10 -15z"/>
<path d="M4605 4380 c3 -5 8 -10 11 -10 2 0 4 5 4 10 0 6 -5 10 -11 10 -5 0
-7 -4 -4 -10z"/>
<path d="M4041 4224 c0 -11 3 -14 6 -6 3 7 2 16 -1 19 -3 4 -6 -2 -5 -13z"/>
<path d="M4585 4232 c-32 -6 -37 -17 -24 -48 7 -16 11 -37 10 -47 -1 -10 3
-17 11 -16 7 1 26 -3 41 -9 40 -17 39 -17 32 31 -12 80 -27 98 -70 89z m15
-32 c0 -5 -5 -10 -11 -10 -5 0 -7 5 -4 10 3 6 8 10 11 10 2 0 4 -4 4 -10z m4
-35 c3 -8 1 -15 -4 -15 -6 0 -10 7 -10 15 0 8 2 15 4 15 2 0 6 -7 10 -15z"/>
<path d="M3311 4164 c0 -11 3 -14 6 -6 3 7 2 16 -1 19 -3 4 -6 -2 -5 -13z"/>
<path d="M3390 4140 c0 -5 5 -10 10 -10 6 0 10 5 10 10 0 6 -4 10 -10 10 -5 0
-10 -4 -10 -10z"/>
<path d="M4570 4100 c0 -5 5 -10 10 -10 6 0 10 5 10 10 0 6 -4 10 -10 10 -5 0
-10 -4 -10 -10z"/>
<path d="M3331 4055 c-1 -32 19 -197 26 -208 3 -6 10 0 15 13 5 14 4 28 -3 36
-6 8 -9 24 -6 36 4 12 2 27 -3 33 -5 6 -13 33 -18 60 -5 28 -10 41 -11 30z"/>
<path d="M3030 3915 c0 -12 24 -55 31 -55 4 0 1 14 -7 30 -14 27 -24 38 -24
25z"/>
<path d="M3060 3833 c0 -4 5 -15 10 -23 8 -13 10 -13 10 2 0 9 -4 20 -10 23
-5 3 -10 3 -10 -2z"/>
<path d="M3165 3800 c-4 -6 -11 -8 -16 -5 -5 4 -9 -3 -9 -14 0 -32 15 -32 27
0 11 29 10 38 -2 19z"/>
<path d="M3076 3673 c19 -79 38 -94 49 -41 6 26 3 34 -16 49 -33 26 -40 24
-33 -8z"/>
<path d="M3160 3688 c1 -7 21 -35 45 -61 l45 -49 0 48 c0 42 -2 46 -13 30 -12
-17 -15 -16 -45 14 -18 17 -32 26 -32 18z"/>
<path d="M3148 3639 c2 -16 8 -29 12 -29 9 0 1 48 -9 55 -4 2 -5 -9 -3 -26z"/>
<path d="M3189 3559 c0 -34 -2 -39 -9 -24 -7 17 -9 15 -9 -12 -1 -18 5 -36 12
-40 6 -4 20 -21 29 -38 28 -50 38 -42 38 32 0 72 -2 77 -37 107 l-23 19 -1
-44z"/>
<path d="M3077 3576 c-6 -15 19 -43 29 -33 8 8 -5 47 -16 47 -4 0 -10 -6 -13
-14z"/>
<path d="M2850 3470 c-10 -6 -8 -9 6 -12 16 -4 14 -7 -11 -18 -30 -14 -39 -17
-62 -19 -7 0 -13 -5 -13 -11 0 -5 3 -9 8 -9 21 4 22 -3 4 -18 -21 -18 -34 -62
-19 -63 22 -1 27 1 27 13 0 6 11 12 23 12 14 0 24 -6 23 -14 -1 -8 4 -16 11
-18 7 -3 9 3 6 17 -4 13 1 26 13 36 11 9 13 13 7 9 -21 -10 -15 13 6 24 10 6
21 16 24 24 7 19 -36 58 -53 47z"/>
<path d="M2805 3440 c3 -5 8 -10 11 -10 2 0 4 5 4 10 0 6 -5 10 -11 10 -5 0
-7 -4 -4 -10z"/>
<path d="M3041 3387 c0 -16 -5 -26 -11 -22 -6 3 -10 -5 -10 -19 0 -13 -6 -26
-12 -28 -7 -3 2 -10 20 -16 18 -6 30 -7 27 -3 -2 5 2 14 10 21 8 7 12 16 9 21
-3 5 0 9 5 9 6 0 11 5 11 10 0 6 -9 10 -19 10 -12 0 -21 8 -24 23 -4 18 -4 17
-6 -6z"/>
<path d="M2602 3314 c-18 -20 -1 -40 37 -46 l27 -4 -20 33 c-24 37 -26 38 -44
17z"/>
<path d="M3003 3282 c11 -11 25 -18 33 -15 8 3 14 0 14 -6 0 -6 -9 -11 -20
-11 -11 0 -20 -4 -20 -10 0 -16 -21 -12 -43 8 -19 16 -20 16 -8 -5 6 -13 21
-23 32 -23 11 0 17 -4 14 -10 -3 -5 -2 -10 4 -10 5 0 13 5 16 10 3 6 1 10 -6
10 -16 0 -3 13 16 16 10 2 14 -8 13 -32 -1 -30 -4 -34 -29 -34 -15 0 -30 -4
-33 -9 -4 -5 5 -8 20 -6 18 2 24 -2 20 -11 -3 -8 1 -14 10 -14 8 0 13 -4 10
-9 -9 -14 45 -24 58 -11 8 8 6 14 -6 21 -10 6 -18 17 -18 24 0 8 -4 15 -10 15
-5 0 -10 7 -10 16 0 8 5 12 10 9 6 -3 10 1 10 9 0 9 -5 16 -10 16 -6 0 -10 6
-9 13 4 29 -2 45 -18 50 -10 2 -27 8 -38 13 -20 7 -20 7 -2 -14z"/>
<path d="M2783 3273 c4 -3 2 -14 -4 -25 -14 -27 -2 -36 16 -12 14 18 16 18 26
1 8 -14 18 -16 52 -11 50 8 49 7 41 27 -5 15 -9 15 -35 2 -36 -19 -45 -19 -41
3 2 13 -6 18 -29 19 -18 1 -29 0 -26 -4z"/>
<path d="M2528 3253 c-10 -2 -18 -9 -18 -15 0 -5 -7 -8 -15 -4 -8 3 -15 1 -15
-3 0 -12 29 -23 41 -15 8 5 34 46 27 43 -2 -1 -11 -3 -20 -6z"/>
<path d="M2561 3221 c-10 -10 -24 -20 -31 -23 -25 -8 -20 -42 7 -55 15 -7 29
-10 32 -7 3 4 0 9 -6 11 -14 5 -18 23 -5 23 19 -1 31 -18 25 -38 -3 -12 -10
-19 -15 -15 -6 3 -9 0 -6 -7 2 -8 10 -16 18 -18 7 -3 10 0 6 6 -3 6 -2 13 4
17 6 4 7 11 4 17 -5 7 1 9 15 5 29 -7 51 1 51 19 0 8 6 14 13 14 6 0 4 5 -6
11 -9 6 -14 16 -11 22 4 7 4 9 -1 5 -4 -4 -19 2 -33 12 -31 25 -37 25 -61 1z
m69 -27 c0 -2 -7 -4 -15 -4 -8 0 -15 4 -15 10 0 5 7 7 15 4 8 -4 15 -8 15 -10z"/>
<path d="M2418 3204 c13 -9 26 -13 30 -9 8 8 -17 25 -38 25 -9 0 -6 -6 8 -16z"/>
<path d="M2686 3197 c3 -10 9 -15 12 -12 3 3 0 11 -7 18 -10 9 -11 8 -5 -6z"/>
<path d="M2804 3195 c11 -8 28 -15 39 -15 13 0 17 -5 13 -15 -8 -22 38 -20 55
3 13 15 12 16 -3 4 -15 -12 -22 -10 -51 12 -19 14 -42 26 -53 26 -19 -1 -19
-1 0 -15z"/>
<path d="M2356 3175 c7 -17 -11 -21 -21 -5 -11 17 -35 -9 -35 -36 0 -13 -4
-24 -10 -24 -5 0 -10 -4 -10 -10 0 -5 6 -7 13 -5 6 3 17 -3 24 -14 10 -16 9
-20 -2 -25 -8 -3 -15 -10 -15 -15 0 -10 32 -7 52 5 6 4 8 3 4 -4 -8 -14 8 -24
27 -16 19 7 27 49 13 64 -8 8 -3 10 18 4 26 -6 27 -5 17 14 -6 12 -19 27 -29
34 -10 7 -21 21 -25 31 -3 9 -11 17 -16 17 -6 0 -8 -7 -5 -15z"/>
<path d="M2056 3162 c-2 -4 4 -14 15 -20 19 -12 19 -11 9 8 -12 22 -16 24 -24
12z"/>
<path d="M2285 3070 c-3 -5 -2 -10 4 -10 5 0 13 5 16 10 3 6 2 10 -4 10 -5 0
-13 -4 -16 -10z"/>
<path d="M2471 3063 c13 -14 64 -18 55 -4 -3 5 -19 11 -36 13 -24 4 -27 2 -19
-9z"/>
<path d="M2982 3072 c-8 -5 -10 -16 -5 -28 7 -18 6 -18 -11 -1 -10 10 -21 15
-24 12 -4 -3 0 -10 8 -15 11 -7 11 -11 1 -24 -15 -18 -6 -56 14 -56 7 0 16 6
19 13 4 6 4 2 2 -11 -3 -14 2 -26 14 -32 26 -14 34 -12 20 4 -10 13 -7 14 14
10 36 -6 57 33 30 54 -18 14 -18 14 1 7 11 -4 34 -8 52 -9 25 -1 30 1 21 11
-8 10 -14 11 -25 1 -11 -9 -16 -9 -24 3 -5 8 -9 18 -9 23 0 5 -3 7 -6 3 -3 -3
-18 5 -32 19 -29 26 -39 29 -60 16z m49 -45 c-11 -11 -41 -3 -41 11 0 5 12 7
26 4 17 -3 22 -8 15 -15z"/>
<path d="M1926 3053 c-4 -9 -3 -20 1 -24 4 -4 9 3 9 17 2 28 -1 31 -10 7z"/>
<path d="M2410 3059 c0 -5 5 -7 10 -4 17 10 38 -14 33 -35 -5 -18 -15 -24 -35
-21 -12 2 -10 -7 8 -34 10 -15 12 -25 5 -25 -5 0 -8 -6 -5 -14 3 -8 12 -12 21
-9 13 5 13 2 -2 -21 -20 -30 -10 -50 31 -60 52 -13 104 42 74 79 -5 6 -7 15
-3 18 3 4 0 7 -7 7 -9 0 -7 7 6 21 19 21 19 21 -10 44 -16 13 -34 21 -40 19
-6 -2 -20 7 -30 21 -19 25 -56 35 -56 14z m125 -69 c3 -5 2 -10 -4 -10 -5 0
-13 5 -16 10 -3 6 -2 10 4 10 5 0 13 -4 16 -10z m3 -115 c-3 -3 -9 2 -12 12
-6 14 -5 15 5 6 7 -7 10 -15 7 -18z"/>
<path d="M2271 3024 c0 -11 3 -14 6 -6 3 7 2 16 -1 19 -3 4 -6 -2 -5 -13z"/>
<path d="M2271 2980 c0 -8 4 -24 9 -35 5 -13 9 -14 9 -5 0 8 -4 24 -9 35 -5
13 -9 14 -9 5z"/>
<path d="M2313 2963 c-4 -9 -2 -18 5 -21 6 -2 8 -10 5 -19 -4 -11 -2 -14 5 -9
7 4 12 2 12 -5 0 -15 29 21 30 37 0 6 -11 16 -25 22 -22 10 -27 9 -32 -5z m32
-13 c3 -6 -1 -7 -9 -4 -18 7 -21 14 -7 14 6 0 13 -4 16 -10z"/>
<path d="M2910 2958 c0 -9 7 -19 16 -22 15 -6 15 -4 3 11 -7 10 -15 20 -16 22
-2 2 -3 -3 -3 -11z"/>
<path d="M2908 2913 c7 -3 16 -2 19 1 4 3 -2 6 -13 5 -11 0 -14 -3 -6 -6z"/>
<path d="M2310 2896 c0 -2 7 -9 15 -16 9 -7 15 -8 15 -2 0 5 -7 12 -15 16 -8
3 -15 4 -15 2z"/>
<path d="M2893 2864 c-7 -3 -9 -12 -6 -21 4 -11 2 -14 -5 -9 -17 10 -15 0 6
-32 l17 -27 -27 18 c-16 9 -28 13 -28 8 0 -5 5 -13 10 -16 15 -9 12 -25 -4
-25 -8 0 -17 -4 -20 -9 -8 -13 5 -71 16 -71 5 0 6 6 2 13 -5 8 -2 8 9 -2 9 -7
17 -20 17 -28 0 -18 -41 -34 -57 -21 -8 6 -14 2 -19 -14 -7 -22 -7 -22 -14 -3
-9 24 6 46 26 38 8 -3 14 1 14 8 0 22 -14 35 -36 35 -16 0 -19 -5 -16 -22 4
-24 -15 -41 -30 -26 -6 6 -6 12 1 16 29 18 -11 85 -44 73 -22 -9 -19 -26 4
-20 26 7 34 -10 19 -42 -10 -22 -9 -28 10 -41 23 -15 20 -39 -2 -31 -7 3 -18
-4 -25 -14 -8 -13 -21 -19 -38 -17 -20 2 -28 -2 -31 -15 -3 -13 1 -17 15 -15
13 2 18 -3 17 -19 0 -15 7 -23 24 -26 17 -3 20 -1 13 6 -14 14 -14 30 -1 22 6
-4 19 -1 28 7 15 12 16 11 3 -4 -16 -21 -1 -24 31 -7 11 6 22 8 25 6 2 -3 -11
-13 -31 -22 -20 -10 -36 -19 -36 -22 0 -7 77 5 97 16 10 5 26 12 37 15 14 5
17 12 12 32 -6 24 -5 26 19 20 27 -7 35 10 13 32 -9 9 -9 12 0 12 7 0 12 -4
12 -8 0 -5 10 -14 23 -20 18 -9 19 -11 4 -11 -10 -1 -16 -5 -13 -10 4 -5 23
-5 47 0 48 11 83 28 75 36 -3 3 -12 0 -20 -6 -11 -9 -16 -9 -22 0 -5 8 -3 9 6
4 10 -6 12 -4 7 9 -5 11 -3 15 5 10 7 -4 8 -3 4 4 -4 7 -16 12 -27 12 -11 0
-24 11 -30 24 -7 14 -17 22 -24 19 -19 -7 -55 15 -55 33 0 20 27 29 44 15 9
-8 22 -8 39 -2 29 11 38 29 25 54 -6 12 -5 17 6 17 20 0 14 30 -9 42 -13 8
-16 7 -11 -1 4 -6 2 -11 -3 -11 -6 0 -11 6 -11 14 0 7 -12 16 -27 19 -24 4
-26 4 -10 -8 24 -18 21 -26 -8 -19 -20 5 -25 2 -25 -12 0 -9 8 -27 18 -38 l17
-21 -23 20 c-19 16 -22 26 -17 52 3 18 5 33 3 32 -2 0 -8 -3 -15 -5z m100
-103 c-3 -12 -11 -17 -19 -14 -17 6 -18 20 -1 26 22 9 25 7 20 -12z m-123 -27
c0 -8 -4 -12 -10 -9 -5 3 -10 10 -10 16 0 5 5 9 10 9 6 0 10 -7 10 -16z m117
-136 c-5 -3 -16 -4 -24 -1 -10 4 -11 9 -2 19 8 10 14 11 24 1 8 -8 9 -14 2
-19z m-210 -13 c-2 -5 -11 -9 -20 -7 -8 1 -18 -2 -22 -8 -3 -5 -11 -10 -17
-10 -7 0 -7 4 1 13 6 8 8 17 4 21 -4 4 7 6 25 4 18 -1 31 -7 29 -13z"/>
<path d="M2377 2853 c-12 -12 -7 -19 12 -19 15 0 17 3 9 13 -12 15 -13 15 -21
6z"/>
<path d="M2635 2778 c-20 -19 -37 -28 -52 -25 -13 2 -23 0 -23 -4 0 -5 -6 -6
-14 -3 -10 4 -12 -2 -8 -21 3 -17 9 -24 18 -21 8 3 26 1 41 -5 18 -7 30 -6 37
1 5 5 19 10 29 10 16 0 17 -3 7 -15 -8 -9 -9 -15 -2 -15 18 0 25 20 12 35 -8
10 -8 15 0 20 6 4 9 14 6 22 -4 10 -2 13 8 10 11 -4 13 -1 9 11 -6 17 -23 33
-33 31 -3 -1 -18 -14 -35 -31z"/>
<path d="M720 2733 c-8 -3 -23 -14 -33 -24 -17 -16 -18 -22 -8 -47 10 -24 18
-28 54 -30 84 -5 214 -32 290 -62 96 -37 111 -38 102 -7 -10 34 -72 86 -145
121 -54 25 -77 31 -136 31 -65 0 -73 -2 -108 -32 -20 -18 -39 -33 -41 -33 -3
0 -5 11 -5 26 0 19 8 28 35 40 19 8 35 16 35 19 0 6 -21 5 -40 -2z m162 -84
c59 -12 181 -49 176 -54 -3 -3 -220 50 -243 59 -20 8 15 6 67 -5z"/>
<path d="M778 2733 c7 -3 16 -2 19 1 4 3 -2 6 -13 5 -11 0 -14 -3 -6 -6z"/>
<path d="M2780 2729 c0 -5 5 -7 10 -4 6 3 10 8 10 11 0 2 -4 4 -10 4 -5 0 -10
-5 -10 -11z"/>
<path d="M3050 2710 c8 -5 22 -10 30 -10 13 0 13 1 0 10 -8 5 -22 10 -30 10
-13 0 -13 -1 0 -10z"/>
<path d="M2012 2691 c-9 -5 -10 -15 -3 -32 l9 -24 7 28 c8 32 5 39 -13 28z"/>
<path d="M3040 2655 c0 -8 5 -15 10 -15 6 0 10 7 10 15 0 8 -4 15 -10 15 -5 0
-10 -7 -10 -15z"/>
<path d="M3070 2654 c0 -8 5 -12 10 -9 6 4 8 11 5 16 -9 14 -15 11 -15 -7z"/>
<path d="M2609 2632 c-14 -6 -15 -9 -3 -20 8 -7 14 -8 14 -2 0 5 11 10 25 10
14 0 25 5 25 10 0 11 -36 12 -61 2z"/>
<path d="M1996 2614 c-9 -22 3 -32 14 -14 12 19 12 30 1 30 -5 0 -12 -7 -15
-16z"/>
<path d="M2584 2595 c-8 -20 -1 -27 23 -23 18 3 18 4 0 21 -15 15 -18 16 -23
2z"/>
<path d="M2920 2556 c0 -22 97 -22 125 1 19 15 19 15 -5 9 -61 -16 -91 -18
-105 -6 -12 10 -15 10 -15 -4z"/>
<path d="M2908 2513 c7 -3 16 -2 19 1 4 3 -2 6 -13 5 -11 0 -14 -3 -6 -6z"/>
<path d="M1543 2323 c-13 -2 -23 -9 -23 -14 0 -5 -17 -9 -37 -9 -26 0 -34 -3
-26 -11 13 -13 87 7 104 28 6 7 10 12 8 12 -2 -1 -14 -4 -26 -6z"/>
<path d="M1503 2258 c-13 -6 -23 -14 -23 -19 0 -4 11 -2 25 4 14 7 25 15 25
20 0 8 1 9 -27 -5z"/>
<path d="M1635 2230 c-3 -6 1 -7 9 -4 18 7 21 14 7 14 -6 0 -13 -4 -16 -10z"/>
<path d="M1848 2183 c6 -2 18 -2 25 0 6 3 1 5 -13 5 -14 0 -19 -2 -12 -5z"/>
<path d="M615 1680 l-20 -9 20 0 c11 0 27 4 35 9 13 9 13 10 0 9 -8 0 -24 -4
-35 -9z"/>
<path d="M472 1608 c6 -24 11 -55 13 -70 1 -23 48 -98 60 -98 2 0 3 10 2 23
-3 29 -37 97 -48 97 -5 0 -9 13 -9 29 0 34 -9 61 -20 61 -4 0 -3 -19 2 -42z"/>
<path d="M420 1546 c0 -8 -5 -16 -11 -18 -5 -2 2 -15 18 -28 19 -17 22 -18 10
-4 -19 23 -23 39 -7 29 6 -3 10 1 10 9 0 8 -4 18 -10 21 -5 3 -10 0 -10 -9z"/>
<path d="M6828 1209 c-25 -14 -22 -24 6 -25 18 -1 24 3 23 17 -1 22 -5 22 -29
8z"/>
<path d="M6790 1178 c0 -9 5 -20 10 -23 13 -8 13 5 0 25 -8 13 -10 13 -10 -2z"/>
<path d="M6866 1173 c-4 -5 -12 -8 -17 -8 -5 0 -9 -4 -9 -10 0 -5 5 -10 10 -9
6 1 17 2 25 3 8 0 15 8 15 16 0 16 -12 20 -24 8z"/>
<path d="M6416 1121 c-4 -7 -5 -15 -2 -18 9 -9 19 4 14 18 -4 11 -6 11 -12 0z"/>
<path d="M6185 1024 c-77 -26 -107 -42 -132 -69 -91 -97 34 -88 140 10 29 28
67 61 83 73 38 28 27 27 -91 -14z"/>
<path d="M377 1003 c-9 -14 15 -54 44 -76 42 -31 142 -34 221 -8 36 12 73 30
82 40 16 18 14 19 -73 20 -80 0 -187 12 -247 27 -12 3 -24 2 -27 -3z"/>
<path d="M6170 855 c-7 -9 -11 -17 -9 -20 3 -2 10 5 17 15 14 24 10 26 -8 5z"/>
<path d="M3066 472 c-4 -6 0 -24 8 -39 13 -23 15 -24 15 -8 -1 32 -14 61 -23
47z"/>
<path d="M3060 201 c0 -6 4 -13 10 -16 6 -3 7 1 4 9 -7 18 -14 21 -14 7z"/>
<path d="M4060 130 c-13 -8 -12 -10 3 -10 9 0 17 5 17 10 0 12 -1 12 -20 0z"/>
<path d="M4818 133 c6 -2 18 -2 25 0 6 3 1 5 -13 5 -14 0 -19 -2 -12 -5z"/>
<path d="M4728 123 c7 -3 16 -2 19 1 4 3 -2 6 -13 5 -11 0 -14 -3 -6 -6z"/>
<path d="M6390 108 c0 -4 4 -8 9 -8 6 0 12 4 15 8 3 5 -1 9 -9 9 -8 0 -15 -4
-15 -9z"/>
<path d="M4820 89 c0 -5 5 -7 10 -4 6 3 10 8 10 11 0 2 -4 4 -10 4 -5 0 -10
-5 -10 -11z"/>
<path d="M6288 74 c0 -10 0 -27 0 -37 1 -11 -2 -15 -9 -11 -7 4 -10 1 -7 -6 8
-25 23 -21 34 8 9 22 8 33 -2 47 -14 18 -14 18 -16 -1z"/>
<path d="M4330 70 c0 -13 27 -13 35 0 3 6 -3 10 -14 10 -12 0 -21 -4 -21 -10z"/>
<path d="M3935 60 c-3 -5 1 -10 9 -10 8 0 18 5 21 10 3 6 -1 10 -9 10 -8 0
-18 -4 -21 -10z"/>
<path d="M4733 63 c9 -2 23 -2 30 0 6 3 -1 5 -18 5 -16 0 -22 -2 -12 -5z"/>
<path d="M1683 43 c9 -2 25 -2 35 0 9 3 1 5 -18 5 -19 0 -27 -2 -17 -5z"/>
<path d="M6340 35 c-7 -9 -8 -15 -2 -15 5 0 12 7 16 15 3 8 4 15 2 15 -2 0 -9
-7 -16 -15z"/>
<path d="M1190 30 c0 -5 5 -10 10 -10 6 0 10 5 10 10 0 6 -4 10 -10 10 -5 0
-10 -4 -10 -10z"/>
<path d="M1465 30 c3 -5 15 -10 26 -10 10 0 19 5 19 10 0 6 -12 10 -26 10 -14
0 -23 -4 -19 -10z"/>
<path d="M4413 33 c9 -2 25 -2 35 0 9 3 1 5 -18 5 -19 0 -27 -2 -17 -5z"/>
<path d="M1285 20 c-3 -5 3 -10 14 -10 12 0 21 5 21 10 0 6 -6 10 -14 10 -8 0
-18 -4 -21 -10z"/>
<path d="M4925 20 c-13 -6 -15 -9 -5 -9 8 0 22 4 30 9 18 12 2 12 -25 0z"/>
<path d="M1588 13 c6 -2 18 -2 25 0 6 3 1 5 -13 5 -14 0 -19 -2 -12 -5z"/>
<path d="M2560 9 c0 -5 5 -7 10 -4 6 3 10 8 10 11 0 2 -4 4 -10 4 -5 0 -10 -5
-10 -11z"/>
<path d="M1388 3 c6 -2 18 -2 25 0 6 3 1 5 -13 5 -14 0 -19 -2 -12 -5z"/>
<path d="M1698 3 c7 -3 16 -2 19 1 4 3 -2 6 -13 5 -11 0 -14 -3 -6 -6z"/>
</g>
</svg>
